<?xml version="1.0" encoding="UTF-8" standalone="no"?>
<!-- Generator: Adobe Illustrator 27.5.0, SVG Export Plug-In . SVG Version: 6.00 Build 0)  -->

<svg
   version="1.1"
   x="0px"
   y="0px"
   viewBox="0 0 500 500"
   style="enable-background:new 0 0 500 500;"
   xml:space="preserve"
   id="svg218"
   sodipodi:docname="38680319_8669259.svg"
   inkscape:version="1.2 (dc2aeda, 2022-05-15)"
   xmlns:inkscape="http://www.inkscape.org/namespaces/inkscape"
   xmlns:sodipodi="http://sodipodi.sourceforge.net/DTD/sodipodi-0.dtd"
   xmlns="http://www.w3.org/2000/svg"
   xmlns:svg="http://www.w3.org/2000/svg"><defs
   id="defs222">
	
	
	

		
		
		
		
		
			
		
			
		
			
	
			
			
			
			
			
			
			
			
			
			
			
			
			
			
			
			
			
			
			
			
			
			
			
			
			
			
			
			
			
			
			
			
			
			
			
			
			
			
			
			
			
			
			
			
			
			
			
			
			
			
			
			
			
			
			
			
			
			
			
			
			
			
			
			
			
			
			
			
			
			
			
			
			
			
			
			
			
			
			
			
		
		
		
	
			
			
			
			
			
			
			
			
			
			
			
			
			
			
		</defs><sodipodi:namedview
   id="namedview220"
   pagecolor="#ffffff"
   bordercolor="#000000"
   borderopacity="0.25"
   inkscape:showpageshadow="2"
   inkscape:pageopacity="0.0"
   inkscape:pagecheckerboard="0"
   inkscape:deskcolor="#d1d1d1"
   showgrid="false"
   inkscape:zoom="0.76508705"
   inkscape:cx="354.86158"
   inkscape:cy="271.21097"
   inkscape:window-width="1512"
   inkscape:window-height="945"
   inkscape:window-x="0"
   inkscape:window-y="37"
   inkscape:window-maximized="0"
   inkscape:current-layer="svg218" />

<g
   id="g7617"
   inkscape:export-filename="g7617.png"
   inkscape:export-xdpi="96"
   inkscape:export-ydpi="96"><g
     id="BACKGROUND">
	<rect
   style="fill:#FFFFFF;"
   width="500"
   height="500"
   id="rect2" />
</g><ellipse
     style="fill:#dee2d9"
     cx="244.511"
     cy="442.923"
     rx="190.28101"
     ry="15.239"
     id="ellipse5" /><path
     style="fill:#aedf8f"
     d="m 299.993,403.104 c -0.012,0.052 -0.018,0.114 -0.015,0.2 0.024,-0.083 0.026,-0.148 0.015,-0.2 z"
     id="path7" /><path
     style="fill:#aedf8f"
     d="m 316.004,401.613 -0.162,0.132 c 0.118,-0.039 0.155,-0.083 0.162,-0.132 z"
     id="path9" /><path
     style="fill:#aedf8f"
     d="m 290.434,403.322 0.02,-0.047 c -0.147,-0.004 -0.347,-0.009 -0.671,-0.016 z"
     id="path11" /><path
     style="fill:#aedf8f"
     d="m 348.8,390.939 -0.189,0.109 c 0.088,-0.044 0.153,-0.056 0.189,-0.109 z"
     id="path13" /><path
     style="fill:#aedf8f"
     d="m 329.607,398.185 c 0.033,-0.099 0.123,-0.165 0.212,-0.226 -0.129,0.032 -0.222,0.085 -0.212,0.226 z"
     id="path15" /><path
     style="fill:#aedf8f"
     d="m 285.382,399.201 0.264,0.281 c -0.005,-0.123 -0.099,-0.25 -0.264,-0.281 z"
     id="path17" /><path
     style="fill:#aedf8f"
     d="m 275.955,400.016 0.02,0.067 z"
     id="path19" /><path
     style="fill:#aedf8f"
     d="m 279.589,401.402 c 0.081,-0.024 0.176,-0.072 0.272,-0.12 -0.114,0.006 -0.258,0.003 -0.272,0.12 z"
     id="path21" /><path
     style="fill:#aedf8f"
     d="m 279.991,401.212 -0.13,0.069 c 0.071,-0.007 0.13,-0.018 0.13,-0.069 z"
     id="path23" /><path
     style="fill:#aedf8f"
     d="m 418.661,291.922 c 0.061,-0.276 -0.112,-0.548 -0.245,-0.826 z"
     id="path25" /><path
     style="fill:#aedf8f"
     d="m 374.887,373.393 0.031,0.131 c 0.019,-0.069 -0.001,-0.106 -0.031,-0.131 z"
     id="path27" /><path
     style="fill:#aedf8f"
     d="m 416.256,291.178 0.093,-0.183 c -0.059,0.062 -0.084,0.123 -0.093,0.183 z"
     id="path29" /><path
     style="fill:#aedf8f"
     d="m 290.304,398.3 c 0.256,-0.288 0.822,0.033 0.804,-0.24 -0.282,0.052 -0.694,-0.148 -0.804,0.24 z"
     id="path31" /><path
     style="fill:#aedf8f"
     d="m 372.433,361.236 0.113,-0.134 z"
     id="path33" /><polygon
     style="fill:#aedf8f"
     points="416.256,291.178 416.15,291.39 416.301,291.346 "
     id="polygon35" /><polygon
     style="fill:#aedf8f"
     points="396.887,349.143 396.881,349.152 396.885,349.236 "
     id="polygon37" /><path
     style="fill:#aedf8f"
     d="m 398.245,347.965 c -0.044,0.118 -0.087,0.232 -0.134,0.359 0.135,-0.146 0.153,-0.259 0.134,-0.359 z"
     id="path39" /><path
     style="fill:#aedf8f"
     d="m 418.415,291.096 -0.141,-0.47 c 0.004,0.162 0.067,0.317 0.141,0.47 z"
     id="path41" /><path
     style="fill:#aedf8f"
     d="m 407.463,331.603 -0.045,0.17 c 0.037,-0.065 0.051,-0.121 0.045,-0.17 z"
     id="path43" /><path
     style="fill:#aedf8f"
     d="m 328.308,398.435 -0.163,-0.013 c 0.005,0.067 0.03,0.108 0.163,0.013 z"
     id="path45" /><polygon
     style="fill:#aedf8f"
     points="337.245,386.954 337.249,386.952 337.247,386.947 "
     id="polygon47" /><path
     style="fill:#aedf8f"
     d="m 336.789,387.526 c 0.212,-0.021 0.399,-0.32 0.456,-0.572 -0.188,0.079 -0.34,0.208 -0.456,0.572 z"
     id="path49" /><path
     style="fill:#aedf8f"
     d="m 338.579,386.527 -0.083,0.001 z"
     id="path51" /><polygon
     style="fill:#aedf8f"
     points="326.265,390.791 326.275,390.819 326.273,390.792 "
     id="polygon53" /><path
     style="fill:#aedf8f"
     d="m 328.672,389.878 c 0.061,0.036 0.135,0.054 0.209,0.057 -0.059,-0.037 -0.13,-0.06 -0.209,-0.057 z"
     id="path55" /><polygon
     style="fill:#aedf8f"
     points="344,383.009 344.003,383.021 344.013,383.011 "
     id="polygon57" /><path
     style="fill:#ab7273;fill-opacity:1"
     d="m 363.006,368.301 c -0.853,0.843 -1.881,1.754 -2.885,2.701 -1.024,0.92 -2.037,1.863 -3.091,2.43 -0.1,0.765 -0.72,1.204 -1.282,1.734 l -0.494,-0.596 -0.389,0.558 c -0.342,-0.051 0.324,-0.39 -0.214,-0.381 l 0.065,0.533 c -0.194,-0.202 -1.447,0.751 -0.869,-0.303 -0.673,0.46 -1.355,0.906 -2.063,1.313 -0.476,0.259 0.066,0.709 -0.548,0.856 -0.222,-0.129 0.104,-0.243 -0.082,-0.453 -1.83,0.433 -1.016,2.352 -2.646,2.925 l 0.072,-0.163 c -0.14,0.334 -0.634,0.574 -0.588,0.669 0.575,0.572 0.064,-0.503 0.731,-0.375 0.288,0.592 -0.379,0.638 -0.108,1.047 -0.467,-0.017 -0.491,0.418 -0.78,0.617 -0.721,-0.077 -1.331,0.582 -1.967,0.342 -0.157,0.318 -0.141,1.038 -0.681,1.36 -0.632,-0.24 -0.134,-0.482 -0.759,-0.363 l 0.089,0.384 c -0.467,0.185 -0.447,0.053 -0.513,-0.114 -0.48,0.231 -0.146,0.69 -0.863,0.76 l 0.17,-0.49 c -0.38,0.344 -0.592,0.372 -1.228,0.64 -0.083,-0.202 0.173,-0.308 0.383,-0.338 -0.587,-0.342 -0.469,0.494 -0.679,0.526 0.125,0.124 0.59,-0.016 0.544,0.42 -0.339,0.086 -0.435,0.778 -0.852,0.481 l 0.178,-0.49 c -0.517,0.574 -0.139,0.591 -0.944,0.814 0.028,-0.045 -0.032,-0.121 -0.05,-0.2 -0.261,0.663 -1.064,0.559 -1.771,0.858 l 0.089,-0.155 c -0.225,0.251 -0.239,0.633 -0.401,0.681 0.487,0.009 0.425,0.161 0.613,0.476 -0.782,-0.313 -0.506,1.046 -1.542,1.074 -0.073,-0.204 0.032,-0.535 0.367,-0.426 0.036,-0.72 -0.141,-1.212 0.251,-1.739 -0.257,0.297 -0.614,0.533 -0.641,0.254 l 0.14,0.588 c -0.194,0.099 -0.367,0.133 -0.518,0.197 0.066,0.382 0.657,0.394 0.29,0.818 -0.449,0.4 -0.526,-0.443 -0.5,-0.162 -0.628,0.523 -0.045,0.715 -0.821,0.829 0.05,-0.075 0.145,-0.227 0.228,-0.201 -0.594,-0.011 -1.188,0.619 -1.611,0.016 0.012,-0.18 -0.058,-0.385 0.155,-0.408 l 0.035,0.104 c 0.344,-0.711 -0.402,0.323 -0.48,-0.347 0.187,0.341 -0.546,0.554 -0.886,0.622 l 0.266,0.366 c -0.557,1.665 -0.272,-0.831 -1.241,-0.237 -0.546,0.553 0.294,0.009 0.005,0.467 -0.477,0.107 -0.791,-0.204 -1.382,0.219 -0.247,-0.095 -0.705,-0.177 -0.911,-0.627 -0.329,0.334 -1.288,0.239 -1.349,0.773 0.827,0.136 0.5,-0.734 1.524,-0.428 l -0.055,0.532 c -0.564,0.18 -1.192,0.67 -1.635,0.647 0.11,0.06 0.187,0.163 0.173,0.278 -0.731,0.463 -0.801,1.002 -1.624,1.15 -0.246,-0.379 0.231,-0.474 0.548,-0.632 -0.616,-0.155 -0.525,0.179 -1.353,0.303 -0.164,-0.345 0.534,-0.15 0.497,-0.547 -0.269,0.149 -0.545,0.277 -0.822,0.406 l -0.025,-0.074 c 0.08,0.65 -0.679,0.156 -1.148,0.506 -1.257,0.393 -1.187,1.279 -1.737,1.994 -0.24,-0.106 -0.344,-0.246 -0.312,-0.426 0.395,0.175 0.274,-0.022 0.332,-0.217 -0.408,0.199 -1.117,-0.309 -0.955,-0.633 -0.62,0.392 0.342,0.248 -0.012,0.57 l -0.938,0.252 c 0.203,0.283 0.551,0.247 0.141,0.641 -0.379,0.222 -0.6,0.196 -1.143,0.322 0.033,-0.176 -0.306,-0.436 0.102,-0.524 -0.293,-0.05 -0.701,0.042 -0.771,0.392 0.669,0.132 -0.889,0.529 -0.314,0.906 l -0.668,-0.132 c 0.136,-0.029 0.094,-0.245 0.308,-0.235 -0.298,-0.438 -0.443,0.265 -0.638,0.366 -0.233,-0.038 -0.782,0.063 -0.876,-0.113 -0.151,0.184 -0.633,0.199 -0.781,-0.026 -0.252,0.169 0.058,0.322 0.018,0.5 l -0.952,0.21 c -0.117,-0.256 -0.378,-0.981 -0.262,-1.119 -0.294,0.339 0.071,0.837 -0.477,0.935 0.185,-0.587 -0.812,-0.247 -0.51,-0.965 -0.4,-0.316 -1.273,-0.112 -1.725,0.132 -0.207,0.48 0.577,0.121 0.644,0.554 -1.329,0.449 -1.162,1.643 -2.218,1.657 l 0.288,0.063 c -0.582,0.379 -0.522,0.31 -0.818,0.751 0.063,-0.579 -0.999,-1.24 -2.017,-0.96 -0.038,0.283 0.681,0.41 0.592,0.861 l -0.682,0.197 c -0.058,-0.034 0.002,-0.135 0.079,-0.218 -0.591,0.294 -1.285,-0.497 -1.353,0.157 l -0.767,-0.673 0.307,0.291 c -0.04,0.278 -0.725,0.475 -0.853,0.603 -0.665,0.414 -0.964,0.229 -1.406,-0.045 0.158,0.2 0.548,0.648 -0.003,0.826 -0.128,-0.869 -1.228,-0.119 -1.278,-0.576 -0.227,0.039 -0.669,-0.183 -0.645,0.18 l -0.038,-0.545 c 0.054,0.761 -0.784,0.826 -1.404,1.038 0.013,-1.043 -0.691,0.164 -1.087,-0.736 -0.035,0.712 -1.094,0.412 -1.14,1.02 -0.488,0.093 -0.509,-0.563 -0.657,-0.77 l -0.2,0.288 c -0.28,-0.29 -1.202,-0.236 -1.77,-0.435 l -0.453,0.654 -0.213,-0.267 c -0.068,0.163 -0.484,0.286 -0.202,0.497 l -0.279,-0.016 c 0.033,0.677 -0.372,0.214 -0.906,0.543 -0.136,-0.099 -0.114,-0.263 -10e-4,-0.362 -0.276,0.014 -0.184,-0.341 -0.351,-0.556 0.211,0.158 -0.909,1.285 -0.141,1.534 0.072,0.272 -0.353,0.505 -0.635,0.404 l -0.206,-0.595 -0.287,0.664 c -0.424,0.121 -0.63,-0.254 -0.98,-0.297 0.353,-0.064 0.717,-1.227 -0.189,-1.144 0.473,-0.115 0.687,-0.47 0.925,-0.615 -0.189,-0.01 -0.285,-0.062 -0.01,-0.341 -0.693,0.241 -0.213,0.39 -0.908,0.519 0.009,-0.552 -0.195,-0.691 -0.812,-0.869 l 0.475,0.387 c -0.018,0.069 -0.047,0.116 -0.08,0.149 0.176,0.053 0.229,0.129 0.277,0.337 -0.136,0.017 -0.781,0.7 -0.913,0.378 0.749,0.829 -1.21,0.688 -0.736,1.188 -0.075,0.16 -0.57,0.206 -0.631,-0.066 0.577,-0.427 -0.466,-0.608 -0.382,-0.991 -0.214,0.163 0.476,0.392 0.187,0.606 -0.351,0.046 -0.619,-0.284 -0.819,-0.449 l 0.144,-0.106 -0.547,-0.23 c -0.083,0.274 0.536,0.447 0.04,0.602 -0.134,-0.111 -0.632,0.044 -0.621,-0.174 0.23,-0.38 0.048,-0.873 0.469,-0.977 -0.349,0.048 -1.465,0.141 -1.006,0.639 l -0.421,-0.007 c 0.266,0.223 1.014,0.617 0.168,0.714 l 0.006,-0.109 -0.586,0.428 -0.259,-0.275 c 0.008,0.138 -0.084,0.267 -0.303,0.264 -0.058,-0.161 -0.264,-0.233 -0.248,-0.45 -0.633,0.013 -0.582,0.291 -0.666,0.448 -0.355,0.031 -0.488,-0.086 -0.32,-0.403 -0.484,-0.083 -1.332,-0.031 -1.657,-0.326 -0.653,0.231 0.131,0.117 -0.255,0.478 -0.54,-0.97 -2.13,-0.403 -3.196,-0.326 0.248,0.85 -0.293,0.074 -0.525,0.816 0.241,-0.246 -0.971,-0.715 -0.033,-0.882 l -0.569,0.046 c -0.358,-0.483 0.949,-0.276 0.401,-0.943 -0.627,-0.018 -1.096,0.862 -1.821,0.504 0.289,-0.57 -0.585,0.154 -0.355,-0.479 0.169,-0.202 0.369,-0.122 0.582,-0.154 l -0.122,-0.124 c -1.363,-0.267 -0.446,0.665 -1.201,1.017 -0.851,0.015 -0.628,-0.51 -0.655,-0.789 -0.121,-0.124 -0.551,-0.062 -0.786,0.076 0.543,-0.323 0.918,0.435 0.652,0.789 -0.316,-0.696 -1.248,-0.142 -1.505,0.105 1.148,0.791 0.833,0.092 1.913,0.932 0.174,-0.201 0.193,-0.803 0.858,-0.507 -0.451,0.267 0.005,0.336 0.12,0.442 -0.108,-0.355 0.485,-0.11 0.703,-0.239 0.173,0.294 -0.465,0.77 0.224,0.959 l 0.182,-0.804 c 0.264,0.142 -0.152,0.588 0.439,0.435 -0.338,0.403 0.057,0.666 -0.741,0.74 0.901,0.761 1.47,-0.273 2.209,-0.517 -0.077,0.046 -0.09,0.153 -0.166,0.202 0.166,-0.199 0.448,-0.172 0.666,-0.219 0.475,0.196 -0.397,0.36 -0.282,0.586 l 0.785,-0.004 0.017,0.058 c 0.21,-0.107 0.409,-0.176 0.474,0.028 -0.242,0.257 -0.344,0.526 -0.51,0.735 l 0.846,-0.548 c -0.099,0.266 0.668,0.479 0.073,0.662 l 1.229,-0.087 0.092,0.553 c 0.297,-0.091 0.306,-0.199 -0.044,-0.274 0.421,0.135 1.87,-0.922 1.639,0.157 0.967,-0.437 1.313,-0.22 2.474,-0.541 -0.892,0.53 1.037,0.616 0.087,0.875 0.562,0.226 0.67,-0.372 1.106,-0.475 0.416,0.224 0.246,0.767 -0.199,0.98 l 0.521,-0.264 -0.007,0.109 0.449,-0.322 c 0.491,0.281 0.116,0.548 0.62,0.61 l 0.094,-0.489 0.348,0.275 c -0.135,-0.22 0.158,-0.325 0.519,-0.373 l -0.004,0.109 0.437,-0.104 c -0.424,0.306 0.407,0.094 0.221,0.448 0.379,0.014 0.387,0.007 1.065,-0.099 l -0.136,-0.329 c 0.872,-0.334 0.062,0.497 0.783,0.476 l -0.066,-0.379 c 1.073,0.567 1.73,-0.492 2.52,-0.136 -0.431,0.121 -0.289,0.556 -0.288,0.446 0.65,-0.188 1.735,-0.165 2.375,-0.677 0.298,0.535 0.372,0.696 1.101,0.892 0.508,-0.08 0.576,-0.153 0.711,-0.489 0.515,0.154 1.404,-0.276 1.473,0.122 0.078,-0.332 0.451,0.009 0.691,-0.292 l 0.077,0.157 -0.088,-0.376 c 0.979,0.744 1.411,-0.658 2.389,-0.026 l -0.138,0.12 0.351,-0.194 c 0.082,0.159 -0.055,0.279 -0.043,0.498 0.58,-0.046 1.161,-0.087 1.736,-0.172 l -0.38,-0.228 c 0.355,-0.099 0.542,-0.507 0.99,-0.344 -0.598,0.682 0.573,-0.074 0.754,0.344 l -0.345,0.211 c 0.499,-0.12 0.498,-0.12 0.396,-0.493 0.63,-0.243 0.568,0.645 1.103,0.137 l -0.432,0.055 c -0.163,-0.198 0.093,-0.561 0.38,-0.599 0.078,0.047 0.309,0.181 0.099,0.265 0.489,-0.23 1.295,-0.167 1.494,-0.356 0.3,0.071 0.258,0.354 0.125,0.48 1.039,-0.521 0.514,-0.005 1.552,-0.535 l 0.024,0.218 0.325,-0.336 0.626,0.336 -0.248,-0.234 c 0.351,-0.116 0.544,-0.315 0.988,-0.282 l -0.103,0.351 c 0.975,-0.393 1.288,0.274 2.155,-0.377 0.079,0.043 -0.049,0.176 -0.115,0.243 0.782,-0.689 0.805,0.414 1.567,-0.385 -0.031,0.118 0.098,0.227 0.084,0.325 l 0.362,-0.293 0.069,0.43 0.185,-0.697 0.358,0.382 0.108,-0.245 c 0.633,0.697 1.096,-0.078 1.845,0.371 l -0.239,-0.507 c 1.199,-1.514 3.602,-0.263 5.257,-1.321 l 0.092,0.427 0.591,-0.724 c 0.496,0.204 -0.13,0.432 0.059,0.607 0.722,-0.48 0.142,-0.72 1.021,-1.128 0.557,0.132 -0.067,0.357 -0.243,0.576 0.798,-0.478 1.99,-1.106 2.675,-1.068 l -0.031,-0.159 c 0.512,-0.364 1.33,-0.415 1.938,-0.682 0.051,0.195 -0.092,0.282 -0.234,0.378 0.232,-0.057 0.584,-0.039 0.708,-0.302 l -0.11,0.441 c 0.505,-0.105 1.31,-0.767 1.568,-0.391 -0.116,-0.137 -0.203,-0.453 0.216,-0.586 0.46,0.541 1.026,-0.676 1.814,-0.585 -0.022,0.177 -0.497,0.388 -0.357,0.345 0.395,0.041 0.583,-0.36 0.8,-0.66 l 0.007,0.283 c 0.471,-0.306 0.943,-0.602 1.399,-0.939 0.473,0.523 1.392,-0.694 1.473,-0.201 0.551,-0.207 -0.566,-0.08 0.089,-0.439 0.289,0.18 0.565,-0.386 0.705,0.027 l -0.053,0.078 0.465,-0.233 -0.137,0.519 c 0.379,-0.26 0.513,-0.779 0.406,-1.087 0.483,0.054 0.959,-0.358 1.293,-0.078 l -0.104,0.156 c 0.515,-0.31 1.089,-0.232 1.607,-0.211 0.51,0.005 0.966,-0.042 1.238,-0.575 0.089,0.024 0.126,0.126 -0.008,0.185 l 0.68,-0.294 -0.023,0.367 0.894,-0.976 0.079,0.203 c 0.768,-0.269 1.861,-0.918 2.769,-1.426 l -0.094,0.159 c 0.864,-0.804 1.066,-0.324 1.693,-0.923 l -0.034,0.123 0.655,-0.362 -0.047,0.266 c 0.267,-0.676 1.686,-0.213 1.198,-0.4 0.18,-0.331 0.535,-0.807 0.488,-1.086 0.706,-0.406 0.31,0.151 0.845,0.073 0.532,-0.261 0.439,-0.638 1.239,-0.846 l 0.093,0.197 c 0.305,-0.221 0.426,-0.48 0.857,-0.775 l -0.081,0.17 c 0.498,-0.832 1.238,0.007 1.324,-1.157 0.396,-0.032 0.906,-0.497 1.104,-0.106 0.762,-0.791 1.402,-1.32 2.201,-2.018 0.525,0.511 0.163,-0.164 0.914,-0.173 l -0.246,-0.296 c 1.203,-0.865 3.153,-1.026 4.437,-2.073 l 0.258,0.29 0.032,-0.53 c 1.546,-0.881 3.471,-2.148 4.616,-2.983 0.245,-0.445 0.546,-1.201 1.189,-1.57 l -0.027,0.091 c 0.853,-0.985 1.79,-1.963 3.008,-2.678 0.037,0.179 0.217,0.179 0.163,0.358 -0.017,-0.536 0.618,-0.536 0.858,-0.718 l -0.457,0.003 c 0.07,-0.53 0.736,-0.622 1.076,-0.538 0.074,-0.235 0.133,-0.486 0.2,-0.728 l 0.189,0.044 -0.051,-0.228 0.58,0.158 c 0.048,-0.182 0.578,-0.837 0.447,-1.371 0.156,0.085 0.678,-0.209 0.404,0.163 l 1.798,-1.426 -0.387,0.108 c -0.293,-0.253 0.049,-0.891 0.431,-1 -0.133,0.538 0.343,0.424 0.685,0.496 0.089,-0.36 -0.433,-0.065 -0.455,-0.33 0.115,-0.45 0.634,-1.097 0.892,-1.127 l -0.059,0.276 c 0.277,-0.475 0.913,-0.168 1.262,-0.561 0.118,-0.553 0.563,-0.594 0.032,-0.996 0.385,-0.574 0.499,0.134 0.701,0.025 0.004,-0.449 0.818,-0.975 1.143,-0.826 -0.427,-0.941 1.546,-1.051 1.06,-1.715 0.24,-0.027 0.488,-0.046 0.722,-0.08 -0.146,-0.164 -0.425,-0.583 -0.186,-0.977 0.457,-0.151 0.667,0.184 0.917,0.241 l -0.398,-0.765 c 1.141,-0.607 2.155,-1.612 3.173,-2.651 1.031,-1.029 1.957,-2.184 3.107,-2.982 0.622,-1.05 1.345,-2.408 2.255,-3.472 l -0.012,0.188 1.014,-0.979 -0.904,0.582 c 0.109,-0.3 0.127,-0.585 0.313,-0.812 0.593,-0.506 1.279,-1.106 1.918,-1.8 0.638,-0.694 1.241,-1.473 1.59,-2.38 -0.078,-1.539 1.134,-0.197 1.236,-1.55 0.014,0.131 0.103,0.237 0.128,0.363 0.455,-1.217 0.708,-1.872 0.958,-3.209 0.696,0.627 0.439,-0.689 0.778,-0.335 l -0.261,-0.293 c 0.339,-0.113 0.754,-0.629 0.932,-0.404 l -0.104,-0.723 0.35,0.165 c 0.413,-0.612 0.972,-2.121 1.843,-2.047 0.508,-1.832 2.001,-4.283 3.257,-6.213 -0.122,-0.432 0.182,-1.026 0.401,-1.501 l 0.656,-0.287 c 0.112,-0.543 -0.152,-1.31 0.329,-1.619 l 0.08,0.105 c 0.155,-0.525 0.602,-0.878 0.446,-1.517 0.283,-0.518 0.758,-0.927 1.062,-0.579 -0.661,-0.382 0.656,-1.08 0.656,-1.08 0,0 0.249,-0.409 0.62,-1.173 0.375,-0.763 0.915,-1.86 1.573,-3.198 0.319,-0.674 0.687,-1.4 1.034,-2.194 0.331,-0.801 0.682,-1.653 1.048,-2.542 0.357,-0.894 0.729,-1.825 1.111,-2.783 0.374,-0.96 0.679,-1.976 1.02,-2.993 0.323,-1.023 0.65,-2.061 0.977,-3.1 0.322,-1.04 0.546,-2.112 0.803,-3.16 0.246,-1.051 0.476,-2.094 0.685,-3.115 0.222,-1.017 0.322,-2.04 0.454,-3.012 0.118,-0.976 0.212,-1.916 0.276,-2.808 0.032,-0.446 0.057,-0.88 0.074,-1.3 10e-4,-0.424 -0.011,-0.835 -0.027,-1.23 -0.069,-1.58 -0.263,-2.912 -0.614,-3.898 -0.326,-0.304 -0.449,-1.01 -0.936,-0.824 -0.049,-0.535 0.65,-0.671 0.296,-0.828 -0.371,0.66 -0.925,-0.362 -1.508,0.245 l -0.014,-0.448 c -0.249,-0.13 0.196,0.637 -0.266,0.456 l 0.673,0.231 c -0.168,0.337 -0.346,0.506 -0.604,0.592 0.213,0.374 1.115,0.744 0.564,1.469 l -0.003,-0.227 c -0.089,0.651 -0.517,0.318 -0.655,0.432 l 0.031,-0.142 -0.445,0.48 c 0.306,-0.369 -0.137,-1.143 -0.159,-0.782 -0.329,0.73 0.204,-0.169 0.186,0.419 -0.027,0.363 -0.379,0.196 -0.591,0.142 l -0.087,0.642 c -0.318,-0.081 0.092,-0.418 -0.286,-0.221 l 0.199,0.865 c -0.839,-0.006 0.235,0.95 -0.594,1.166 -0.089,-0.613 -0.282,-0.002 -0.528,-0.146 -0.057,0.473 -0.161,0.938 -0.249,1.405 -0.143,0.108 -0.166,-0.418 -0.173,-0.198 -0.283,0.215 0.099,0.471 0.061,0.611 -0.249,0.073 -0.228,1.04 -0.754,0.883 -0.572,0.858 0.588,0.549 0.083,1.358 -0.351,0.04 0.082,-0.714 -0.342,-0.402 l -0.087,0.937 c -0.138,-0.12 -0.484,-0.301 -0.337,-0.624 -0.954,2.366 -3.056,3.188 -3.226,5.483 -0.467,0.198 -0.194,-0.294 -0.385,-0.583 0.048,1.717 -1.408,1.98 -1.816,3.295 l 0.304,0.121 c -0.789,0.764 -1.218,1.735 -1.588,2.761 -0.365,1.027 -0.669,2.11 -1.278,3.043 l 0.308,-0.163 c 0.189,0.388 0.045,0.852 0.054,1.238 -0.174,-0.007 -0.561,-0.487 -0.661,0.149 0.155,-0.08 0.366,-0.286 0.487,-0.156 -0.739,0.722 -1.392,2.021 -2.083,3.464 -0.741,1.422 -1.49,3.001 -2.29,4.313 -0.729,1.936 -1.829,3.8 -2.853,5.678 -1.091,1.846 -2.248,3.636 -3.132,5.462 0.276,-0.553 0.847,0.081 0.46,0.397 -1.843,0.389 -0.967,2.004 -2.446,2.626 -0.834,2.274 -3.039,3.325 -3.405,5.73 l -0.341,-0.186 c -0.329,0.169 -0.159,0.396 -0.321,0.702 l -0.084,-0.069 c -0.56,0.596 -0.838,1.607 -1.271,1.869 l 0.333,0.281 c -0.263,0.408 -0.422,0.001 -0.521,0.544 l -0.167,-0.142 -0.017,0.708 c -0.576,-0.502 -0.87,1.054 -1.377,1.154 -0.266,0.582 -0.713,1.745 -1.457,2.367 -0.418,-0.11 -1.157,0.787 -1.78,1.229 -0.422,0.585 -0.936,1.295 -1.505,2.024 -0.586,0.714 -1.257,1.421 -1.921,2.055 l 0.389,0.308 -0.299,0.377 c -0.075,-0.078 -0.161,-0.069 -0.151,-0.158 -0.664,-0.106 -0.618,0.934 -1.133,0.983 0.49,0.126 0.277,-0.201 0.47,-0.394 0.438,-0.131 0.535,0.471 -0.003,0.699 l -0.072,-0.082 -0.055,0.446 c -0.309,-0.234 -0.662,-0.113 -0.968,-0.345 -0.991,1.224 -1.32,2.409 -2.592,3.445 -0.183,-0.424 -0.753,0.905 -1.043,0.14 -0.494,0.892 0.536,0.32 0.589,1.014 -0.203,0.185 -0.264,0.537 -0.491,0.373 -0.034,-0.22 -0.473,-0.171 -0.363,-0.377 l -0.422,0.504 c -0.084,0.002 -0.054,-0.175 -0.037,-0.261 -0.676,1.224 -2.075,1.226 -2.658,2.35 0.115,0.26 0.402,-0.261 0.52,-0.002 -0.526,1.216 -1.111,0.35 -1.683,1.392 l -0.074,-0.436 c -0.098,0.435 -0.004,0.786 -0.643,0.956 -0.363,-0.263 0.138,-0.611 0.215,-0.956 -0.303,0.271 -1.017,1.017 -0.521,1.115 -0.285,0.42 -0.676,0.234 -0.957,0.309 0.063,0.088 0.542,-0.065 0.453,0.272 -0.675,0.232 -1.462,0.89 -2.114,1.376 -0.063,-0.089 -0.211,-0.181 -0.19,-0.267 -0.15,0.855 -0.713,0.048 -1.323,0.71 z"
     id="path59" /><path
     style="fill:#aedf8f"
     d="m 325.926,390.827 0.34,-0.036 c -0.031,-0.092 -0.053,-0.203 0.059,-0.351 z"
     id="path61" /><path
     style="fill:#aedf8f"
     d="m 340.662,385.144 0.056,-0.159 z"
     id="path63" /><path
     style="fill:#aedf8f"
     d="m 343.76,382.77 c -0.197,0.214 0.071,0.203 0.24,0.239 -0.035,-0.081 -0.089,-0.173 -0.24,-0.239 z"
     id="path65" /><path
     style="fill:#aedf8f"
     d="m 317.645,394.49 c 0.046,-0.056 0.066,-0.121 0.033,-0.207 -0.056,0.097 -0.057,0.158 -0.033,0.207 z"
     id="path67" /><path
     style="fill:#aedf8f"
     d="m 293.05,398.151 0.103,0.059 z"
     id="path69" /><path
     style="fill:#aedf8f"
     d="m 294.475,398.734 c 0.068,-0.003 0.155,-0.024 0.277,-0.083 -0.125,-0.014 -0.21,0.027 -0.277,0.083 z"
     id="path71" /><path
     style="fill:#aedf8f"
     d="m 323.409,392.676 c 0.084,-0.042 0.161,-0.1 0.208,-0.212 -0.133,0.053 -0.182,0.134 -0.208,0.212 z"
     id="path73" /><polygon
     style="fill:#aedf8f"
     points="295.031,398.532 295.382,398.553 295.381,398.467 "
     id="polygon75" /><path
     style="fill:#aedf8f"
     d="m 292.611,398.13 c 0.136,0.004 0.319,-0.01 0.439,0.021 -0.18,-0.106 -0.316,-0.098 -0.439,-0.021 z"
     id="path77" /><path
     style="fill:#aedf8f"
     d="m 308.822,397.062 0.035,-0.016 c 0.234,-0.231 0.081,-0.125 -0.035,0.016 z"
     id="path79" /><polygon
     style="fill:#aedf8f"
     points="296.482,397.671 296.53,397.685 296.619,397.557 "
     id="polygon81" /><path
     style="fill:#aedf8f"
     d="m 291.108,398.06 0.169,-0.085 c -0.054,-0.015 -0.118,-0.029 -0.199,-0.044 z"
     id="path83" /><path
     style="fill:#aedf8f"
     d="m 303.555,397.271 c -0.073,0.178 -0.094,0.291 -0.085,0.374 0.114,-0.02 0.175,-0.11 0.085,-0.374 z"
     id="path85" /><path
     style="fill:#aedf8f"
     d="m 129.596,93.676 -0.087,-0.179 c 0.024,0.08 0.054,0.137 0.087,0.179 z"
     id="path87" /><path
     style="fill:#aedf8f"
     d="m 118.608,99.961 0.062,-0.163 c -0.07,0.068 -0.079,0.118 -0.062,0.163 z"
     id="path89" /><path
     style="fill:#aedf8f"
     d="m 136.148,89.96 0.011,0.049 c 0.102,-0.056 0.239,-0.133 0.463,-0.256 z"
     id="path91" /><path
     style="fill:#aedf8f"
     d="m 97.016,116.441 0.118,-0.125 z"
     id="path93" /><path
     style="fill:#aedf8f"
     d="m 109.658,106.389 c 0.014,0.095 -0.031,0.173 -0.076,0.246 0.087,-0.056 0.139,-0.123 0.076,-0.246 z"
     id="path95" /><path
     style="fill:#aedf8f"
     d="m 141.763,91.412 -0.332,-0.129 c 0.069,0.102 0.202,0.171 0.332,0.129 z"
     id="path97" /><path
     style="fill:#aedf8f"
     d="m 147.557,86.45 -0.051,-0.045 z"
     id="path99" /><path
     style="fill:#aedf8f"
     d="m 144.433,87.009 c -0.04,0.056 -0.077,0.138 -0.114,0.22 0.071,-0.056 0.169,-0.116 0.114,-0.22 z"
     id="path101" /><path
     style="fill:#aedf8f"
     d="m 144.271,87.343 0.048,-0.115 z"
     id="path103" /><path
     style="fill:#aedf8f"
     d="m 58.165,205.542 c -0.006,0.228 0.218,0.412 0.403,0.606 z"
     id="path105" /><path
     style="fill:#aedf8f"
     d="M 80.445,134.96 80.38,134.849 Z"
     id="path107" /><path
     style="fill:#aedf8f"
     d="m 60.668,205.708 -0.055,0.159 z"
     id="path109" /><path
     style="fill:#aedf8f"
     d="m 138.829,94.21 c -0.03,0.353 -0.587,0.312 -0.434,0.539 0.168,-0.161 0.557,-0.16 0.434,-0.539 z"
     id="path111" /><path
     style="fill:#aedf8f"
     d="m 86.128,145.274 -0.064,0.124 z"
     id="path113" /><polygon
     style="fill:#aedf8f"
     points="60.668,205.708 60.73,205.525 60.591,205.585 "
     id="polygon115" /><polygon
     style="fill:#aedf8f"
     points="66.884,157.222 66.888,157.214 66.864,157.144 "
     id="polygon117" /><path
     style="fill:#aedf8f"
     d="m 65.895,158.297 c 0.013,-0.102 0.026,-0.2 0.04,-0.309 -0.092,0.132 -0.083,0.227 -0.04,0.309 z"
     id="path119" /><path
     style="fill:#aedf8f"
     d="m 58.568,206.148 0.231,0.344 c -0.035,-0.127 -0.128,-0.237 -0.231,-0.344 z"
     id="path121" /><path
     style="fill:#aedf8f"
     d="m 60.896,172.489 0.006,-0.143 z"
     id="path123" /><path
     style="fill:#aedf8f"
     d="m 110.562,105.869 0.131,-0.027 c -0.031,-0.058 -0.067,-0.089 -0.131,0.027 z"
     id="path125" /><polygon
     style="fill:#aedf8f"
     points="107.93,118.004 107.927,118.006 107.931,118.01 "
     id="polygon127" /><path
     style="fill:#aedf8f"
     d="m 108.084,117.4 c -0.164,0.061 -0.202,0.366 -0.154,0.604 0.122,-0.109 0.197,-0.255 0.154,-0.604 z"
     id="path129" /><path
     style="fill:#aedf8f"
     d="m 107.004,118.641 0.068,-0.016 z"
     id="path131" /><polygon
     style="fill:#aedf8f"
     points="115.264,112.233 115.245,112.209 115.257,112.234 "
     id="polygon133" /><path
     style="fill:#aedf8f"
     d="m 113.708,113.594 -0.189,-0.005 z"
     id="path135" /><polygon
     style="fill:#aedf8f"
     points="103.813,122.741 103.806,122.73 103.801,122.741 "
     id="polygon137" /><path
     style="fill:#ab7273;fill-opacity:1"
     d="m 92.411,138.298 c 0.511,-0.814 1.099,-1.751 1.685,-2.684 0.6,-0.928 1.207,-1.851 1.917,-2.496 -0.161,-0.691 0.23,-1.157 0.539,-1.697 l 0.617,0.466 0.154,-0.542 c 0.31,0.002 -0.152,0.386 0.307,0.31 l -0.228,-0.463 c 0.231,0.155 1,-0.846 0.845,0.159 0.432,-0.49 0.873,-0.972 1.331,-1.44 0.316,-0.298 -0.293,-0.623 0.177,-0.841 0.231,0.084 -0.007,0.231 0.221,0.392 1.406,-0.647 0.07,-2.238 1.257,-2.978 l -0.006,0.155 c 0.009,-0.313 0.341,-0.603 0.267,-0.684 -0.677,-0.421 0.123,0.462 -0.487,0.443 -0.444,-0.485 0.106,-0.619 -0.265,-0.946 0.395,-0.059 0.264,-0.451 0.435,-0.675 0.628,-0.045 0.906,-0.73 1.52,-0.618 0.019,-0.309 -0.247,-0.949 0.091,-1.321 0.612,0.113 0.282,0.409 0.762,0.203 l -0.21,-0.327 c 0.325,-0.24 0.354,-0.119 0.468,0.02 0.317,-0.287 -0.114,-0.63 0.448,-0.82 l 0.037,0.47 c 0.189,-0.375 0.352,-0.439 0.778,-0.792 0.141,0.166 -0.03,0.307 -0.192,0.372 0.606,0.202 0.207,-0.526 0.368,-0.593 -0.147,-0.089 -0.479,0.119 -0.599,-0.28 0.248,-0.137 0.075,-0.774 0.525,-0.582 l 0.031,0.47 c 0.216,-0.605 -0.101,-0.554 0.48,-0.897 l 0.114,0.17 c -0.027,-0.64 0.671,-0.689 1.143,-1.083 l -0.016,0.154 c 0.094,-0.264 -0.035,-0.607 0.081,-0.679 -0.404,0.079 -0.409,-0.068 -0.679,-0.316 0.76,0.142 0.034,-1.019 0.855,-1.251 0.135,0.169 0.175,0.486 -0.136,0.454 0.239,0.65 0.576,1.069 0.441,1.605 0.106,-0.308 0.305,-0.593 0.431,-0.347 l -0.334,-0.501 c 0.12,-0.127 0.247,-0.192 0.345,-0.279 -0.197,-0.33 -0.679,-0.224 -0.542,-0.677 0.212,-0.448 0.591,0.294 0.465,0.047 0.311,-0.594 -0.234,-0.65 0.351,-0.905 -0.012,0.077 -0.032,0.232 -0.108,0.225 0.485,-0.108 0.726,-0.789 1.298,-0.333 0.058,0.163 0.193,0.333 0.029,0.396 l -0.068,-0.086 c -0.009,0.705 0.203,-0.369 0.521,0.215 -0.281,-0.268 0.232,-0.605 0.483,-0.733 L 110,115.879 c -0.183,-1.598 0.537,0.689 1.098,-0.036 0.234,-0.601 -0.243,0.049 -0.182,-0.415 0.345,-0.193 0.711,0.012 1.019,-0.497 0.234,0.031 0.632,0.003 0.972,0.361 0.132,-0.373 0.936,-0.501 0.775,-0.993 -0.715,0.061 -0.112,0.77 -1.05,0.722 l -0.164,-0.489 c 0.38,-0.286 0.688,-0.864 1.051,-0.942 -0.111,-0.029 -0.213,-0.105 -0.248,-0.211 0.401,-0.576 0.243,-1.073 0.842,-1.386 0.347,0.284 0.004,0.474 -0.187,0.685 0.553,0 0.352,-0.272 0.958,-0.576 0.272,0.275 -0.362,0.26 -0.177,0.603 l 0.489,-0.555 0.05,0.06 c -0.326,-0.564 0.469,-0.306 0.696,-0.735 0.827,-0.659 0.41,-1.435 0.547,-2.207 0.232,0.036 0.371,0.136 0.42,0.304 -0.382,-0.06 -0.206,0.087 -0.171,0.275 0.238,-0.277 1.005,0.003 1.011,0.331 0.326,-0.502 -0.371,-0.137 -0.225,-0.512 l 0.633,-0.455 c -0.277,-0.202 -0.535,-0.085 -0.376,-0.536 0.21,-0.284 0.384,-0.33 0.75,-0.585 0.049,0.167 0.42,0.308 0.143,0.496 0.247,-0.033 0.523,-0.226 0.429,-0.558 -0.571,0.061 0.46,-0.711 -0.142,-0.894 l 0.571,-0.061 c -0.092,0.063 0.032,0.243 -0.138,0.292 0.416,0.311 0.229,-0.356 0.336,-0.497 0.195,-0.028 0.576,-0.266 0.723,-0.135 0.038,-0.204 0.403,-0.347 0.614,-0.187 0.122,-0.218 -0.183,-0.271 -0.228,-0.44 l 0.644,-0.442 c 0.201,0.196 0.715,0.769 0.685,0.923 0.079,-0.383 -0.412,-0.718 -0.037,-0.962 0.116,0.578 0.722,-0.019 0.808,0.71 0.442,0.164 1.015,-0.279 1.252,-0.629 -0.054,-0.488 -0.492,0.064 -0.732,-0.302 0.811,-0.793 0.154,-1.802 0.946,-2.125 l -0.246,0.029 c 0.271,-0.506 0.256,-0.428 0.282,-0.905 0.206,0.524 1.323,0.816 1.95,0.237 -0.101,-0.262 -0.691,-0.145 -0.83,-0.573 l 0.414,-0.393 c 0.059,0.011 0.061,0.12 0.042,0.219 0.302,-0.449 1.179,0.026 0.93,-0.573 l 0.879,0.347 -0.362,-0.158 c -0.098,-0.258 0.318,-0.652 0.354,-0.806 0.301,-0.578 0.608,-0.511 1.064,-0.413 -0.21,-0.125 -0.708,-0.393 -0.383,-0.726 0.501,0.721 0.967,-0.289 1.218,0.093 0.146,-0.113 0.572,-0.074 0.382,-0.384 l 0.286,0.465 c -0.4,-0.65 0.176,-1 0.524,-1.403 0.49,0.917 0.422,-0.386 1.143,0.262 -0.318,-0.635 0.597,-0.744 0.335,-1.29 0.309,-0.252 0.643,0.311 0.852,0.44 l 0.005,-0.321 c 0.348,0.157 0.991,-0.217 1.487,-0.271 l -0.002,-0.741 0.284,0.15 c -0.033,-0.168 0.201,-0.433 -0.104,-0.508 l 0.206,-0.092 c -0.361,-0.574 0.157,-0.327 0.37,-0.815 0.146,0.033 0.213,0.184 0.182,0.313 0.189,-0.118 0.301,0.225 0.528,0.346 -0.228,-0.057 -0.002,-1.455 -0.671,-1.378 -0.187,-0.207 -0.005,-0.57 0.245,-0.589 l 0.446,0.434 -0.133,-0.681 c 0.238,-0.265 0.574,-0.02 0.843,-0.115 -0.216,0.189 0.116,1.327 0.718,0.91 -0.278,0.278 -0.249,0.666 -0.345,0.882 0.139,-0.063 0.234,-0.056 0.18,0.29 0.372,-0.473 -0.046,-0.417 0.383,-0.794 0.272,0.473 0.497,0.529 1.015,0.421 l -0.529,-0.136 -0.021,-0.161 c -0.151,0.025 -0.229,-0.022 -0.369,-0.181 0.094,-0.059 0.183,-0.92 0.442,-0.695 -0.943,-0.403 0.48,-1.088 -0.105,-1.32 -0.032,-0.168 0.285,-0.41 0.468,-0.202 -0.176,0.602 0.637,0.328 0.778,0.69 0.063,-0.227 -0.533,-0.138 -0.444,-0.44 0.218,-0.184 0.575,-0.013 0.8,0.047 l -0.044,0.149 0.499,-0.03 c -0.086,-0.267 -0.605,-0.16 -0.343,-0.496 0.151,0.039 0.413,-0.297 0.52,-0.108 0.041,0.418 0.426,0.762 0.188,1.024 0.217,-0.186 0.943,-0.726 0.362,-0.959 l 0.295,-0.167 c -0.302,-0.079 -1.027,-0.106 -0.494,-0.537 l 0.054,0.095 0.177,-0.604 0.325,0.126 c -0.079,-0.114 -0.084,-0.261 0.068,-0.348 0.126,0.114 0.302,0.081 0.407,0.273 0.417,-0.293 0.235,-0.505 0.206,-0.674 0.221,-0.184 0.373,-0.143 0.431,0.198 0.37,-0.145 0.91,-0.565 1.288,-0.462 0.313,-0.484 -0.152,-0.04 -0.089,-0.515 0.889,0.57 1.655,-0.602 2.318,-1.152 -0.634,-0.587 0.149,-0.201 -0.114,-0.928 -0.02,0.318 1.029,0.128 0.514,0.715 l 0.344,-0.31 c 0.504,0.228 -0.463,0.683 0.266,0.972 0.421,-0.287 0.231,-1.238 0.904,-1.289 0.135,0.607 0.294,-0.406 0.503,0.224 0.004,0.246 -0.172,0.278 -0.293,0.406 l 0.15,0.043 c 1.042,-0.435 -0.086,-0.761 0.204,-1.411 0.543,-0.418 0.7,0.118 0.878,0.334 0.15,0.043 0.395,-0.213 0.469,-0.438 -0.168,0.523 -0.848,0.083 -0.877,-0.334 0.604,0.418 0.892,-0.479 0.915,-0.802 -1.199,-0.101 -0.594,0.321 -1.772,0.146 0.003,0.247 0.334,0.751 -0.265,0.824 0.14,-0.434 -0.195,-0.274 -0.329,-0.307 0.271,0.241 -0.251,0.321 -0.319,0.531 -0.277,-0.161 -0.136,-0.855 -0.685,-0.684 l 0.336,0.75 c -0.25,0.009 -0.233,-0.557 -0.528,-0.15 -0.008,-0.493 -0.41,-0.523 0.06,-0.962 -1.005,-0.203 -0.789,0.919 -1.131,1.474 0.024,-0.074 -0.027,-0.17 -0.005,-0.247 0.005,0.246 -0.194,0.354 -0.314,0.486 -0.424,0.046 0.064,-0.474 -0.138,-0.612 l -0.518,0.348 -0.044,-0.041 c -0.081,0.181 -0.174,0.327 -0.33,0.185 0.019,-0.321 -0.062,-0.59 -0.067,-0.837 l -0.258,0.829 c -0.081,-0.266 -0.704,-0.108 -0.412,-0.521 l -0.764,0.61 -0.361,-0.423 c -0.146,0.206 -0.094,0.301 0.178,0.211 -0.35,0.069 -0.737,1.594 -1.166,0.584 -0.406,0.787 -0.739,0.775 -1.365,1.509 0.326,-0.811 -1.031,-0.102 -0.523,-0.706 -0.501,0.036 -0.258,0.587 -0.5,0.851 -0.401,-0.022 -0.57,-0.554 -0.381,-0.914 l -0.214,0.435 -0.052,-0.096 -0.136,0.455 c -0.48,-0.041 -0.366,-0.42 -0.739,-0.27 l 0.191,0.455 -0.379,-0.095 c 0.206,0.133 0.062,0.341 -0.158,0.528 l -0.054,-0.094 -0.243,0.265 c 0.129,-0.433 -0.324,0.084 -0.381,-0.294 -0.264,0.14 -0.266,0.149 -0.67,0.514 l 0.261,0.228 c -0.429,0.624 -0.295,-0.399 -0.785,-0.11 l 0.239,0.3 c -1.035,-0.088 -0.957,1.069 -1.687,1.056 0.24,-0.265 -0.079,-0.588 -0.024,-0.493 -0.358,0.403 -1.123,0.787 -1.315,1.469 -0.473,-0.353 -0.604,-0.465 -1.207,-0.366 -0.317,0.251 -0.334,0.332 -0.264,0.672 -0.443,0.042 -0.868,0.72 -1.111,0.398 0.105,0.316 -0.326,0.146 -0.351,0.491 l -0.131,-0.111 0.245,0.297 c -1.057,-0.315 -0.69,1.058 -1.691,0.839 l 0.041,-0.152 -0.158,0.289 c -0.134,-0.111 -0.094,-0.263 -0.207,-0.451 l -1.166,0.722 0.385,0.08 c -0.213,0.199 -0.157,0.615 -0.561,0.612 0.117,-0.786 -0.384,0.245 -0.711,-0.065 l 0.153,-0.293 c -0.307,0.261 -0.307,0.261 -0.058,0.557 -0.347,0.411 -0.714,-0.39 -0.867,0.225 l 0.29,-0.183 c 0.211,0.123 0.193,0.523 10e-4,0.646 -0.079,-0.017 -0.31,-0.062 -0.195,-0.202 -0.25,0.356 -0.866,0.552 -0.924,0.78 -0.251,0.031 -0.35,-0.232 -0.312,-0.384 -0.519,0.782 -0.367,0.169 -0.888,0.951 l -0.116,-0.185 -0.09,0.39 -0.619,-0.117 0.291,0.136 c -0.209,0.203 -0.264,0.434 -0.609,0.532 l -0.08,-0.339 c -0.55,0.626 -1.081,0.124 -1.435,0.948 -0.078,-0.016 -0.042,-0.17 -0.023,-0.248 -0.275,0.834 -0.781,-0.139 -0.994,0.786 -0.029,-0.113 -0.173,-0.174 -0.206,-0.265 l -0.14,0.363 -0.241,-0.363 0.17,0.673 -0.433,-0.238 0.024,0.244 c -0.783,-0.452 -0.799,0.354 -1.561,0.15 l 0.4,0.388 c -0.266,1.648 -2.602,1.183 -3.433,2.514 l -0.249,-0.357 -0.155,0.783 c -0.469,-0.065 -0.079,-0.414 -0.298,-0.525 -0.358,0.596 0.189,0.673 -0.321,1.243 -0.485,0.013 -0.096,-0.334 -0.051,-0.57 -0.418,0.612 -1.081,1.452 -1.626,1.579 l 0.089,0.135 c -0.244,0.448 -0.856,0.682 -1.234,1.044 -0.118,-0.162 -0.04,-0.271 0.033,-0.386 -0.16,0.101 -0.444,0.16 -0.437,0.419 l -0.09,-0.415 c -0.355,0.201 -0.725,0.961 -1.078,0.68 0.145,0.098 0.34,0.361 0.063,0.569 -0.577,-0.385 -0.539,0.821 -1.194,0.905 -0.053,-0.163 0.237,-0.452 0.144,-0.384 -0.327,0.046 -0.316,0.444 -0.368,0.758 l -0.118,-0.252 c -0.248,0.374 -0.502,0.739 -0.741,1.122 -0.581,-0.375 -0.849,0.884 -1.103,0.46 -0.362,0.289 0.484,-0.037 0.098,0.409 -0.301,-0.105 -0.305,0.452 -0.575,0.111 l 0.013,-0.08 -0.283,0.296 -0.089,-0.489 c -0.203,0.303 -0.113,0.792 0.09,1.047 -0.408,0.044 -0.631,0.503 -1.005,0.315 l 0.023,-0.159 c -0.589,0.743 -1.954,0.165 -2,1.212 -0.081,-0.007 -0.149,-0.09 -0.062,-0.166 l -0.444,0.377 -0.117,-0.331 -0.366,1.021 -0.139,-0.167 c -0.525,0.37 -1.174,1.132 -1.726,1.739 l 0.018,-0.158 c -0.416,0.855 -0.763,0.452 -1.065,1.082 l -0.015,-0.115 -0.413,0.421 -0.056,-0.243 c 0.019,0.641 -1.317,0.443 -0.847,0.536 -0.031,0.321 -0.156,0.798 -0.018,1.038 -0.439,0.467 -0.31,-0.088 -0.724,0.062 -0.347,0.312 -0.137,0.633 -0.724,0.939 l -0.147,-0.162 c -0.18,0.237 -0.193,0.481 -0.453,0.801 l 0.01,-0.161 c -0.133,0.803 -1.041,0.16 -0.716,1.201 -0.322,0.081 -0.591,0.562 -0.89,0.242 -0.37,0.801 -0.724,1.358 -1.163,2.079 -0.616,-0.386 -0.085,0.163 -0.722,0.261 l 0.307,0.231 c -0.742,0.905 -2.349,1.277 -3.1,2.35 l -0.314,-0.226 0.145,0.471 c -1.049,0.941 -2.321,2.244 -3.046,3.095 -0.075,0.413 -0.087,1.115 -0.546,1.493 l -0.004,-0.082 c -0.452,0.938 -0.98,1.878 -1.833,2.615 -0.086,-0.153 -0.244,-0.136 -0.25,-0.297 0.175,0.466 -0.381,0.525 -0.537,0.706 l 0.4,-0.045 c 0.098,0.469 -0.459,0.611 -0.782,0.569 l 0.035,0.648 -0.181,-0.022 0.111,0.193 -0.561,-0.088 c 0.01,0.162 -0.271,0.773 0,1.224 -0.163,-0.061 -0.542,0.238 -0.406,-0.107 l -1.185,1.385 0.312,-0.126 c 0.333,0.195 0.214,0.776 -0.094,0.902 -0.037,-0.477 -0.428,-0.339 -0.752,-0.372 0.025,0.319 0.403,0.021 0.5,0.247 0.03,0.4 -0.247,1.002 -0.474,1.045 l -0.024,-0.242 c -0.116,0.43 -0.774,0.215 -0.978,0.579 0.048,0.485 -0.341,0.554 0.249,0.859 -0.186,0.523 -0.486,-0.077 -0.637,0.032 0.121,0.386 -0.464,0.9 -0.798,0.797 0.647,0.776 -1.097,1.022 -0.476,1.555 l -0.631,0.122 c 0.176,0.13 0.543,0.467 0.431,0.821 -0.376,0.161 -0.655,-0.109 -0.898,-0.14 l 0.567,0.624 c -1.756,1.205 -2.619,3.689 -4.253,5.229 -0.308,0.928 -0.597,2.139 -1.195,3.086 l -0.036,-0.159 -0.698,0.891 0.695,-0.549 c -0.026,0.26 0.028,0.5 -0.089,0.704 -0.837,0.933 -1.978,2.195 -2.236,3.741 0.443,1.28 -1.016,0.241 -0.786,1.378 -0.045,-0.108 -0.153,-0.19 -0.207,-0.294 -0.134,1.047 -0.213,1.611 -0.126,2.742 -0.8,-0.472 -0.25,0.603 -0.659,0.329 l 0.315,0.226 c -0.294,0.117 -0.567,0.574 -0.786,0.4 l 0.266,0.592 -0.37,-0.112 c -0.248,0.537 -0.426,1.826 -1.268,1.828 -0.041,1.557 -0.94,3.676 -1.693,5.365 0.213,0.345 0.061,0.859 -0.046,1.264 l -0.571,0.286 c 0.011,0.454 0.433,1.06 0.038,1.352 l -0.1,-0.079 c -0.034,0.442 -0.386,0.768 -0.096,1.277 -0.158,0.447 -0.524,0.821 -0.893,0.564 0.719,0.255 -0.394,0.939 -0.394,0.939 0,0 -0.034,0.09 -0.098,0.26 -0.068,0.169 -0.154,0.422 -0.254,0.749 -0.2,0.656 -0.487,1.598 -0.837,2.748 -0.166,0.578 -0.347,1.209 -0.539,1.881 -0.154,0.683 -0.318,1.409 -0.488,2.167 -0.16,0.761 -0.327,1.554 -0.498,2.369 -0.174,0.815 -0.26,1.671 -0.386,2.53 -0.115,0.861 -0.222,1.736 -0.319,2.611 -0.108,0.874 -0.11,1.765 -0.151,2.639 -0.06,1.75 -0.08,3.461 0.112,5.055 0.078,0.795 0.173,1.558 0.288,2.277 0.057,0.359 0.12,0.707 0.187,1.043 0.081,0.336 0.174,0.66 0.268,0.971 0.379,1.241 0.831,2.26 1.369,2.975 0.379,0.183 0.639,0.715 1.08,0.484 0.153,0.41 -0.505,0.64 -0.127,0.7 0.234,-0.582 0.978,0.119 1.429,-0.457 l 0.101,0.347 c 0.269,0.057 -0.317,-0.462 0.171,-0.401 l -0.705,-0.063 c 0.098,-0.292 0.24,-0.455 0.476,-0.566 -0.282,-0.254 -1.24,-0.39 -0.842,-1.051 l 0.048,0.177 c -0.041,-0.524 0.444,-0.335 0.557,-0.448 l -0.003,0.116 0.341,-0.449 c -0.227,0.339 0.359,0.868 0.31,0.583 0.179,-0.623 -0.167,0.166 -0.265,-0.295 -0.045,-0.287 0.333,-0.216 0.551,-0.21 l -0.041,-0.514 c 0.327,0.011 -0.009,0.341 0.324,0.125 l -0.365,-0.641 c 0.824,-0.13 -0.418,-0.702 0.354,-1.003 0.208,0.463 0.277,-0.043 0.547,0.031 -0.036,-0.377 -0.027,-0.754 -0.034,-1.131 0.118,-0.106 0.246,0.299 0.209,0.128 0.235,-0.21 -0.19,-0.351 -0.181,-0.466 0.23,-0.095 0.015,-0.844 0.563,-0.8 0.39,-0.751 -0.686,-0.34 -0.352,-1.044 0.336,-0.082 0.062,0.568 0.416,0.264 l -0.101,-0.742 c 0.159,0.074 0.535,0.165 0.455,0.437 0.465,-1.979 2.354,-2.895 2.052,-4.696 0.416,-0.213 0.249,0.204 0.494,0.404 -0.399,-1.329 0.978,-1.709 1.103,-2.777 l -0.322,-0.059 c 0.61,-0.687 0.826,-1.489 0.972,-2.33 0.138,-0.84 0.219,-1.717 0.608,-2.511 l -0.264,0.159 c -0.266,-0.285 -0.226,-0.664 -0.316,-0.967 0.17,-0.011 0.648,0.327 0.609,-0.182 -0.134,0.078 -0.294,0.26 -0.439,0.17 0.565,-0.64 0.914,-1.724 1.286,-2.922 0.404,-1.192 0.782,-2.508 1.266,-3.616 0.292,-1.595 0.908,-3.18 1.473,-4.759 0.638,-1.561 1.305,-3.097 1.734,-4.633 -0.137,0.466 -0.831,-0.012 -0.524,-0.291 1.652,-0.44 0.439,-1.702 1.688,-2.308 0.257,-1.912 2.069,-2.92 1.818,-4.932 l 0.364,0.132 c 0.266,-0.16 0.052,-0.337 0.129,-0.601 l 0.095,0.052 c 0.381,-0.526 0.395,-1.382 0.724,-1.631 l -0.38,-0.213 c 0.14,-0.358 0.391,-0.028 0.345,-0.488 l 0.19,0.107 -0.163,-0.592 c 0.661,0.383 0.541,-0.935 0.986,-1.051 0.096,-0.505 0.231,-1.498 0.745,-2.076 0.413,0.064 0.857,-0.74 1.314,-1.154 0.234,-0.521 0.522,-1.154 0.855,-1.806 0.353,-0.641 0.763,-1.296 1.199,-1.88 l -0.437,-0.235 0.171,-0.342 c 0.089,0.061 0.165,0.048 0.18,0.124 0.632,0.043 0.311,-0.839 0.765,-0.917 -0.48,-0.073 -0.198,0.19 -0.321,0.369 -0.363,0.142 -0.613,-0.363 -0.185,-0.595 l 0.088,0.064 -0.07,-0.384 c 0.344,0.178 0.632,0.05 0.972,0.226 0.576,-1.108 0.522,-2.166 1.383,-3.149 0.283,0.351 0.425,-0.835 0.899,-0.2 0.196,-0.804 -0.571,-0.233 -0.812,-0.826 0.131,-0.174 0.088,-0.482 0.338,-0.358 0.092,0.187 0.473,0.111 0.431,0.296 l 0.24,-0.465 c 0.075,-0.008 0.097,0.146 0.106,0.222 0.257,-1.111 1.493,-1.237 1.689,-2.259 -0.177,-0.215 -0.282,0.26 -0.461,0.046 0.117,-1.098 0.887,-0.398 1.095,-1.349 l 0.192,0.371 c -0.038,-0.385 -0.224,-0.681 0.296,-0.882 0.4,0.198 0.052,0.54 0.084,0.846 0.196,-0.257 0.605,-0.973 0.136,-1.014 0.125,-0.394 0.524,-0.268 0.748,-0.361 -0.082,-0.071 -0.457,0.108 -0.479,-0.195 0.523,-0.267 1.018,-0.916 1.446,-1.403 0.082,0.072 0.239,0.138 0.246,0.215 -0.135,-0.772 0.601,-0.121 0.941,-0.757 z"
     id="path139" /><path
     style="fill:#aedf8f"
     d="m 115.515,112.117 -0.251,0.116 c 0.062,0.075 0.123,0.169 0.095,0.33 z"
     id="path141" /><path
     style="fill:#aedf8f"
     d="m 105.796,120.249 0.012,0.152 z"
     id="path143" /><path
     style="fill:#aedf8f"
     d="m 104.098,122.915 c 0.089,-0.222 -0.13,-0.169 -0.285,-0.174 0.058,0.067 0.136,0.139 0.285,0.174 z"
     id="path145" /><path
     style="fill:#aedf8f"
     d="m 120.45,106.733 c -0.012,0.062 10e-4,0.126 0.063,0.194 0.002,-0.102 -0.024,-0.157 -0.063,-0.194 z"
     id="path147" /><path
     style="fill:#aedf8f"
     d="M 136.969,95.421 136.866,95.41 Z"
     id="path149" /><path
     style="fill:#aedf8f"
     d="m 135.663,95.462 c -0.047,0.028 -0.097,0.08 -0.155,0.177 0.097,-0.035 0.136,-0.104 0.155,-0.177 z"
     id="path151" /><path
     style="fill:#aedf8f"
     d="m 116.736,109.846 c -0.049,0.058 -0.085,0.129 -0.076,0.24 0.083,-0.08 0.088,-0.163 0.076,-0.24 z"
     id="path153" /><polygon
     style="fill:#aedf8f"
     points="135.37,95.848 135.111,95.964 135.154,96.037 "
     id="polygon155" /><path
     style="fill:#aedf8f"
     d="m 137.292,95.271 c -0.099,0.048 -0.222,0.13 -0.323,0.149 0.182,0.023 0.275,-0.035 0.323,-0.149 z"
     id="path157" /><path
     style="fill:#aedf8f"
     d="m 126.013,101.892 -0.018,0.026 c -0.068,0.279 -0.003,0.135 0.018,-0.026 z"
     id="path159" /><polygon
     style="fill:#aedf8f"
     points="134.768,97.148 134.727,97.155 134.726,97.3 "
     id="polygon161" /><polygon
     style="fill:#aedf8f"
     points="138.395,94.749 138.321,94.892 138.481,94.848 "
     id="polygon163" /><path
     style="fill:#aedf8f"
     d="m 129.826,100.011 c -0.028,-0.178 -0.067,-0.286 -0.112,-0.355 -0.075,0.056 -0.081,0.152 0.112,0.355 z"
     id="path165" /><path
     style="fill:#aa1d2c;fill-opacity:1"
     d="m 323.273,64.885 c 17.781,7.441 32.387,21.069 44.058,36.407 35.645,46.84 45.414,109.324 39.211,167.854 -2.556,24.096 -7.904,48.651 -21.716,68.568 -21.41,30.878 -60.473,45.837 -98.04,46.664 -11.108,0.246 -22.197,-0.379 -33.152,-1.83 -23.413,-3.085 -46.199,-9.942 -67.2,-20.16 -47.817,-23.237 -86.371,-63.887 -101.995,-117.12 -7.858,-26.763 -9.262,-56.691 3.167,-81.66 9.639,-19.365 26.63,-34.01 44.297,-46.496 2.461,-1.741 4.941,-3.449 7.445,-5.115 29.037,-19.438 60.924,-34.612 94.328,-44.883 10.559,-3.241 21.54,-5.972 32.585,-7.579 19.433,-2.82 39.071,-2.149 57.012,5.35 z"
     id="path169" /><path
     style="fill:#c04e52;fill-opacity:1"
     d="m 266.261,59.534 c 3.005,9.299 4.063,19.393 2.758,29.728 -4.765,37.75 -39.221,64.482 -76.971,59.716 -23.467,-2.962 -42.681,-17.407 -52.7,-36.981 29.037,-19.438 60.924,-34.612 94.328,-44.883 10.559,-3.241 21.541,-5.973 32.585,-7.58 z"
     id="path171" /><path
     style="fill:#c04e52;fill-opacity:1"
     d="m 232.327,311.74 c 23.721,2.995 40.745,22.868 38.028,44.391 -1.393,11.038 -7.706,20.361 -16.721,26.417 -23.413,-3.085 -46.199,-9.942 -67.2,-20.16 -1.982,-5.363 -2.73,-11.171 -1.982,-17.101 2.717,-21.523 24.154,-36.541 47.875,-33.547 z"
     id="path173" /><circle
     transform="rotate(-88.962852)"
     style="fill:#c04e52;stroke-width:0.999964;fill-opacity:1"
     cx="-133.83018"
     cy="292.85989"
     id="ellipse175"
     r="16.165415" /><circle
     transform="rotate(-51.349139)"
     style="fill:#c04e52;stroke-width:1.00004;fill-opacity:1"
     cx="28.453602"
     cy="431.03696"
     id="ellipse177"
     r="38.97868" /><circle
     transform="rotate(-74.835332)"
     style="fill:#c04e52;stroke-width:1.00002;fill-opacity:1"
     cx="-253.31287"
     cy="387.73987"
     id="ellipse179"
     r="14.857339" /><path
     d="m 428.195,161.75 c -3.643,0 -6.596,2.953 -6.596,6.596 0,3.643 2.953,6.596 6.596,6.596 3.643,0 6.597,-2.953 6.597,-6.596 0,-3.643 -2.953,-6.596 -6.597,-6.596 z"
     id="path183" /><path
     d="m 226.335,133.414 c -2.366,2.4 -4.98,4.559 -7.775,6.442 -1.375,0.926 -2.797,1.784 -4.257,2.569 -0.73,0.392 -1.47,0.766 -2.219,1.121 -0.64,0.303 -1.293,0.621 -1.973,0.838 0.5,0.433 1.021,0.839 1.493,1.305 0.504,0.498 0.998,1.005 1.487,1.518 0.961,1.008 1.891,2.044 2.791,3.106 0.739,0.872 1.456,1.762 2.16,2.663 0.065,0.063 0.131,0.128 0.196,0.191 1.042,1.014 2.117,1.987 3.24,2.911 1.016,0.836 2.111,1.553 3.179,2.319 1.07,0.767 2.024,1.624 2.867,2.637 1.672,2.009 3.093,4.232 4.651,6.329 3.251,4.376 6.737,8.563 10.379,12.619 0.133,0.148 0.173,0.313 0.154,0.468 3.235,0.872 6.454,1.804 9.65,2.812 4.243,1.339 8.446,2.801 12.606,4.377 -2.201,-4.565 -4.402,-9.13 -6.604,-13.695 -2.044,-4.238 -3.965,-8.571 -6.275,-12.672 -2.089,-3.708 -4.649,-7.118 -7.461,-10.306 -1.405,-1.592 -2.871,-3.131 -4.375,-4.63 -1.56,-1.555 -3.21,-3.034 -4.567,-4.778 -1.369,-1.758 -2.381,-3.749 -3.577,-5.62 -1.108,-1.735 -2.351,-3.367 -3.56,-5.028 -0.587,0.946 -1.485,1.768 -2.21,2.504 z"
     id="path185" /><path
     d="m 117.976,114.995 c 0.591,1.322 1.251,2.616 1.94,3.89 0.539,0.996 1.095,1.99 1.588,3.011 0.063,0.059 0.107,0.137 0.114,0.232 0,0.008 0.003,0.015 0.003,0.023 0.096,0.204 0.194,0.406 0.283,0.613 0.034,0.079 0.028,0.163 0.001,0.239 0.572,0.908 1.875,1.264 2.894,1.403 1.582,0.216 3.206,0.259 4.801,0.222 5.712,-0.13 11.36,-1.668 16.49,-4.147 2.443,-1.181 4.916,-2.527 6.804,-4.513 0.941,-0.99 1.678,-2.14 2.275,-3.364 0.303,-0.622 0.567,-1.262 0.805,-1.912 0.129,-0.352 0.25,-0.706 0.366,-1.062 0.048,-0.148 0.116,-0.304 0.145,-0.456 0.002,-0.01 0.003,-0.02 0.005,-0.031 -0.115,-0.14 -0.156,-0.334 -0.07,-0.506 -0.136,-0.494 -0.27,-0.99 -0.418,-1.481 -0.842,-2.8 -1.869,-5.545 -3.084,-8.204 -1.039,-2.274 -2.215,-4.523 -3.757,-6.501 -1.529,-1.961 -3.449,-3.646 -5.765,-4.603 -2.478,-1.025 -5.23,-1.262 -7.877,-0.938 -2.812,0.344 -5.529,1.33 -8.053,2.586 -2.195,1.093 -4.306,2.396 -6.156,4.012 -1.778,1.554 -3.318,3.389 -4.343,5.528 -1.169,2.438 -1.5,5.172 -1.267,7.846 0.242,2.807 1.129,5.551 2.276,8.113 z"
     id="path187"
     style="fill:#fab80a;fill-opacity:1" /><path
     d="m 146.546,121.693 c -2.934,1.401 -6.012,2.512 -9.182,3.241 -3.155,0.724 -6.406,1.084 -9.643,0.983 -0.82,-0.026 -1.639,-0.085 -2.454,-0.174 -0.77,-0.084 -1.575,-0.172 -2.29,-0.488 -0.175,-0.077 -0.342,-0.17 -0.505,-0.271 0.158,0.579 0.302,1.161 0.447,1.737 0.325,1.291 0.66,2.579 1.007,3.865 0.34,1.26 0.684,2.519 1.036,3.775 0.169,0.601 0.32,1.212 0.518,1.803 0.148,0.442 0.373,0.856 0.818,1.053 0.834,0.37 1.934,0.185 2.813,0.15 1.138,-0.046 2.276,-0.111 3.412,-0.199 2.263,-0.177 4.518,-0.456 6.746,-0.894 4.077,-0.802 8.067,-2.14 11.644,-4.28 1.73,-1.035 3.392,-2.248 4.81,-3.687 0.689,-0.699 1.282,-1.486 1.576,-2.435 0.306,-0.989 0.333,-2.026 0.311,-3.053 -0.052,-2.358 -0.188,-4.716 -0.285,-7.072 -0.049,-1.186 -0.098,-2.372 -0.147,-3.559 -0.012,-0.302 -0.022,-0.609 -0.039,-0.916 -0.092,0.229 -0.184,0.456 -0.276,0.679 -0.672,1.635 -1.52,3.185 -2.685,4.523 -2.038,2.341 -4.867,3.898 -7.632,5.219 z"
     id="path189"
     style="fill:#fab80a;fill-opacity:1" /><path
     d="m 157.882,127.682 c -0.58,0.929 -1.371,1.705 -2.188,2.424 -1.589,1.4 -3.345,2.609 -5.205,3.619 -3.987,2.167 -8.394,3.446 -12.862,4.145 -0.922,0.144 -1.849,0.26 -2.776,0.363 1.962,1.76 3.901,3.49 6.16,4.875 2.063,1.264 4.397,2.432 6.774,2.95 1.311,0.286 2.537,0.102 3.686,-0.592 1.029,-0.621 1.913,-1.489 2.679,-2.407 1.528,-1.83 2.569,-4.027 3.486,-6.21 1,-2.379 2.315,-5.065 1.715,-7.705 -0.176,-0.774 0.995,-1.101 1.191,-0.328 0.419,1.649 0.133,3.357 -0.384,4.95 -0.481,1.483 -1.107,2.93 -1.731,4.357 -0.377,0.863 -0.781,1.723 -1.227,2.559 0.265,-0.113 0.531,-0.226 0.789,-0.358 0.566,-0.289 1.11,-0.619 1.631,-0.983 1.052,-0.736 1.994,-1.63 2.819,-2.612 1.571,-1.871 2.653,-4.123 3.313,-6.467 0.347,-1.234 0.587,-2.5 0.715,-3.776 0.12,-1.199 0.214,-2.459 -0.012,-3.651 -0.23,-1.212 -0.813,-2.143 -1.705,-2.981 -0.918,-0.863 -1.862,-1.672 -2.722,-2.597 -0.86,-0.924 -1.654,-1.895 -2.372,-2.935 -0.358,-0.519 -0.693,-1.048 -1.007,-1.595 -0.061,-0.107 -0.111,-0.221 -0.167,-0.331 0.057,1.387 0.114,2.773 0.171,4.16 0.058,1.402 0.115,2.804 0.173,4.205 0.052,1.275 0.155,2.565 0.026,3.838 -0.11,1.089 -0.385,2.147 -0.97,3.083 z"
     id="path191" /><path
     d="m 157.821,108.459 c 0.403,0.859 0.536,1.768 0.599,2.693 0.351,0.502 0.731,0.981 1.106,1.467 0.46,0.598 0.926,1.192 1.421,1.763 0.964,1.112 1.962,2.193 3.078,3.156 0.99,0.854 2.079,1.678 2.817,2.774 0.715,1.061 0.971,2.359 1.024,3.618 0.109,2.617 -0.377,5.37 -1.232,7.838 -0.845,2.438 -2.141,4.71 -3.921,6.587 -0.841,0.886 -1.788,1.679 -2.811,2.347 -0.961,0.628 -2.105,1.303 -3.247,1.504 -0.115,0.02 -0.221,-10e-4 -0.319,-0.039 -0.58,0.916 -1.227,1.786 -1.978,2.574 -0.919,0.964 -1.995,1.826 -3.234,2.335 -1.357,0.557 -2.807,0.48 -4.2,0.098 -2.55,-0.699 -5.031,-1.94 -7.202,-3.439 -2.128,-1.469 -4.167,-3.211 -5.577,-5.401 -0.005,-0.007 -0.005,-0.014 -0.009,-0.021 -1.233,0.124 -2.47,0.217 -3.708,0.283 -0.403,0.022 -0.813,0.05 -1.224,0.075 -0.249,0.474 -0.472,0.959 -0.668,1.459 -1.004,2.559 -1.369,5.368 -1.859,8.058 -0.536,2.943 -1.003,5.902 -1.225,8.887 -0.393,5.269 -0.023,10.711 2.045,15.631 0.984,2.341 2.371,4.511 4.103,6.369 1.813,1.946 3.941,3.575 6.141,5.057 4.304,2.9 9.019,5.175 13.964,6.75 2.487,0.792 5.03,1.41 7.603,1.845 1.276,0.216 2.559,0.384 3.847,0.505 1.306,0.122 2.615,0.13 3.904,0.375 0.171,0.032 0.282,0.162 0.333,0.315 0.397,-0.05 0.762,-0.211 1.097,-0.425 0.742,-0.475 1.324,-1.192 1.893,-1.853 1.21,-1.409 2.331,-2.892 3.36,-4.439 3.648,-5.484 6.122,-11.73 7.222,-18.224 0.211,-1.244 0.688,-3.113 -0.358,-4.114 -0.496,-0.475 -1.234,-0.628 -1.888,-0.736 -0.877,-0.144 -1.77,-0.221 -2.655,-0.306 -3.88,-0.371 -7.777,-0.333 -11.663,-0.59 -0.345,-0.023 -0.468,-0.577 -0.087,-0.639 4.599,-0.752 9.374,-0.398 13.975,0.182 1.665,0.21 3.366,0.656 4,2.399 0.276,0.76 0.264,1.615 0.177,2.409 -0.005,0.045 -0.013,0.09 -0.019,0.135 0.686,-0.014 1.36,0.002 2.045,0.076 5.826,0.624 11.507,2.109 17.037,4.011 1.389,0.478 2.776,0.966 4.198,1.338 1.405,0.368 2.833,0.638 4.267,0.866 2.881,0.459 5.779,0.812 8.66,1.274 4.183,0.671 8.347,1.457 12.488,2.352 -0.097,-0.167 -0.2,-0.33 -0.301,-0.494 -0.151,-0.032 -0.294,-0.12 -0.399,-0.288 -1.567,-2.514 -2.653,-5.3 -3.954,-7.953 -2.172,-4.43 -4.704,-8.694 -7.544,-12.728 -1.413,-2.008 -2.9,-3.965 -4.454,-5.867 -0.794,-0.971 -1.602,-1.931 -2.423,-2.878 -0.808,-0.932 -1.582,-1.891 -2.391,-2.82 -0.025,-0.029 -0.041,-0.058 -0.051,-0.088 -0.876,0.2 -1.775,0.159 -2.576,-0.279 -0.729,-0.399 -1.307,-1.05 -1.873,-1.644 -1.18,-1.238 -2.276,-2.545 -3.302,-3.914 -2.078,-2.773 -3.795,-5.773 -5.173,-8.953 -0.122,-0.28 0.267,-0.529 0.421,-0.246 1.739,3.194 3.801,6.236 6.126,9.033 1.027,1.235 2.104,2.436 3.229,3.582 0.497,0.507 1.03,1.082 1.758,1.223 0.778,0.151 1.61,-0.181 2.309,-0.489 2.863,-1.264 5.599,-2.85 8.159,-4.647 2.556,-1.794 4.935,-3.839 7.102,-6.087 0.966,-1.002 2.386,-2.193 1.96,-3.744 -0.216,-0.784 -0.686,-1.491 -1.08,-2.194 -0.229,-0.408 -0.46,-0.814 -0.688,-1.223 -0.016,-0.018 -0.036,-0.031 -0.05,-0.05 l -1.308,-1.743 c -3.299,-4.4 -6.473,-8.968 -10.598,-12.65 -3.874,-3.458 -8.337,-6.18 -12.861,-8.695 -2.415,-1.342 -4.873,-2.606 -7.555,-3.326 -2.633,-0.707 -5.362,-0.953 -8.082,-0.95 -5.049,0.006 -10.054,0.87 -14.845,2.45 -2.374,0.783 -4.684,1.753 -6.908,2.895 -2.252,1.157 -4.363,2.539 -6.504,3.885 -0.02,0.013 -0.04,0.014 -0.061,0.023 0.149,0.495 0.299,0.991 0.437,1.49 0.068,0.049 0.124,0.112 0.16,0.19 z"
     id="path193"
     style="fill:#fab80a;fill-opacity:1" /><path
     d="m 236.615,201.228 c -4.435,-0.177 -8.865,-0.499 -13.278,-0.972 -3.044,-0.326 -6.08,-0.722 -9.106,-1.186 -2.996,-0.459 -5.981,-1.122 -9.004,-1.371 -3.099,-0.255 -6.2,0.059 -9.296,0.188 -3.046,0.126 -6.091,-0.004 -9.121,-0.346 -2.992,-0.338 -5.958,-0.852 -8.905,-1.465 -2.742,-0.571 -5.491,-1.196 -8.173,-2.01 -0.536,0.439 -1.148,0.796 -1.831,0.931 -0.676,0.134 -1.279,0.047 -1.824,-0.28 -0.021,10e-4 -0.042,0.005 -0.063,0.005 -0.325,0.003 -0.654,-0.03 -0.978,-0.049 -3.018,-0.178 -6.02,-0.612 -8.97,-1.276 0.319,0.563 0.64,1.126 0.98,1.676 0.886,1.429 1.859,2.792 2.948,4.075 0.551,0.649 1.134,1.269 1.742,1.865 0.585,0.573 1.196,1.163 1.546,1.917 0.381,0.817 0.472,1.706 0.55,2.593 0.086,0.976 0.17,1.952 0.255,2.928 0.083,0.949 0.165,1.898 0.248,2.847 0.073,0.846 0.108,1.707 0.259,2.544 0.124,0.688 0.33,1.392 0.838,1.899 0.548,0.546 1.325,0.806 2.041,1.048 1.752,0.591 3.56,0.997 5.384,1.289 3.61,0.579 7.292,0.77 10.939,0.978 7.419,0.423 14.863,0.519 22.284,0.096 7.382,-0.421 14.739,-1.361 21.949,-3.017 1.815,-0.417 3.62,-0.879 5.411,-1.388 0.849,-0.241 1.703,-0.478 2.539,-0.759 0.343,-0.115 0.72,-0.257 0.965,-0.538 0.24,-0.275 0.315,-0.653 0.376,-1.002 0.309,-1.784 0.329,-3.659 0.222,-5.462 -0.111,-1.867 -0.423,-3.711 -0.911,-5.516 -0.024,-0.089 -0.023,-0.167 -0.016,-0.242 z"
     id="path195"
     style="fill:#fab80a;fill-opacity:1" /><path
     d="m 123.842,419.84 c -0.036,-0.18 -0.07,-0.36 -0.101,-0.541 -0.031,-0.181 -0.059,-0.362 -0.084,-0.544 -0.031,-0.221 -0.078,-0.452 -0.077,-0.676 0,-0.05 0.012,-0.097 0.027,-0.143 -0.078,-0.063 -0.156,-0.129 -0.234,-0.189 -1.77,-1.357 -3.706,-2.504 -5.741,-3.416 -1.898,-0.851 -4.068,-1.282 -5.724,-2.597 -0.075,-0.059 -0.146,-0.122 -0.217,-0.186 0.025,0.142 -0.04,0.314 -0.192,0.371 -0.669,0.251 -1.369,0.465 -2.011,0.78 -0.632,0.309 -1.193,0.711 -1.661,1.238 -0.471,0.531 -0.842,1.145 -1.251,1.723 -0.807,1.142 -1.75,2.177 -2.794,3.107 -2.094,1.863 -4.509,3.303 -6.924,4.707 -1.242,0.721 -2.555,1.397 -3.648,2.338 -1,0.861 -1.746,1.946 -2.267,3.155 -1.038,2.408 -1.347,5.213 -1.474,7.811 -0.066,1.342 -0.007,2.768 0.663,3.969 0.678,1.215 1.877,2.014 3.093,2.623 2.538,1.27 5.501,1.706 8.306,1.315 2.844,-0.396 5.606,-1.563 7.295,-3.969 0.866,-1.233 1.598,-2.561 2.419,-3.825 0.813,-1.251 1.66,-2.479 2.547,-3.678 1.805,-2.439 3.765,-4.766 5.922,-6.903 1.044,-1.035 2.218,-1.966 3.171,-3.089 0.64,-0.754 1.136,-1.694 1.173,-2.67 -0.013,-0.018 -0.032,-0.033 -0.041,-0.053 -0.093,-0.211 -0.131,-0.435 -0.175,-0.658 z"
     id="path197" /><path
     d="m 248.478,439.265 c -0.115,-1.108 -0.429,-2.2 -0.84,-3.233 -0.853,-2.146 -2.213,-4.081 -3.597,-5.914 -1.387,-1.837 -2.87,-3.603 -4.139,-5.527 -0.629,-0.954 -1.19,-1.944 -1.646,-2.993 -0.224,-0.516 -0.428,-1.038 -0.589,-1.577 -0.138,-0.462 -0.2,-0.932 -0.261,-1.407 -0.19,0.05 -0.378,0.099 -0.558,0.15 -4.078,1.15 -8.285,2.048 -12.506,2.46 -1.39,0.136 -2.836,0.187 -4.259,0.067 -0.416,1.262 -0.593,2.675 -0.487,3.999 0.106,1.31 0.554,2.578 1.253,3.688 0.687,1.093 1.593,2.028 2.303,3.106 0.709,1.077 1.188,2.292 1.579,3.516 0.729,2.281 1.16,4.694 2.418,6.768 0.337,0.556 0.744,1.067 1.21,1.515 0.397,0.578 0.917,1.06 1.488,1.464 1.387,0.981 3.15,1.096 4.791,1.179 3.155,0.161 6.587,0.258 9.39,-1.44 0.299,-0.181 0.585,-0.383 0.868,-0.59 0.491,-0.295 0.966,-0.616 1.428,-0.955 0.227,-0.167 0.457,-0.335 0.683,-0.509 0.413,-0.247 0.831,-0.485 1.252,-0.722 0.294,-0.165 0.212,-0.494 -0.011,-0.642 0.332,-0.731 0.315,-1.588 0.23,-2.403 z"
     id="path199" /><path
     d="m 227.493,419.504 c 2.114,-0.34 4.214,-0.765 6.293,-1.274 1.04,-0.254 2.074,-0.529 3.103,-0.825 0.936,-0.269 1.911,-0.509 2.807,-0.895 0.795,-0.343 1.403,-0.861 1.735,-1.674 0.349,-0.858 0.456,-1.82 0.597,-2.728 0.326,-2.114 0.546,-4.243 0.688,-6.378 0.287,-4.325 0.242,-8.665 0.035,-12.992 -0.416,-8.695 -1.358,-17.364 -2.031,-26.042 -0.34,-4.393 -0.659,-8.787 -0.954,-13.183 -0.295,-4.378 -0.625,-8.761 -0.794,-13.147 -0.082,-2.125 -0.083,-4.251 0.067,-6.374 0.144,-2.048 0.394,-4.086 0.584,-6.13 0.184,-1.987 0.313,-3.988 0.252,-5.985 -0.047,-1.569 -0.255,-3.133 -0.571,-4.673 -0.136,-0.133 -0.222,-0.322 -0.173,-0.562 0.007,-0.037 0.016,-0.074 0.023,-0.111 -0.046,-0.203 -0.086,-0.407 -0.136,-0.609 -0.059,-0.238 0.151,-0.422 0.351,-0.422 0.091,-0.432 0.18,-0.864 0.271,-1.297 1.389,-6.574 2.075,-13.269 2.581,-19.961 0.515,-6.806 0.927,-13.621 1.38,-20.432 0.45,-6.777 1.176,-13.604 0.809,-20.401 -0.362,-6.701 -1.383,-13.383 -2.658,-19.966 -0.632,-3.262 -1.359,-6.506 -2.18,-9.725 -0.756,-2.965 -1.632,-5.907 -2.34,-8.883 -0.639,0.376 -1.406,0.56 -2.104,0.768 -0.943,0.281 -1.89,0.549 -2.839,0.805 -1.823,0.489 -3.659,0.931 -5.504,1.327 -7.472,1.605 -15.094,2.474 -22.725,2.813 -7.633,0.339 -15.284,0.15 -22.905,-0.363 -3.802,-0.256 -7.642,-0.516 -11.361,-1.392 -0.899,-0.212 -1.789,-0.461 -2.663,-0.757 -0.348,-0.118 -0.696,-0.244 -1.036,-0.388 0,0.051 0.008,0.098 -0.005,0.154 -0.193,0.832 -0.377,1.666 -0.545,2.504 -0.686,3.422 -1.095,6.896 -1.229,10.383 -0.136,3.538 0.164,7.051 0.229,10.585 0.032,1.767 -0.037,3.53 -0.302,5.279 -0.259,1.716 -0.698,3.397 -1.113,5.08 -0.835,3.391 -1.447,6.829 -1.88,10.294 -0.867,6.935 -1.118,13.926 -1.608,20.893 -0.457,6.505 -1.142,13.032 -2.689,19.38 -0.763,3.133 -1.739,6.216 -3.013,9.181 -0.642,1.493 -1.368,2.942 -2.143,4.37 -0.308,0.568 -0.624,1.135 -0.933,1.706 0.012,0.004 0.022,0.01 0.034,0.014 -0.495,0.681 -0.94,1.398 -1.349,2.133 -1.171,2.107 -2.15,4.312 -3.28,6.442 -0.683,1.055 -1.37,2.107 -2.049,3.165 -1.801,2.807 -3.548,5.65 -5.064,8.623 -2.971,5.827 -5.127,12.02 -7.156,18.224 -2.137,6.539 -4.232,13.092 -6.346,19.639 -1.079,3.34 -2.157,6.68 -3.236,10.02 -0.933,2.889 -1.857,5.788 -3.027,8.591 -1.165,2.789 -2.548,5.501 -4.394,7.906 -0.889,1.157 -1.842,2.263 -2.6,3.515 -0.702,1.159 -1.21,2.508 -0.829,3.862 0.002,0.008 0,0.014 0.002,0.022 0.019,0.031 0.037,0.062 0.057,0.092 1.115,1.713 3.371,2.192 5.154,2.886 1.999,0.777 3.916,1.759 5.703,2.947 0.879,0.585 1.727,1.218 2.541,1.891 0.769,0.636 1.495,1.322 2.352,1.843 0.729,0.443 1.664,0.862 2.5,0.456 0.713,-0.346 1.017,-1.139 1.239,-1.848 0.286,-0.91 0.505,-1.823 0.934,-2.681 0.491,-0.984 1.157,-1.871 1.786,-2.769 1.344,-1.92 2.675,-3.85 3.993,-5.788 2.601,-3.825 5.151,-7.684 7.651,-11.575 5.033,-7.836 9.858,-15.805 14.47,-23.896 4.659,-8.174 9.046,-16.49 13.333,-24.865 3.214,-6.278 6.41,-12.601 8.931,-19.19 0.087,-0.084 0.173,-0.172 0.256,-0.268 0.318,-0.371 0.624,-0.761 0.891,-1.171 0.551,-0.845 0.989,-1.799 1.342,-2.742 0.454,-1.212 0.842,-2.55 0.96,-3.884 0.004,-0.007 0.007,-0.014 0.011,-0.021 1.1,-2.078 2.214,-4.147 3.327,-6.217 3.912,-7.277 7.825,-14.565 11.01,-22.199 1.582,-3.792 2.991,-7.66 4.133,-11.608 1.147,-3.964 1.942,-7.978 2.55,-12.056 0.106,-0.709 1.325,-0.536 1.248,0.169 -0.5,4.601 -1.601,9.166 -2.953,13.586 -0.433,1.414 -0.908,2.813 -1.402,4.206 0.234,0.074 0.431,0.266 0.445,0.582 0.183,4.03 0.573,8.028 1.172,12.018 1.067,7.109 2.643,14.13 3.809,21.222 0.579,3.525 1.063,7.068 1.316,10.632 0.124,1.747 0.2,3.499 0.198,5.25 -0.002,1.208 -0.027,2.419 -0.163,3.617 0.038,0.082 0.062,0.176 0.059,0.288 -0.017,0.671 -0.033,1.343 -0.048,2.014 -0.116,5.424 -0.134,10.851 -0.054,16.276 0.079,5.398 0.256,10.795 0.529,16.186 0.273,5.391 0.627,10.778 1.078,16.157 0.227,2.703 0.483,5.403 0.761,8.101 0.278,2.691 0.623,5.377 0.874,8.071 0.124,1.328 0.214,2.661 0.209,3.996 -0.004,1.093 -0.065,2.185 -0.073,3.279 -0.014,1.952 0.181,3.851 1.094,5.573 0.658,0.462 1.369,0.854 2.124,1.133 3.366,1.243 7.125,0.753 10.576,0.198 z"
     id="path201"
     style="fill:#fab80a;fill-opacity:1" /><path
     d="m 262.229,199.321 c 0.036,-0.003 0.063,0.009 0.096,0.011 1.309,-1.201 2.274,-2.622 2.9,-4.287 0.384,-1.023 0.675,-2.078 0.871,-3.153 0.09,-0.494 0.156,-0.991 0.203,-1.49 0.024,-0.259 0.009,-0.57 0.057,-0.85 -5.383,-2.089 -10.842,-3.979 -16.363,-5.668 -5.525,-1.69 -11.112,-3.177 -16.746,-4.457 -5.634,-1.281 -11.315,-2.355 -17.027,-3.219 -2.863,-0.433 -5.75,-0.747 -8.593,-1.306 -2.895,-0.57 -5.615,-1.599 -8.396,-2.556 -2.779,-0.956 -5.613,-1.75 -8.481,-2.388 -1.42,-0.316 -2.845,-0.605 -4.279,-0.851 -1.375,-0.236 -2.753,-0.439 -4.11,-0.76 -0.092,0.642 -0.199,1.283 -0.32,1.918 -0.667,3.5 -1.748,6.896 -3.176,10.158 -1.422,3.248 -3.205,6.339 -5.31,9.192 -0.956,1.295 -1.964,2.624 -3.105,3.776 0.336,0.058 0.672,0.118 1.007,0.188 5.941,1.229 11.894,2.499 17.959,2.917 3.04,0.21 6.057,0.137 9.097,-0.033 3.074,-0.173 6.091,-0.208 9.146,0.233 3.033,0.438 6.043,1.02 9.077,1.451 3.007,0.427 6.024,0.782 9.047,1.068 6.04,0.573 12.107,0.869 18.175,0.889 6.098,0.019 12.196,-0.244 18.271,-0.783 z"
     id="path203" /><path
     d="m 259.599,207.24 c 0.187,0.227 0.373,0.455 0.558,0.684 0.23,-0.027 0.465,-0.024 0.697,-0.03 0.484,-0.013 0.968,0.003 1.452,0.018 0.962,0.029 1.924,0.058 2.886,0.08 0.988,0.023 1.976,0.03 2.964,0.006 0.48,-0.012 0.961,-0.031 1.44,-0.06 0.071,-0.004 0.145,-0.012 0.22,-0.021 -0.045,-0.065 -0.098,-0.125 -0.142,-0.191 -0.012,-0.018 -0.015,-0.038 -0.023,-0.056 -0.622,-0.503 -1.204,-1.072 -1.765,-1.631 -0.698,-0.695 -1.352,-1.426 -1.965,-2.198 -0.592,-0.746 -1.142,-1.528 -1.825,-2.195 -0.474,-0.462 -1.026,-0.793 -1.581,-1.132 -0.081,0.049 -0.175,0.084 -0.287,0.094 -0.755,0.067 -1.512,0.13 -2.268,0.189 -1,0.078 -2.001,0.136 -3.003,0.198 0.683,1.401 0.775,3.04 1.411,4.465 0.299,0.668 0.769,1.221 1.231,1.78 z"
     id="path205" /><path
     d="m 275.258,215.304 c 0.893,-0.018 1.787,-0.035 2.68,-0.053 -0.605,-0.273 -1.178,-0.618 -1.717,-1.007 -1.188,-0.858 -2.237,-1.889 -3.286,-2.907 -0.742,-0.721 -1.508,-1.466 -2.202,-2.26 -0.074,0.027 -0.152,0.043 -0.231,0.057 -0.714,-0.241 -1.448,-0.264 -2.211,-0.251 -1.014,0.018 -2.027,0.058 -3.04,0.109 -0.133,0.007 -0.267,0.015 -0.4,0.022 -1.63,-0.044 -3.261,-0.083 -4.892,-0.127 -0.721,-0.019 -1.652,-0.132 -1.816,0.792 -0.07,0.398 -0.043,0.825 -0.054,1.228 -0.012,0.43 -0.022,0.861 -0.033,1.292 -0.011,0.431 -0.022,0.861 -0.033,1.292 -0.011,0.427 -0.066,0.877 -0.016,1.301 0.024,0.206 0.102,0.352 0.206,0.467 10e-4,0.092 -0.002,0.182 -0.019,0.262 -0.012,0.052 0.006,0.101 0.008,0.125 0.078,0.004 0.184,-0.013 0.236,-0.014 0.298,-0.005 0.596,-0.012 0.894,-0.018 0.319,-0.006 0.638,-0.012 0.957,-0.019 0.732,0.005 1.464,-0.008 2.196,-0.043 1.874,-0.037 3.748,-0.074 5.623,-0.11 2.383,-0.045 4.766,-0.091 7.15,-0.138 z"
     id="path207" /><path
     d="m 273.796,216.626 -7.963,0.153 c -0.25,0.005 -0.501,0.01 -0.751,0.014 0.219,0.331 0.451,0.656 0.695,0.953 0.352,0.428 0.779,0.842 1.285,1.083 0.725,0.346 1.833,0.312 2.272,-0.455 0.245,-0.428 0.787,-0.352 1.047,0 0.445,0.602 1.152,1.129 1.927,1.15 0.677,0.018 1.384,-0.347 1.58,-1.027 0.115,-0.401 0.546,-0.54 0.9,-0.366 0.715,0.351 1.494,0.732 2.308,0.732 0.768,-0.001 1.372,-0.551 2.158,-0.488 0.681,0.055 1.34,0.374 1.781,-0.329 0.196,-0.313 0.256,-0.689 0.274,-1.053 0.01,-0.223 0.007,-0.428 0.041,-0.623 -1.034,0.197 -2.136,0.151 -3.166,0.171 -1.464,0.028 -2.926,0.057 -4.388,0.085 z"
     id="path209" /><path
     d="m 445.625,196.868 c -0.122,-0.987 -0.484,-1.84 -1.316,-2.423 -0.688,-0.482 -1.535,-0.664 -2.354,-0.763 -1.022,-0.123 -2.063,-0.114 -3.09,-0.149 -1.086,-0.038 -2.246,-0.186 -3.116,0.604 -0.708,0.643 -1.161,1.641 -1.641,2.455 -0.553,0.939 -1.084,1.892 -1.542,2.882 -0.507,1.097 -0.938,2.235 -1.196,3.418 -0.274,1.258 -0.346,2.547 -0.478,3.825 -0.175,1.691 -0.565,3.618 -1.801,4.853 l -132.817,-2.36 c -0.3,-0.269 -0.61,-0.527 -0.926,-0.782 -0.509,-0.411 -1.029,-0.763 -1.638,-0.934 -0.212,-0.309 -0.427,-0.616 -0.662,-0.91 -0.404,-0.504 -0.817,-1.001 -1.227,-1.5 -0.805,-0.979 -1.615,-1.954 -2.446,-2.911 -2.848,-3.281 -5.994,-6.404 -9.785,-8.585 -1.798,-1.035 -3.741,-1.829 -5.768,-2.28 -1.207,-0.269 -2.523,-0.375 -3.734,-0.73 -0.295,-0.248 -0.64,-0.447 -1,-0.563 -0.343,-0.208 -0.738,-0.387 -1.102,-0.288 -0.301,0.082 -0.497,0.279 -0.634,0.531 -0.015,0.012 -0.031,0.02 -0.046,0.032 -0.064,0.053 -0.08,0.139 -0.069,0.222 -0.227,0.66 -0.156,1.558 -0.178,2.09 -0.013,0.326 -0.043,0.65 -0.084,0.974 -0.197,0.699 -0.43,1.388 -0.707,2.059 -0.676,1.636 -1.633,3.38 -3.285,4.158 0.603,0.202 1.168,0.491 1.685,0.893 0.748,0.581 1.33,1.343 1.935,2.065 0.553,0.66 1.137,1.295 1.738,1.913 0.14,0.207 0.283,0.411 0.419,0.619 0.364,0.557 0.79,1.066 1.176,1.607 0.377,0.527 0.796,1.043 1.22,1.533 0.225,0.26 0.452,0.519 0.681,0.776 0.229,0.257 0.468,0.623 0.854,0.585 0.109,-0.011 0.232,-0.06 0.319,-0.142 0.333,0.323 0.664,0.647 0.995,0.963 1.047,1 2.094,2.028 3.309,2.826 1.046,0.687 2.195,1.164 3.462,1.162 0.761,-10e-4 1.516,-0.099 2.276,-0.003 0.69,0.087 1.311,0.363 1.972,0.558 1.255,0.369 2.376,-0.193 3.522,-0.661 0.604,-0.247 1.214,-0.456 1.865,-0.536 0.692,-0.086 1.381,-0.014 2.064,0.113 1.431,0.267 2.77,0.711 4.246,0.66 0.386,-0.013 0.771,-0.048 1.152,-0.115 0.245,-0.043 0.592,-0.069 0.785,-0.247 0.176,-0.162 0.166,-0.412 0.097,-0.656 0.091,-0.313 0.055,-0.664 -0.057,-0.97 -0.186,-0.509 -0.427,-0.993 -0.704,-1.455 l 131.835,2.782 c 1.42,0.492 2.902,0.794 4.405,0.921 1.993,0.169 4.066,-0.11 5.798,-1.165 3.394,-2.067 4.748,-6.333 5.354,-10.036 0.369,-2.264 0.52,-4.634 0.239,-6.915 z"
     id="path211" /></g>
</svg>
