<?xml version="1.0" encoding="UTF-8" standalone="no"?>
<!-- Generator: Adobe Illustrator 27.5.0, SVG Export Plug-In . SVG Version: 6.00 Build 0)  -->

<svg
   version="1.1"
   x="0px"
   y="0px"
   viewBox="0 0 1122 1122"
   style="enable-background:new 0 0 1122 1122;"
   xml:space="preserve"
   id="svg401"
   sodipodi:docname="seniors.svg"
   inkscape:version="1.2 (dc2aeda, 2022-05-15)"
   xmlns:inkscape="http://www.inkscape.org/namespaces/inkscape"
   xmlns:sodipodi="http://sodipodi.sourceforge.net/DTD/sodipodi-0.dtd"
   xmlns="http://www.w3.org/2000/svg"
   xmlns:svg="http://www.w3.org/2000/svg"><defs
   id="defs405">
	

		
		
		
		
		
		
	
				
				
				
				
				
			
			
			
		
			
			
			
			
			
			
			
			
			
			
			
			
		
				
				
				
			
			
			
			
			
			
			
			
			
			
			
		
				
				
			
				
				
			
				
				
				
				
				
				
				
				
			
					
					
					
					
					
				</defs><sodipodi:namedview
   id="namedview403"
   pagecolor="#ffffff"
   bordercolor="#000000"
   borderopacity="0.25"
   inkscape:showpageshadow="2"
   inkscape:pageopacity="0.0"
   inkscape:pagecheckerboard="0"
   inkscape:deskcolor="#d1d1d1"
   showgrid="false"
   inkscape:zoom="0.80481283"
   inkscape:cx="563.48505"
   inkscape:cy="561"
   inkscape:window-width="1512"
   inkscape:window-height="945"
   inkscape:window-x="0"
   inkscape:window-y="37"
   inkscape:window-maximized="0"
   inkscape:current-layer="svg401" />


<g
   id="g142">
			<polygon
   style="fill:#eacdb0"
   points="559.008,426 543.357,426.219 542.055,432 552.055,448 557.299,448.03 565.759,441.942 "
   id="polygon140" />
		</g><g
   id="g156">
					<path
   style="fill:none"
   d="m 680.424,261 c 0.505,0.244 1.01,0.487 1.507,0.735 0.72,-0.249 1.445,-0.494 2.175,-0.735 h -2.307 z"
   id="path154" />
				</g><g
   id="g164"
   style="fill:#fab80a;fill-opacity:1">
					
				</g><g
   id="g172">
					<path
   style="fill:#ffffff"
   d="m 487.541,259.067 -0.079,0.49 c 0.231,-0.104 0.466,-0.206 0.699,-0.309 -0.207,-0.061 -0.413,-0.122 -0.62,-0.181 z"
   id="path170" />
				</g><g
   id="g212">
				
			</g><g
   id="g9235"><g
     id="shadow">
	<path
   style="opacity:0.12;fill:#606060;"
   d="M964.703,859H243.487c-22.813,0-41.477,13.054-41.477,29.008l0,0   c0,11.048,8.953,20.7,22.032,25.595h-63.509c-22.813,0-41.477,13.054-41.477,29.008l0,0c0,15.954,18.665,29.008,41.477,29.008   h22.13c-6.181,5.069-9.93,11.626-9.93,18.77v11.603c0,15.954,18.665,29.008,41.477,29.008H924.69   c22.813,0,41.477-13.054,41.477-29.008v-11.603c0-15.954-18.665-29.008-41.477-29.008l-48.309,0.644   c3.68,0,9.655-2.03,13.663-6.112c7.028-7.156,7.34-18.049,3.904-27.066c-2.228-5.845-5.797-10.48-14.639-12.223l85.394,0.391   c22.813,0,41.477-13.054,41.477-29.008l0,0C1006.181,872.054,987.516,859,964.703,859z"
   id="path137" />
</g><g
     id="g8891"><g
       id="g8567"><g
         id="g152">
				<g
   id="g146">
					<path
   style="fill:#59595b"
   d="m 589.107,43.775 c 0,-3.267 0,-6.533 0,-9.8 l -4.513,-9.235 c -1.121,-1.273 -3.485,-1.222 -4.521,0.097 l -3.777,9.138 v 9.8 c -3.558,0 -9.351,2.788 -9.351,6.227 0,3.439 2.884,6.227 6.442,6.227 h 2.909 v 332.095 c 0,18.737 -9.906,34.323 -24.134,33.988 -11.026,-0.259 -20.643,-9.633 -22.262,-24.933 -0.359,-3.389 -3.253,-5.996 -6.777,-5.996 h -0.255 c -4.074,0 -7.266,3.442 -6.76,7.35 2.814,21.761 20.083,37.33 36.477,37.33 12.81,0 23.315,-5.936 29.434,-16.639 7.574,-13.249 7.09,-27.815 7.089,-42.353 0,-13.772 0,-27.544 0,-41.317 0,-19.229 0,-38.458 0,-57.687 0,-21.925 0,-43.849 0,-65.774 0,-21.86 0,-43.719 0,-65.579 0,-19.034 0,-38.067 0,-57.101 0,-11.128 0,-22.256 0,-33.384 h 1.995 c 3.558,0 6.442,-2.788 6.442,-6.227 0,-3.439 -4.88,-6.227 -8.438,-6.227 z"
   id="path144" />
				</g>
				<g
   style="opacity:0.26"
   id="g150">
					<polygon
   points="576.162,194.256 589.107,194.256 589.107,229.94 576.162,216.484 "
   id="polygon148" />
				</g>
			</g><g
         id="g160"
         style="fill:#fab80a;fill-opacity:1">
					<path
   style="fill:#fab80a;fill-opacity:1"
   d="m 487.541,259.067 2.309,-14.216 c 7.999,-49.238 26.922,-96.061 55.379,-137.032 l 35.963,-51.777 c -87.56,3.709 -162.633,55.624 -199.374,129.895 -11.212,22.664 -18.839,47.412 -22.178,73.501 18.946,-5.666 40.89,-8.916 64.37,-8.916 22.962,0.001 44.632,3.109 63.531,8.545 z"
   id="path158" />
				</g><path
         style="enable-background:new 0 0 1122 1122;fill:#fab80a;fill-opacity:1"
         d="M 675.636,230.484 681.799,261 h 2.307 c 20.032,-6.627 43.769,-10.477 69.327,-10.477 25.47,0 49.35,3.824 69.622,10.409 C 819.012,227.618 807.954,196.468 791.405,169 750.542,101.179 676.194,55.814 591.243,55.814 c -2.503,0 -4.993,0.053 -7.477,0.131 l 28.731,42.008 c 35.219,43.321 51.391,87.205 63.139,132.531 z"
         id="path162" /><g
         id="g168"
         style="fill:#c8a13c;fill-opacity:1">
					<path
   style="fill:#c8a13c;fill-opacity:1"
   d="m 489.85,244.851 -2.309,14.216 c 0.207,0.06 0.413,0.12 0.62,0.181 24.245,-10.779 57.47,-16.961 94.166,-16.961 38.642,0 73.514,6.854 98.097,18.713 h 1.376 l -6.163,-30.516 c -11.749,-45.326 -27.92,-89.21 -63.14,-132.53 L 583.766,55.946 c -0.859,0.027 -1.716,0.061 -2.573,0.098 l -35.963,51.777 c -28.458,40.969 -47.381,87.792 -55.38,137.03 z"
   id="path166" />
				</g></g><g
       id="g180">
			<polygon
   style="fill:#eacdb0"
   points="561.182,421.497 555.055,437 563.366,448.753 570.993,442.259 571.697,423.627 563.23,408.051 558.82,412.585 "
   id="polygon178" />
		</g><g
       id="g184">
			<polygon
   style="fill:#eacdb0"
   points="543.055,430 564.055,426 561.055,417.009 548.055,414 541.055,419.012 "
   id="polygon182" />
		</g><g
       id="g8807"><g
         id="g220">
				<path
   style="fill:#fffff1"
   d="m 717.13,495.635 c 0.526,9.134 2.715,18.081 4.891,26.953 13.258,54.035 39.437,118.468 52.695,172.503 -36.212,0 -79.666,7.242 -125.816,21.666 -1.023,-20.704 -2.297,-61.465 -3.32,-82.169 -0.656,-13.273 -1.311,-26.592 -0.376,-39.801 1.508,-21.305 7.113,-41.846 12.684,-62.193 10.294,-37.597 20.588,-75.194 30.882,-112.791 0.551,-2.011 1.135,-4.09 2.4,-5.638 1.515,-1.854 3.782,-2.68 5.96,-3.381 10.522,-3.386 22.472,-6.604 33.504,-6.049 4.012,10.927 -3.699,31.632 -6.183,42.519 -3.612,15.843 -8.282,31.695 -7.321,48.381 z"
   id="path218" />
			</g><g
         style="opacity:0.47"
         id="g284">
					<g
   id="g274">
						<path
   style="fill:#8c9498"
   d="m 682.021,500.13 c -9.151,-3.745 -18.301,-7.49 -27.452,-11.236 -0.773,-0.316 -1.697,0.068 -2.013,0.841 -3.736,9.127 -7.471,18.254 -11.207,27.381 -0.316,0.771 0.071,1.694 0.846,2.011 9.151,3.745 18.301,7.49 27.452,11.236 0.419,0.172 0.801,0.15 1.123,0.014 0.023,-0.007 0.045,-0.017 0.067,-0.026 0.013,-0.006 0.026,-0.011 0.038,-0.017 0.326,-0.133 0.612,-0.39 0.785,-0.813 3.736,-9.127 7.471,-18.254 11.207,-27.381 0.315,-0.769 -0.072,-1.693 -0.846,-2.01 z m -12.637,26.796 c -8.197,-3.355 -16.395,-6.71 -24.592,-10.065 3.346,-8.176 6.693,-16.353 10.039,-24.529 8.198,3.355 16.395,6.71 24.592,10.065 -3.346,8.177 -6.692,16.353 -10.039,24.529 z"
   id="path272" />
					</g>
					<g
   id="g278">
						<path
   style="fill:#8c9498"
   d="m 661.3,550.757 c -9.151,-3.745 -18.301,-7.49 -27.452,-11.236 -0.773,-0.316 -1.697,0.068 -2.013,0.841 -3.736,9.127 -7.471,18.254 -11.207,27.381 -0.316,0.771 0.071,1.694 0.846,2.011 9.151,3.745 18.301,7.49 27.452,11.236 0.42,0.172 0.801,0.15 1.123,0.014 0.023,-0.007 0.044,-0.017 0.067,-0.026 0.013,-0.006 0.026,-0.011 0.038,-0.017 0.326,-0.133 0.612,-0.39 0.785,-0.813 3.736,-9.127 7.471,-18.254 11.207,-27.381 0.315,-0.77 -0.071,-1.693 -0.846,-2.01 z m -12.637,26.796 c -8.197,-3.355 -16.395,-6.71 -24.592,-10.065 3.346,-8.176 6.693,-16.353 10.039,-24.529 8.198,3.355 16.395,6.71 24.592,10.065 -3.346,8.177 -6.692,16.353 -10.039,24.529 z"
   id="path276" />
					</g>
					<g
   id="g282">
						<path
   style="fill:#8c9498"
   d="m 640.579,601.384 c -9.151,-3.745 -18.301,-7.49 -27.452,-11.236 -0.773,-0.316 -1.697,0.068 -2.013,0.841 -3.736,9.127 -7.471,18.254 -11.207,27.381 -0.316,0.771 0.071,1.694 0.846,2.011 9.151,3.745 18.301,7.49 27.452,11.236 0.419,0.172 0.801,0.15 1.123,0.015 0.023,-0.007 0.045,-0.017 0.067,-0.026 0.013,-0.006 0.026,-0.011 0.038,-0.017 0.326,-0.133 0.612,-0.39 0.785,-0.813 3.736,-9.127 7.471,-18.254 11.207,-27.381 0.316,-0.771 -0.071,-1.694 -0.846,-2.011 z m -12.636,26.796 c -8.197,-3.355 -16.395,-6.71 -24.592,-10.065 3.346,-8.176 6.693,-16.353 10.039,-24.529 8.198,3.355 16.395,6.71 24.592,10.065 -3.347,8.176 -6.693,16.352 -10.039,24.529 z"
   id="path280" />
					</g>
				</g><g
         style="opacity:0.32"
         id="g308">
					
						<rect
   x="690.85303"
   y="531.74902"
   transform="matrix(0.9255,0.3788,-0.3788,0.9255,259.5992,-241.3292)"
   style="fill:#8c9498"
   width="104.641"
   height="14.793"
   id="rect306" />
				</g><g
         id="g8739"><path
           style="enable-background:new 0 0 1122 1122;fill:#c69c6d"
           d="m 830.749,644.706 c 1.002,7.239 -0.604,55.85 1.823,56.73 -11.463,-1.784 -23,-3.09 -34.572,-3.921 -30.452,-2.186 -61.137,-1.081 -91.356,3.263 -13.686,1.967 -28.156,3.719 -41.138,8.647 -6.365,2.416 -12.474,5.437 -18.645,8.298 -1.585,0.735 -18.186,7.029 -18.176,7.3 -0.755,-21.262 -5.461,-41.825 -7.931,-62.963 -2.497,-21.373 -3.781,-42.888 -3.84,-64.407 -0.093,-33.713 11.358,-63.817 18.917,-96.495 3.752,-16.223 6.983,-32.667 12.815,-48.311 4.566,-12.249 13.136,-30.365 25.231,-36.93 4.094,-2.222 8.813,-2.928 13.423,-3.598 13.983,-2.033 27.967,-4.066 41.95,-6.099 5.098,-0.741 10.405,-1.467 15.313,0.099 7.354,2.346 12.156,9.226 16.404,15.671 19.049,28.9 32.765,60.851 42.26,94.34 4.957,17.486 9.702,35.033 13.863,52.715 4.643,19.732 8.57,39.64 11.244,59.725 0.297,2.23 1.379,8.452 2.415,15.936 z"
           id="path210" /><g
           id="g8684"><g
             id="g188">
				<polygon
   style="fill:#c69c6d"
   points="775.055,412 852.055,534 840.055,573 799.055,573 741.615,405.771 "
   id="polygon186" />
			</g><g
             id="g216">
				<polygon
   style="fill:#c69c6d"
   points="614.105,563.521 639.055,534 674.055,416 660.055,424 607.055,507 576.055,439 548.055,447 578.105,553.521 "
   id="polygon214" />
			</g><g
             style="opacity:0.26"
             id="g248">
						<polygon
   points="559.291,665.311 562.403,666.585 743.721,747.429 846.054,483.694 836.516,482.65 "
   id="polygon246" />
					</g><g
             id="g268">
						<g
   style="opacity:0.12"
   id="g260">
							
								<rect
   x="707.69098"
   y="443.772"
   transform="matrix(0.9255,0.3788,-0.3788,0.9255,225.6541,-251.3077)"
   width="87.744003"
   height="8.2150002"
   id="rect258" />
						</g>
						<g
   id="g266">
							<g
   id="g264">
								<path
   style="fill:#c4d3d3"
   d="m 786.49,430.885 -1.26,-0.516 0.347,-0.847 c 3.267,-7.983 -1.536,-17.504 -10.729,-21.266 L 762.74,403.3 c -9.193,-3.762 -19.293,-0.341 -22.56,7.642 l -0.347,0.847 -1.26,-0.516 c -9.193,-3.762 -19.293,-0.341 -22.56,7.642 l -6.609,16.148 81.205,33.236 6.609,-16.148 c 3.268,-7.983 -1.535,-17.504 -10.728,-21.266 z m -13.397,-5.095 -21.395,-8.757 c -2.187,-0.895 -3.246,-3.412 -2.353,-5.593 0.893,-2.181 3.412,-3.234 5.599,-2.339 l 21.395,8.757 c 2.187,0.895 3.246,3.412 2.353,5.593 -0.892,2.182 -3.412,3.234 -5.599,2.339 z"
   id="path262" />
							</g>
						</g>
					</g><g
             id="g8632"><g
               id="g8593"><g
                 id="g192">
					<polygon
   style="fill:#3a3029"
   points="775.36,985 761.885,972.501 774.463,959.243 800.068,945.605 800.516,958.483 800.964,971.362 "
   id="polygon190" />
				</g><g
                 id="g196">
					<polygon
   style="fill:#aa1d2c;fill-opacity:1"
   points="762.669,639.291 811.756,648.143 782.419,778.669 801.735,954.294 776.073,960.156 708.754,748.188 708.568,684.837 713.582,647.338 "
   id="polygon194" />
				</g><g
                 id="g202"
                 style="fill:#aa1d2c;fill-opacity:1">
					<polygon
   style="fill:#aa1d2c;fill-opacity:1"
   points="680.979,953.845 705.098,953.806 720.017,758.232 752.708,562.628 650.934,577.593 649.272,741.965 "
   id="polygon200" />
				</g><g
                 id="g206">
					<polygon
   style="fill:#3a3029"
   points="665.852,963.912 678.872,951.014 704.954,950.972 704.975,963.85 678.914,976.769 "
   id="polygon204" />
				</g><g
                 id="g240">
				<g
   id="g224">
					<path
   style="fill:#bab6b7"
   d="m 675.1,328.118 c -2.747,7.026 -3.433,14.756 -2.666,22.262 0.204,1.995 0.405,4.305 -1.026,5.711 -1.532,1.505 0.38,4.033 -1.171,2.548 -1.552,-1.485 -6.84,-6.656 -7.35,-8.742 -1.195,-4.887 -1.923,-9.889 -2.169,-14.914 -0.215,-4.37 0.004,-9.002 2.341,-12.701 1.386,-2.194 3.416,-3.89 5.418,-5.541 2.903,-2.393 5.902,-4.817 9.461,-6.037 6.135,-2.102 10.336,-0.407 5.417,4.809 -3.524,3.737 -6.373,7.792 -8.255,12.605 z"
   id="path222" />
				</g>
				<g
   id="g230">
					<g
   id="g228">
						<path
   style="fill:#eacdb0"
   d="m 726.73,406.988 c -8.559,2.086 -17.117,4.172 -25.676,6.258 -2.421,-7.302 -4.314,-14.802 -5.655,-22.407 -7.748,-0.186 -16.996,-1.324 -20.743,-8.862 -1.18,-2.374 -1.607,-5.082 -2.016,-7.733 -1.692,-10.957 -3.383,-21.913 -5.075,-32.87 -0.585,-3.789 -1.168,-7.697 -0.386,-11.409 1.372,-6.512 6.623,-11.045 11.963,-14.196 13.626,-8.042 30.555,-10.288 45.169,-3.844 3.889,1.715 7.672,4.1 10.297,7.706 4.047,5.56 4.742,13.058 5.273,20.083 0.49,6.484 0.979,12.968 1.469,19.452 0.563,7.458 0.703,16.117 -4.456,20.857 -2.739,2.517 -6.616,3.474 -8.845,6.538 -3.935,5.405 -0.588,13.499 -1.319,20.427 z"
   id="path226" />
					</g>
				</g>
				<g
   id="g234">
					<path
   style="fill:#bab6b7"
   d="m 671.609,380.919 c 2.357,6.629 6.617,12.663 12.737,15.681 6.937,3.421 14.887,2.57 22.39,1.648 4.104,-0.504 8.209,-1.009 12.313,-1.513 10.383,-1.276 20.482,-4.126 24.206,-15.805 1.717,-5.386 1.639,-11.343 0.445,-16.955 -0.328,-1.542 -0.761,-3.114 -1.695,-4.348 -0.934,-1.234 -2.482,-2.058 -3.887,-1.646 -1.796,0.526 -2.608,2.663 -3.564,4.371 -2.085,3.727 -6.363,6.264 -10.303,5.014 -1.168,-0.37 -2.228,-1.033 -3.285,-1.704 -0.433,-0.275 -0.865,-0.551 -1.303,-0.809 -4.35,-2.56 -9.324,-3.297 -14.175,-3.219 -4.21,0.068 -10.514,-0.56 -13.062,3.408 -1.483,2.308 -2.966,4.617 -4.448,6.925 -0.611,0.951 -1.238,1.92 -2.107,2.599 -0.896,0.7 -1.995,1.047 -3.097,1.229 -2.772,0.458 -6.079,-0.366 -7.437,-3.046 -0.591,-1.168 -0.729,-2.518 -0.97,-3.816 -0.241,-1.297 -0.641,-2.652 -1.585,-3.514 -3.609,-3.297 -3.622,2.794 -3.446,4.846 0.312,3.625 1.056,7.232 2.273,10.654 z m 28.466,-2.253 c 3.602,1.723 7.04,1.247 10.516,-0.382 1.786,-0.837 3.037,2.178 1.254,3.014 -4.195,1.966 -8.555,2.461 -12.883,0.392 -1.801,-0.862 -0.699,-3.891 1.113,-3.024 z"
   id="path232" />
				</g>
				<g
   id="g238">
					<path
   style="fill:#bab6b7"
   d="m 659.043,311.059 c -1.113,-2.552 -2.045,-5.183 -2.786,-7.866 2.661,0.516 5.452,0.347 8.031,-0.486 -0.225,-1.578 -0.451,-3.156 -0.677,-4.734 -0.181,-1.314 17.43,-4.839 18.854,-5.169 13.336,-3.09 25.527,-5.957 38.798,-0.506 11.336,4.657 19.379,12.916 22.746,24.71 3.217,11.267 1.661,26.829 -3.584,37.343 -0.411,-3.065 0.289,-10.54 -0.86,-13.342 -0.87,-2.849 -2.29,-5.511 -4.06,-7.9 -3.534,-4.772 -8.471,-8.499 -13.89,-10.88 -8.64,-3.796 -18.225,-5.066 -27.6,-4.996 -8.59,0.064 -19.007,0.489 -26.995,3.941 -3.84,1.659 -4.356,2.759 -7.369,-0.92 -0.531,-0.649 -5.136,-8.458 -4.806,-8.512 1.4,-0.229 2.799,-0.456 4.198,-0.683 z"
   id="path236" />
				</g>
			</g><g
                 id="g244"
                 style="fill:#fab80a;fill-opacity:1">
						
							<rect
   x="587.18103"
   y="425.47198"
   transform="matrix(0.9255,0.3788,-0.3788,0.9255,269.9328,-222.1248)"
   style="fill:#fab80a;fill-opacity:1"
   width="224.696"
   height="299.07901"
   id="rect242" />
					</g><g
                 id="g252">
						
							<rect
   x="599.14301"
   y="435.121"
   transform="matrix(0.9255,0.3788,-0.3788,0.9255,269.3972,-222.4778)"
   style="fill:#fffff1"
   width="202.032"
   height="276.70599"
   id="rect250" />
					</g><g
                 style="opacity:0.05"
                 id="g256">
						<polygon
   points="792.946,460.815 612.019,518.606 658.46,405.772 "
   id="polygon254" />
					</g></g><g
               id="g288"
               style="fill:#fab80a;fill-opacity:1">
					<polygon
   style="fill:#fab80a;fill-opacity:1"
   points="667.672,511.251 706.689,501.913 709.909,504.047 663.122,518.369 659.575,503.039 666.743,503.524 "
   id="polygon286" />
				</g><g
               id="g292"
               style="fill:#fab80a;fill-opacity:1">
					<polygon
   style="fill:#fab80a;fill-opacity:1"
   points="644.138,562.225 683.156,552.887 686.375,555.021 639.588,569.343 636.041,554.013 643.209,554.497 "
   id="polygon290" />
				</g><g
               id="g296"
               style="fill:#fab80a;fill-opacity:1">
					<polygon
   style="fill:#fab80a;fill-opacity:1"
   points="623.955,609.908 662.972,600.57 666.191,602.704 619.405,617.026 615.857,601.696 623.025,602.18 "
   id="polygon294" />
				</g><g
               style="opacity:0.32"
               id="g300">
					
						<rect
   x="646.96002"
   y="638.992"
   transform="matrix(0.9255,0.3788,-0.3788,0.9255,296.9507,-216.7119)"
   style="fill:#8c9498"
   width="104.641"
   height="14.793"
   id="rect298" />
				</g><g
               style="opacity:0.32"
               id="g304">
					
						<rect
   x="668.90601"
   y="585.37"
   transform="matrix(0.9255,0.3788,-0.3788,0.9255,278.2749,-229.0205)"
   style="fill:#8c9498"
   width="104.641"
   height="14.793"
   id="rect302" />
				</g><g
               id="g314">
				<polygon
   style="fill:#c69c6d"
   points="808.055,519 700.055,531 700.055,556 840.055,573 852.055,534 "
   id="polygon312" />
			</g></g></g></g><g
         id="g318">
				<polygon
   style="fill:#eacdb0"
   points="684.055,529 662.055,540 667.055,553 700.53,553 700.53,534.486 "
   id="polygon316" />
			</g></g></g><g
     id="g9105"><g
       id="g324">
				<path
   style="fill:#cca6ac"
   d="m 555.678,592.521 c 3.379,1.702 5.165,5.67 5.197,9.454 0.032,3.783 -1.405,7.421 -3.071,10.817 -2.01,4.097 -4.39,8.013 -7.101,11.685 -1.558,2.11 -3.279,4.186 -5.552,5.495 -2.273,1.308 -5.219,1.723 -7.51,0.445 -1.57,-0.876 -2.644,-2.409 -3.663,-3.89 -0.722,-1.05 -1.471,-2.181 -1.496,-3.455 -0.021,-1.07 0.477,-2.073 0.962,-3.026 3.329,-6.547 11.526,-32.919 22.234,-27.525 z"
   id="path322" />
			</g><g
       id="g9061"><g
         id="g332">
				<path
   style="fill:#3a3029"
   d="m 380.73,951.424 v 21.482 l 14.321,14.321 h 11.112 c 4.764,0 7.863,-5.014 5.732,-9.275 l -2.523,-5.046 -7.161,-14.321 -7.161,-14.321 z"
   id="path330" />
			</g><g
         id="g336">
				<path
   style="fill:#3a3029"
   d="m 452.336,944.263 v 21.482 l 14.321,14.321 11.875,-3.958 c 4.414,-1.471 5.736,-7.073 2.446,-10.363 v 0 l -7.161,-14.321 -7.161,-14.321 z"
   id="path334" />
			</g><g
         id="g8981"><g
           id="g328"
           style="fill:#7d4a4f;fill-opacity:1">
				<polygon
   style="fill:#7d4a4f;fill-opacity:1"
   points="338.055,457 294.055,565 307.055,601 348.055,592 371.055,427 "
   id="polygon326" />
			</g><g
           id="g360">
				<g
   id="g350">
					<g
   id="g348">
						<path
   style="fill:#eacdb0"
   d="m 402.845,433.124 c 8.64,0.84 17.28,1.679 25.919,2.519 1.327,-7.618 2.111,-15.358 2.342,-23.122 7.528,-1.305 16.384,-3.774 18.97,-11.819 0.815,-2.534 0.848,-5.291 0.871,-7.989 0.099,-11.151 0.197,-22.302 0.296,-33.454 0.034,-3.857 0.049,-7.831 -1.238,-11.412 -2.259,-6.284 -8.021,-10.037 -13.673,-12.402 -14.423,-6.036 -31.246,-5.826 -44.582,2.701 -3.549,2.269 -6.9,5.19 -8.949,9.159 -3.159,6.12 -2.775,13.684 -2.298,20.753 0.441,6.525 0.881,13.05 1.322,19.576 0.507,7.505 1.596,16.145 7.297,20.118 3.027,2.109 6.942,2.502 9.549,5.23 4.598,4.81 2.481,13.351 4.174,20.142 z"
   id="path346" />
					</g>
				</g>
				<g
   id="g354">
					<path
   style="fill:#bfbebe"
   d="m 412.302,355.853 c -5.312,7.231 -11.268,13.717 -19.003,18.299 -4.752,2.815 -9.722,4.058 -9.912,10.62 -0.181,6.244 3.939,13.072 9.04,16.226 0.876,0.542 1.831,1.038 2.416,1.896 1.155,1.694 0.313,4.217 -1.339,5.406 -1.652,1.189 -3.822,1.32 -5.832,1.101 -6.1,-0.667 -11.646,-4.161 -15.918,-8.656 -9.007,-9.479 -12.793,-23.44 -11.305,-36.559 1.467,-12.934 7.661,-25.661 16.764,-34.678 8.402,-8.322 16.703,-16.964 29.242,-17.579 7.066,-0.346 19.475,3.724 19.825,12.64 0.369,9.37 -8.946,23.948 -13.978,31.284 z"
   id="path352" />
				</g>
				<g
   id="g358">
					<path
   style="fill:#bfbebe"
   d="m 433.473,353.158 c 4.94,3.725 10.722,7.215 12.782,12.915 0.903,2.498 0.983,5.194 0.979,7.839 -0.006,4.732 -0.25,9.463 -0.728,14.173 -0.498,4.902 -1.46,10.481 -4.825,14.402 -1.367,1.592 -11.099,8.352 -2.755,9.539 2.438,0.347 4.707,-1.168 6.588,-2.697 14.901,-12.117 24.05,-31.117 22,-49.771 -1.235,-11.237 -6.809,-21.993 -15.236,-29.851 -7.698,-7.177 -22.561,-15.751 -33.288,-9.391 -14.297,8.475 7.069,27.252 14.483,32.842 z"
   id="path356" />
				</g>
			</g><g
           id="g8951"><g
             id="g340"
             style="fill:#aa1d2c;fill-opacity:1">
				<polygon
   style="fill:#aa1d2c;fill-opacity:1"
   points="333.553,714.929 358.675,845.061 375.459,958.584 408.417,958.584 416.657,843.23 441.376,694.917 "
   id="polygon338" />
			</g><g
             id="g344"
             style="fill:#aa1d2c;fill-opacity:1">
				<polygon
   style="fill:#aa1d2c;fill-opacity:1"
   points="489.512,703.472 489.512,849.424 477.9,949.755 444.971,951.152 433.136,851.469 412.581,714.929 "
   id="polygon342" />
			</g><g
             id="g364"
             style="fill:#fab80a;fill-opacity:1">
				<path
   style="fill:#fab80a;fill-opacity:1"
   d="m 441.571,426.58 h -70.36 l -70.36,331.699 c 0,0 140.721,20.103 231.184,0 L 481.778,446.683 Z"
   id="path362" />
			</g><g
             id="g8934"><g
               id="g8906"><g
                 style="opacity:0.12"
                 id="g372">
					<path
   d="m 563.997,541.196 c -7.026,22.182 -16.561,44.095 -28.272,64.218 -11.325,19.46 -26.09,38.23 -45.663,49.931 -9.402,5.621 -19.385,9.027 -29.59,10.213 22.378,7.706 46.364,15.174 46.422,15.069 0.167,0.062 29.811,-47.525 40.304,-68.67 12.531,-25.251 22.692,-51.965 26.412,-79.589 1.204,-8.938 0.752,-17.989 -1.102,-26.763 -1.876,12.058 -4.828,23.964 -8.511,35.591 z"
   id="path370" />
				</g><g
                 id="g8897"><g
                   id="g368"
                   style="fill:#aa1d2c;fill-opacity:1">
					<path
   style="fill:#aa1d2c;fill-opacity:1"
   d="m 476.29,440.798 c -21.041,5.797 -42.406,26.871 -41.669,47.635 -12.98,-16.223 -48.478,-16.002 -68.211,-6.677 -52.073,24.61 -46.644,95.103 -7.936,129.507 20.833,18.516 45.957,32.144 71.923,43.117 21.744,9.189 75.249,25.937 75.335,25.781 0.167,0.062 29.811,-47.526 40.304,-68.67 12.531,-25.251 22.692,-51.965 26.412,-79.589 C 579.36,480.577 531.817,425.5 476.29,440.798 Z"
   id="path366" />
				</g><g
                   id="g376">
					<path
   style="fill:#ffffff"
   d="m 556.382,523.414 c -13.947,5.605 -27.894,11.209 -41.841,16.814 -12.386,-17.758 -24.771,-35.515 -37.157,-53.273 -1.79,-2.567 -5.684,-0.881 -5.548,2.058 1.778,38.247 3.557,76.495 5.335,114.742 0.103,2.215 0.206,4.431 0.309,6.646 -15.767,-19.764 -31.535,-39.528 -47.302,-59.293 -2.529,-3.17 -5.057,-6.34 -7.586,-9.509 -1.524,-1.911 -5.225,-1.52 -5.512,1.263 -1.334,12.938 -2.668,25.877 -4.002,38.815 -15.766,5.847 -31.531,11.695 -47.297,17.542 -3.702,1.373 -1.574,7.128 2.134,5.753 16.359,-6.068 32.719,-12.135 49.079,-18.203 0.957,-0.355 1.847,-1.293 1.955,-2.346 1.143,-11.088 2.286,-22.175 3.43,-33.263 16.176,20.277 32.352,40.553 48.528,60.83 2.529,3.17 5.057,6.339 7.586,9.509 1.897,2.378 5.691,1.02 5.548,-2.058 -1.778,-38.247 -3.557,-76.495 -5.335,-114.742 -0.085,-1.83 -0.17,-3.659 -0.255,-5.489 10.826,15.522 21.653,31.045 32.48,46.567 0.752,1.078 2.326,1.578 3.557,1.083 14.677,-5.898 29.353,-11.796 44.029,-17.694 3.657,-1.469 1.538,-7.228 -2.135,-5.752 z"
   id="path374" />
				</g></g></g></g></g><g
           id="g382"
           style="fill:#7d4a4f;fill-opacity:1">
				<polygon
   style="fill:#7d4a4f;fill-opacity:1"
   points="329.055,553 443.055,597 439.055,618 307.055,604 294.055,565 "
   id="polygon380" />
			</g></g><g
         id="g390">
				<g
   id="g388">
					<g
   id="g386">
						<path
   style="fill:#eacdb0"
   d="m 558.084,603.871 c 0.032,-0.487 0.031,-0.978 -0.011,-1.473 -0.131,-1.544 -0.64,-3.827 -1.632,-5.067 10e-4,0.002 -3.725,-3.487 -3.308,-1.703 l 0.864,3.698 -9.534,-5.871 -8.999,1.265 -5.593,10.721 c 0,0 2.252,12.289 2.253,12.289 6.33,2.493 12.575,6.64 18.465,0.89 1.747,-1.706 2.968,-3.866 4.164,-5.994 1.541,-2.742 3.126,-5.67 3.331,-8.755 z"
   id="path384" />
					</g>
				</g>
			</g><g
         id="g394">
				<polygon
   style="fill:#eacdb0"
   points="440.055,613 443.055,597 459.157,592.488 459.055,598 473.055,601 473.055,611 455.055,617 "
   id="polygon392" />
			</g></g></g></g>
</svg>
