<?xml version="1.0" encoding="UTF-8" standalone="no"?>
<!-- Created with Inkscape (http://www.inkscape.org/) -->

<svg
   version="1.1"
   id="svg824"
   xml:space="preserve"
   width="1000"
   height="666.66669"
   viewBox="0 0 1000 666.66669"
   sodipodi:docname="health-active.svg"
   inkscape:version="1.1 (c4e8f9e, 2021-05-24)"
   xmlns:inkscape="http://www.inkscape.org/namespaces/inkscape"
   xmlns:sodipodi="http://sodipodi.sourceforge.net/DTD/sodipodi-0.dtd"
   xmlns="http://www.w3.org/2000/svg"
   xmlns:svg="http://www.w3.org/2000/svg"><defs
     id="defs828"><clipPath
       clipPathUnits="userSpaceOnUse"
       id="clipPath838"><path
         d="M 0,500 H 750 V 0 H 0 Z"
         id="path836" /></clipPath><clipPath
       clipPathUnits="userSpaceOnUse"
       id="clipPath850"><path
         d="M 20.6111,473.358 H 739.308 V 52.1768 H 20.6111 Z"
         id="path848" /></clipPath><clipPath
       clipPathUnits="userSpaceOnUse"
       id="clipPath878"><path
         d="M 0,500 H 750 V 0 H 0 Z"
         id="path876" /></clipPath><clipPath
       clipPathUnits="userSpaceOnUse"
       id="clipPath910"><path
         d="M 0,500 H 750 V 0 H 0 Z"
         id="path908" /></clipPath><clipPath
       clipPathUnits="userSpaceOnUse"
       id="clipPath930"><path
         d="m 614.702,333.542 h 91.442 V 235.03 h -91.442 z"
         id="path928" /></clipPath><clipPath
       clipPathUnits="userSpaceOnUse"
       id="clipPath960"><path
         d="M 0,500 H 750 V 0 H 0 Z"
         id="path958" /></clipPath><clipPath
       clipPathUnits="userSpaceOnUse"
       id="clipPath1004"><path
         d="M 0,500 H 750 V 0 H 0 Z"
         id="path1002" /></clipPath><clipPath
       clipPathUnits="userSpaceOnUse"
       id="clipPath1432"><path
         d="M 0,500 H 750 V 0 H 0 Z"
         id="path1430" /></clipPath></defs><sodipodi:namedview
     id="namedview826"
     pagecolor="#ffffff"
     bordercolor="#666666"
     borderopacity="1.0"
     inkscape:pageshadow="2"
     inkscape:pageopacity="0.0"
     inkscape:pagecheckerboard="0"
     showgrid="false"
     inkscape:zoom="0.75575672"
     inkscape:cx="622.55483"
     inkscape:cy="469.72788"
     inkscape:window-width="1920"
     inkscape:window-height="1080"
     inkscape:window-x="1440"
     inkscape:window-y="0"
     inkscape:window-maximized="0"
     inkscape:current-layer="g830" /><g
     id="g830"
     inkscape:groupmode="layer"
     inkscape:label="9019630"
     transform="matrix(1.3333333,0,0,-1.3333333,0,666.66667)"><g
       id="g832"
       style="fill:#bd07bd;fill-opacity:0.12955466"><g
         id="g834"
         clip-path="url(#clipPath838)"
         style="fill:#bd07bd;fill-opacity:0.12955466"><g
           id="g840"
           transform="translate(714.6339,353.196)"
           style="fill:#bd07bd;fill-opacity:0.12955466"><path
             d="m 0,0 c -56.194,111.484 -232.273,174.828 -335.276,57.079 -4.052,-4.632 -7.883,-9.479 -11.482,-14.5 -26.265,-36.643 -65.693,-100.083 -113.817,-84.569 -32.946,10.621 -55.544,39.922 -88.128,51.322 -42.955,15.028 -83.783,-15.736 -110.078,-55.048 -30.567,-45.699 -45.187,-99.329 -27.795,-148.91 32.394,-92.35 158.507,-113.135 244.812,-104.666 63.209,6.202 124.219,39.792 187.53,41.914 45.55,1.527 89.119,-10.838 130.168,-26.214 19.02,-7.124 38.022,-14.974 58.602,-16.938 73.623,-7.026 87.679,65.203 89.437,125.96 C 25.72,-114.223 26.22,-52.018 0,0"
             style="fill:#bd07bd;fill-opacity:0.12955466;fill-rule:nonzero;stroke:none"
             id="path842" /></g><g
           id="g844"
           style="fill:#bd07bd;fill-opacity:0.12955466"><g
             id="g846"
             style="fill:#bd07bd;fill-opacity:0.12955466" /><g
             id="g858"
             style="fill:#bd07bd;fill-opacity:0.12955466"><g
               clip-path="url(#clipPath850)"
               opacity="0.699997"
               id="g856"
               style="fill:#bd07bd;fill-opacity:0.12955466"><g
                 transform="translate(714.6339,353.196)"
                 id="g854"
                 style="fill:#bd07bd;fill-opacity:0.12955466"><path
                   d="m 0,0 c -56.194,111.484 -232.273,174.828 -335.276,57.079 -4.052,-4.632 -7.883,-9.479 -11.482,-14.5 -26.265,-36.643 -65.693,-100.083 -113.817,-84.569 -32.946,10.621 -55.544,39.922 -88.128,51.322 -42.955,15.028 -83.783,-15.736 -110.078,-55.048 -30.567,-45.699 -45.187,-99.329 -27.795,-148.91 32.394,-92.35 158.507,-113.135 244.812,-104.666 63.209,6.202 124.219,39.792 187.53,41.914 45.55,1.527 89.119,-10.838 130.168,-26.214 19.02,-7.124 38.022,-14.974 58.602,-16.938 73.623,-7.026 87.679,65.203 89.437,125.96 C 25.72,-114.223 26.22,-52.018 0,0"
                   style="fill:#aa1d2c;fill-opacity:0.42914981;fill-rule:nonzero;stroke:none"
                   id="path852" /></g></g></g></g></g></g><g
       id="g860"
       transform="translate(145.4303,34.3978)"><path
         d="M 0,0 H -133.556"
         style="fill:none;stroke:#233239;stroke-width:1;stroke-linecap:round;stroke-linejoin:round;stroke-miterlimit:10;stroke-dasharray:none;stroke-opacity:1"
         id="path862" /></g><g
       id="g864"
       transform="translate(714.3775,34.3978)"><path
         d="M 0,0 H -560.934"
         style="fill:none;stroke:#233239;stroke-width:1;stroke-linecap:round;stroke-linejoin:round;stroke-miterlimit:10;stroke-dasharray:none;stroke-opacity:1"
         id="path866" /></g><g
       id="g868"
       transform="translate(730.4042,34.3978)"><path
         d="M 0,0 H -8.904"
         style="fill:none;stroke:#233239;stroke-width:1;stroke-linecap:round;stroke-linejoin:round;stroke-miterlimit:10;stroke-dasharray:none;stroke-opacity:1"
         id="path870" /></g><g
       id="g872"><g
         id="g874"
         clip-path="url(#clipPath878)"><g
           id="g880"
           transform="translate(274.0258,404.8428)"><path
             d="m 0,0 c -13.007,0 -23.551,10.544 -23.551,23.551 0,13.007 10.544,23.551 23.551,23.551 13.007,0 23.551,-10.544 23.551,-23.551 C 23.551,10.544 13.007,0 0,0 Z m 52.977,15.666 v 15.77 L 36.96,33.203 c -0.893,3.429 -2.256,6.666 -4.007,9.649 L 43.036,55.436 31.885,66.587 19.301,56.504 c -2.983,1.751 -6.22,3.114 -9.649,4.007 L 7.885,76.528 H -7.885 L -9.652,60.511 c -3.429,-0.893 -6.666,-2.256 -9.649,-4.007 L -31.885,66.587 -43.036,55.436 -32.953,42.852 c -1.751,-2.983 -3.114,-6.22 -4.007,-9.649 l -16.017,-1.767 v -15.77 l 16.017,-1.767 c 0.893,-3.429 2.256,-6.666 4.007,-9.649 l -10.083,-12.584 11.151,-11.151 12.584,10.083 c 2.983,-1.751 6.22,-3.114 9.649,-4.007 l 1.767,-16.017 h 15.77 l 1.767,16.017 c 3.429,0.893 6.666,2.256 9.649,4.007 L 31.885,-19.485 43.036,-8.334 32.953,4.25 c 1.751,2.983 3.114,6.22 4.007,9.649 z"
             style="fill:none;stroke:#233239;stroke-width:1;stroke-linecap:round;stroke-linejoin:round;stroke-miterlimit:10;stroke-dasharray:none;stroke-opacity:1"
             id="path882" /></g><g
           id="g884"
           transform="translate(90.1479,175.9008)"><path
             d="m 0,0 c -2.928,-0.867 -6.029,-1.333 -9.238,-1.333 -17.933,0 -32.471,14.538 -32.471,32.471 0,17.933 14.538,32.471 32.471,32.471 17.933,0 32.471,-14.538 32.471,-32.471 0,-12.826 -7.437,-23.916 -18.234,-29.192 m -50.594,82.435 -7.604,6.093 -15.375,-15.375 13.902,-17.35 c -2.414,-4.112 -4.293,-8.575 -5.524,-13.303 L -82.28,42.009 V 20.267 l 22.084,-2.437 c 1.231,-4.728 3.11,-9.191 5.524,-13.303 l -4.751,-5.93 m -4.068,-5.077 -5.083,-6.343 15.375,-15.375 17.35,13.902 c 4.112,-2.414 8.576,-4.293 13.303,-5.524 l 2.437,-22.084 H 1.633 L 4.07,-19.82 c 4.728,1.231 9.191,3.11 13.303,5.524 l 17.35,-13.902 15.375,15.375 -13.902,17.35 c 2.414,4.112 4.293,8.575 5.524,13.303 l 22.084,2.437 V 42.009 L 41.72,44.446 c -1.231,4.728 -3.11,9.191 -5.524,13.303 L 50.098,75.099 34.723,90.474 17.373,76.572 C 13.261,78.986 8.798,80.865 4.07,82.096 L 1.633,104.18 h -21.742 l -2.437,-22.084 c -4.727,-1.231 -9.191,-3.11 -13.303,-5.524 l -5.788,4.637"
             style="fill:none;stroke:#233239;stroke-width:1;stroke-linecap:round;stroke-linejoin:round;stroke-miterlimit:10;stroke-dasharray:none;stroke-opacity:1"
             id="path886" /></g><g
           id="g888"
           transform="translate(191.1696,116.0537)"><path
             d="m 0,0 c -14.492,0 -26.241,11.748 -26.241,26.241 0,14.492 11.749,26.241 26.241,26.241 14.492,0 26.241,-11.749 26.241,-26.241 C 26.241,11.748 14.492,0 0,0 Z m 59.028,17.455 v 17.571 l -17.847,1.97 c -0.995,3.82 -2.514,7.427 -4.464,10.75 L 47.951,61.767 35.526,74.192 21.505,62.957 c -3.323,1.951 -6.93,3.47 -10.75,4.465 L 8.786,85.268 H -8.785 l -1.97,-17.846 c -3.82,-0.995 -7.427,-2.514 -10.75,-4.465 L -35.527,74.192 -47.951,61.767 -36.717,47.746 c -1.95,-3.323 -3.469,-6.93 -4.464,-10.75 l -17.847,-1.97 V 17.455 l 17.847,-1.969 c 0.995,-3.82 2.514,-7.427 4.464,-10.75 l -11.234,-14.022 12.424,-12.424 14.022,11.234 c 3.323,-1.95 6.93,-3.469 10.75,-4.464 l 1.97,-17.847 H 8.786 l 1.969,17.847 c 3.82,0.995 7.427,2.514 10.75,4.464 L 35.526,-21.71 47.951,-9.286 36.717,4.736 c 1.95,3.323 3.469,6.93 4.464,10.75 z"
             style="fill:none;stroke:#233239;stroke-width:1;stroke-linecap:round;stroke-linejoin:round;stroke-miterlimit:10;stroke-dasharray:none;stroke-opacity:1"
             id="path890" /></g></g></g><path
       d="m 622.669,365.623 h -76.572 v 99.722 h 76.572 z"
       style="fill:none;stroke:#233239;stroke-width:1;stroke-linecap:round;stroke-linejoin:round;stroke-miterlimit:10;stroke-dasharray:none;stroke-opacity:1"
       id="path892" /><path
       d="m 617.788,371.98 h -66.809 v 87.007 h 66.809 z"
       style="fill:none;stroke:#233239;stroke-width:1;stroke-linecap:round;stroke-linejoin:round;stroke-miterlimit:10;stroke-dasharray:none;stroke-opacity:1"
       id="path894" /><path
       d="m 604.353,389.476 h -39.94 v 52.014 h 39.94 z"
       style="fill:none;stroke:#233239;stroke-width:1;stroke-linecap:round;stroke-linejoin:round;stroke-miterlimit:10;stroke-dasharray:none;stroke-opacity:1"
       id="path896" /><path
       d="m 690.337,388.835 h -49.861 v 64.935 h 49.861 z"
       style="fill:none;stroke:#233239;stroke-width:1;stroke-linecap:round;stroke-linejoin:round;stroke-miterlimit:10;stroke-dasharray:none;stroke-opacity:1"
       id="path898" /><path
       d="m 686.416,393.941 h -42.018 v 54.721 h 42.018 z"
       style="fill:none;stroke:#233239;stroke-width:1;stroke-linecap:round;stroke-linejoin:round;stroke-miterlimit:10;stroke-dasharray:none;stroke-opacity:1"
       id="path900" /><path
       d="m 678.411,404.367 h -26.007 v 33.87 h 26.007 z"
       style="fill:none;stroke:#233239;stroke-width:1;stroke-linecap:round;stroke-linejoin:round;stroke-miterlimit:10;stroke-dasharray:none;stroke-opacity:1"
       id="path902" /><g
       id="g904"><g
         id="g906"
         clip-path="url(#clipPath910)"><g
           id="g912"
           transform="translate(697.2901,250.4544)"><path
             d="m 0,0 c 0,0 -11.351,-32.279 -27.313,-86.904 -15.962,-54.626 -13.833,-88.678 -13.833,-88.678"
             style="fill:none;stroke:#233239;stroke-width:3;stroke-linecap:round;stroke-linejoin:round;stroke-miterlimit:10;stroke-dasharray:none;stroke-opacity:1"
             id="path914" /></g><g
           id="g916"
           transform="translate(653.3059,277.7672)"><path
             d="m 0,0 c 0,0 -10.641,-56.044 -4.611,-88.678 6.03,-32.633 -4.966,-77.327 -4.966,-77.327"
             style="fill:none;stroke:#233239;stroke-width:3;stroke-linecap:round;stroke-linejoin:round;stroke-miterlimit:10;stroke-dasharray:none;stroke-opacity:1"
             id="path918" /></g><g
           id="g920"
           transform="translate(658.2909,297.8047)"><path
             d="m 0,0 c 0,0 0.237,9.405 -5.922,20.69 -6.16,11.285 -13.503,15.047 -13.503,15.047 0,0 9.238,-7.759 11.37,-14.577 2.133,-6.818 5.686,-19.514 5.686,-19.514 0,0 -4.027,13.636 -12.792,20.69 -8.766,7.053 -14.688,9.404 -14.688,9.404 0,0 10.66,-7.994 17.057,-15.282 6.396,-7.289 7.343,-15.753 7.343,-15.753 0,0 -8.291,13.402 -17.293,17.399 -9.002,3.997 -13.503,5.172 -13.503,5.172 0,0 10.187,-4.467 16.346,-9.875 6.159,-5.407 10.423,-14.106 10.423,-14.106 0,0 -9.239,7.758 -18.715,10.11 -9.476,2.351 -13.029,2.351 -13.029,2.351 0,0 8.055,-1.881 17.767,-7.054 9.713,-5.172 12.319,-9.874 12.319,-9.874 0,0 -6.396,3.761 -12.793,3.291 -6.396,-0.47 -19.662,-5.642 -19.662,-5.642 0,0 11.845,3.996 19.662,3.761 7.818,-0.235 13.267,-7.053 13.267,-7.053 0,0 -6.397,5.643 -17.294,0 -10.897,-5.643 -14.213,-12.931 -14.213,-12.931 0,0 7.106,7.288 16.109,9.875 9.001,2.586 13.503,-0.471 13.503,-0.471 0,0 -9.239,-2.821 -13.503,-9.169 -4.265,-6.348 -5.923,-19.279 -5.923,-19.279 0,0 2.606,14.342 8.054,18.574 5.449,4.232 13.977,5.877 13.977,5.877 0,0 -5.211,-1.88 -10.897,-8.934 -5.685,-7.053 -5.448,-24.451 -5.448,-24.451 0,0 1.421,14.341 5.211,19.984 3.791,5.643 10.897,9.169 10.897,9.169 0,0 -3.079,2.116 -4.974,-12.46 -1.896,-14.577 0.237,-25.157 0.237,-25.157 0,0 0.71,18.809 2.605,24.686 1.896,5.878 4.501,10.815 4.501,10.815 0,0 -2.369,-19.279 -1.421,-25.627 0.948,-6.348 2.606,-12.461 2.606,-12.461 0,0 -0.948,11.991 0.237,20.69 1.184,8.699 2.369,15.518 2.369,15.518 l 2.132,-15.988 -0.237,-20.22 2.843,19.044 -1.896,16.928 c 0,0 3.791,-4.702 5.686,-13.636 1.895,-8.934 1.895,-18.104 1.895,-18.104 0,0 1.658,15.048 0.474,21.631 -1.185,6.583 -2.606,12.225 -2.606,12.225 0,0 5.686,0 8.528,-13.871 2.843,-13.872 2.606,-20.22 2.606,-20.22 0,0 3.554,9.64 -0.71,22.101 -4.265,12.461 -5.923,15.047 -5.923,15.047 0,0 6.396,-0.705 12.082,-9.64 5.685,-8.934 6.159,-17.398 6.159,-17.398 0,0 -0.237,12.696 -4.501,20.22 -4.264,7.523 -13.266,9.404 -13.266,9.404 0,0 9.713,3.292 18.004,-5.172 8.291,-8.464 11.845,-18.104 11.845,-18.104 0,0 -5.449,16.223 -11.608,22.101 -6.159,5.877 -14.688,5.172 -14.688,5.172 0,0 9.239,2.586 17.057,1.411 7.817,-1.176 15.161,-9.875 15.161,-9.875 0,0 -3.316,9.875 -13.977,11.991 -10.66,2.116 -16.582,-1.646 -16.582,-1.646 0,0 9.712,9.169 18.951,7.994 9.239,-1.176 14.451,-5.408 14.451,-5.408 0,0 -9.239,8.229 -16.346,7.994 -7.107,-0.235 -17.056,-6.818 -17.056,-6.818 0,0 1.421,8.229 12.555,12.931 11.134,4.702 16.109,3.762 16.109,3.762 0,0 -14.688,-0.471 -22.979,-5.408 -8.291,-4.937 -9.713,-7.759 -9.713,-7.759 0,0 7.344,14.342 14.214,20.22 6.87,5.878 13.266,7.288 13.266,7.288 0,0 -12.318,-2.351 -18.478,-8.464 C 13.266,7.053 9.95,-0.705 9.95,-0.705 c 0,0 0.473,8.699 3.553,15.282 3.08,6.583 10.423,12.226 10.423,12.226 0,0 -7.817,-2.586 -12.318,-11.285 -4.501,-8.7 -6.87,-15.283 -6.87,-15.283 0,0 -1.422,8.229 3.08,19.75 4.5,11.52 6.159,15.752 6.159,15.752 0,0 -8.765,-11.285 -10.661,-20.219 C 1.421,6.583 0,0 0,0"
             style="fill:#75e6a4;fill-opacity:1;fill-rule:nonzero;stroke:none"
             id="path922" /></g><g
           id="g924"><g
             id="g926" /><g
             id="g938"><g
               clip-path="url(#clipPath930)"
               opacity="0.300003"
               id="g936"><g
                 transform="translate(658.2909,297.8047)"
                 id="g934"><path
                   d="m 0,0 c 0,0 0.237,9.405 -5.922,20.69 -6.16,11.285 -13.503,15.047 -13.503,15.047 0,0 9.238,-7.759 11.37,-14.577 2.133,-6.818 5.686,-19.514 5.686,-19.514 0,0 -4.027,13.636 -12.792,20.69 -8.766,7.053 -14.688,9.404 -14.688,9.404 0,0 10.66,-7.994 17.057,-15.282 6.396,-7.289 7.343,-15.753 7.343,-15.753 0,0 -8.291,13.402 -17.293,17.399 -9.002,3.997 -13.503,5.172 -13.503,5.172 0,0 10.187,-4.467 16.346,-9.875 6.159,-5.407 10.423,-14.106 10.423,-14.106 0,0 -9.239,7.758 -18.715,10.11 -9.476,2.351 -13.029,2.351 -13.029,2.351 0,0 8.055,-1.881 17.767,-7.054 9.713,-5.172 12.319,-9.874 12.319,-9.874 0,0 -6.396,3.761 -12.793,3.291 -6.396,-0.47 -19.662,-5.642 -19.662,-5.642 0,0 11.845,3.996 19.662,3.761 7.818,-0.235 13.267,-7.053 13.267,-7.053 0,0 -6.397,5.643 -17.294,0 -10.897,-5.643 -14.213,-12.931 -14.213,-12.931 0,0 7.106,7.288 16.109,9.875 9.001,2.586 13.503,-0.471 13.503,-0.471 0,0 -9.239,-2.821 -13.503,-9.169 -4.265,-6.348 -5.923,-19.279 -5.923,-19.279 0,0 2.606,14.342 8.054,18.574 5.449,4.232 13.977,5.877 13.977,5.877 0,0 -5.211,-1.88 -10.897,-8.934 -5.685,-7.053 -5.448,-24.451 -5.448,-24.451 0,0 1.421,14.341 5.211,19.984 3.791,5.643 10.897,9.169 10.897,9.169 0,0 -3.079,2.116 -4.974,-12.46 -1.896,-14.577 0.237,-25.157 0.237,-25.157 0,0 0.71,18.809 2.605,24.686 1.896,5.878 4.501,10.815 4.501,10.815 0,0 -2.369,-19.279 -1.421,-25.627 0.948,-6.348 2.606,-12.461 2.606,-12.461 0,0 -0.948,11.991 0.237,20.69 1.184,8.699 2.369,15.518 2.369,15.518 l 2.132,-15.988 -0.237,-20.22 2.843,19.044 -1.896,16.928 c 0,0 3.791,-4.702 5.686,-13.636 1.895,-8.934 1.895,-18.104 1.895,-18.104 0,0 1.658,15.048 0.474,21.631 -1.185,6.583 -2.606,12.225 -2.606,12.225 0,0 5.686,0 8.528,-13.871 2.843,-13.872 2.606,-20.22 2.606,-20.22 0,0 3.554,9.64 -0.71,22.101 -4.265,12.461 -5.923,15.047 -5.923,15.047 0,0 6.396,-0.705 12.082,-9.64 5.685,-8.934 6.159,-17.398 6.159,-17.398 0,0 -0.237,12.696 -4.501,20.22 -4.264,7.523 -13.266,9.404 -13.266,9.404 0,0 9.713,3.292 18.004,-5.172 8.291,-8.464 11.845,-18.104 11.845,-18.104 0,0 -5.449,16.223 -11.608,22.101 -6.159,5.877 -14.688,5.172 -14.688,5.172 0,0 9.239,2.586 17.057,1.411 7.817,-1.176 15.161,-9.875 15.161,-9.875 0,0 -3.316,9.875 -13.977,11.991 -10.66,2.116 -16.582,-1.646 -16.582,-1.646 0,0 9.712,9.169 18.951,7.994 9.239,-1.176 14.451,-5.408 14.451,-5.408 0,0 -9.239,8.229 -16.346,7.994 -7.107,-0.235 -17.056,-6.818 -17.056,-6.818 0,0 1.421,8.229 12.555,12.931 11.134,4.702 16.109,3.762 16.109,3.762 0,0 -14.688,-0.471 -22.979,-5.408 -8.291,-4.937 -9.713,-7.759 -9.713,-7.759 0,0 7.344,14.342 14.214,20.22 6.87,5.878 13.266,7.288 13.266,7.288 0,0 -12.318,-2.351 -18.478,-8.464 C 13.266,7.053 9.95,-0.705 9.95,-0.705 c 0,0 0.473,8.699 3.553,15.282 3.08,6.583 10.423,12.226 10.423,12.226 0,0 -7.817,-2.586 -12.318,-11.285 -4.501,-8.7 -6.87,-15.283 -6.87,-15.283 0,0 -1.422,8.229 3.08,19.75 4.5,11.52 6.159,15.752 6.159,15.752 0,0 -8.765,-11.285 -10.661,-20.219 C 1.421,6.583 0,0 0,0"
                   style="fill:#f9be0e;fill-opacity:1;fill-rule:nonzero;stroke:none"
                   id="path932" /></g></g></g></g><g
           id="g940"
           transform="translate(623.1555,234.4925)"><path
             d="m 0,0 c 0,0 0.709,-36.535 8.868,-67.395 8.158,-30.86 15.252,-72.716 12.415,-91.161"
             style="fill:none;stroke:#233239;stroke-width:3;stroke-linecap:round;stroke-linejoin:round;stroke-miterlimit:10;stroke-dasharray:none;stroke-opacity:1"
             id="path942" /></g><g
           id="g944"
           transform="translate(699.4682,267.9242)"><path
             d="m 0,0 c 0,0 0.237,9.404 -5.922,20.69 -6.16,11.285 -13.503,15.047 -13.503,15.047 0,0 9.238,-7.759 11.37,-14.577 2.133,-6.818 5.686,-19.514 5.686,-19.514 0,0 -4.027,13.636 -12.792,20.69 -8.765,7.053 -14.688,9.404 -14.688,9.404 0,0 10.66,-7.994 17.057,-15.282 6.396,-7.289 7.343,-15.753 7.343,-15.753 0,0 -8.291,13.402 -17.293,17.399 -9.002,3.996 -13.503,5.172 -13.503,5.172 0,0 10.186,-4.467 16.346,-9.875 6.159,-5.407 10.423,-14.106 10.423,-14.106 0,0 -9.239,7.758 -18.714,10.109 -9.476,2.352 -13.03,2.352 -13.03,2.352 0,0 8.055,-1.881 17.767,-7.054 9.713,-5.172 12.319,-9.874 12.319,-9.874 0,0 -6.396,3.761 -12.792,3.291 -6.397,-0.47 -19.663,-5.642 -19.663,-5.642 0,0 11.845,3.996 19.663,3.761 7.817,-0.235 13.266,-7.053 13.266,-7.053 0,0 -6.396,5.643 -17.294,0 -10.897,-5.643 -14.213,-12.931 -14.213,-12.931 0,0 7.107,7.288 16.108,9.875 9.003,2.586 13.504,-0.471 13.504,-0.471 0,0 -9.239,-2.821 -13.504,-9.169 -4.264,-6.348 -5.922,-19.279 -5.922,-19.279 0,0 2.606,14.341 8.055,18.574 5.448,4.232 13.976,5.877 13.976,5.877 0,0 -5.211,-1.88 -10.897,-8.934 -5.685,-7.053 -5.448,-24.451 -5.448,-24.451 0,0 1.421,14.341 5.211,19.984 3.791,5.643 10.897,9.169 10.897,9.169 0,0 -3.079,2.116 -4.974,-12.46 -1.895,-14.577 0.237,-25.157 0.237,-25.157 0,0 0.71,18.808 2.605,24.686 1.896,5.878 4.501,10.815 4.501,10.815 0,0 -2.369,-19.279 -1.421,-25.627 0.948,-6.348 2.606,-12.461 2.606,-12.461 0,0 -0.948,11.991 0.237,20.69 1.184,8.699 2.369,15.518 2.369,15.518 l 2.132,-15.988 -0.237,-20.22 2.843,19.044 -1.896,16.928 c 0,0 3.791,-4.702 5.686,-13.636 1.895,-8.934 1.895,-18.104 1.895,-18.104 0,0 1.659,15.048 0.474,21.631 -1.185,6.583 -2.606,12.225 -2.606,12.225 0,0 5.686,0 8.528,-13.871 2.843,-13.872 2.606,-20.22 2.606,-20.22 0,0 3.554,9.64 -0.71,22.101 -4.265,12.461 -5.923,15.047 -5.923,15.047 0,0 6.396,-0.705 12.082,-9.64 5.685,-8.934 6.159,-17.398 6.159,-17.398 0,0 -0.237,12.696 -4.501,20.219 -4.264,7.524 -13.266,9.405 -13.266,9.405 0,0 9.713,3.292 18.004,-5.172 8.291,-8.464 11.845,-18.104 11.845,-18.104 0,0 -5.449,16.223 -11.608,22.101 -6.159,5.877 -14.688,5.172 -14.688,5.172 0,0 9.239,2.586 17.057,1.411 7.818,-1.176 15.161,-9.875 15.161,-9.875 0,0 -3.316,9.875 -13.977,11.991 -10.66,2.116 -16.582,-1.646 -16.582,-1.646 0,0 9.712,9.169 18.951,7.994 9.239,-1.176 14.451,-5.408 14.451,-5.408 0,0 -9.239,8.229 -16.346,7.994 -7.107,-0.235 -17.056,-6.818 -17.056,-6.818 0,0 1.421,8.228 12.555,12.931 11.134,4.702 16.109,3.761 16.109,3.761 0,0 -14.687,-0.47 -22.979,-5.407 -8.291,-4.937 -9.713,-7.759 -9.713,-7.759 0,0 7.344,14.342 14.214,20.22 6.87,5.878 13.266,7.288 13.266,7.288 0,0 -12.318,-2.351 -18.478,-8.464 C 13.266,7.053 9.95,-0.705 9.95,-0.705 c 0,0 0.473,8.699 3.553,15.282 3.08,6.583 10.424,12.226 10.424,12.226 0,0 -7.818,-2.587 -12.319,-11.286 C 7.107,6.818 4.738,0.235 4.738,0.235 c 0,0 -1.421,8.229 3.08,19.749 4.501,11.521 6.159,15.753 6.159,15.753 0,0 -8.765,-11.285 -10.66,-20.22 C 1.421,6.583 0,0 0,0"
             style="fill:#f9be0e;fill-opacity:1;fill-rule:nonzero;stroke:none"
             id="path946" /></g><g
           id="g948"
           transform="translate(623.5601,249.834)"><path
             d="m 0,0 c 0,0 0.237,9.404 -5.922,20.69 -6.16,11.285 -13.503,15.047 -13.503,15.047 0,0 9.238,-7.759 11.371,-14.577 2.132,-6.818 5.685,-19.514 5.685,-19.514 0,0 -4.027,13.636 -12.792,20.689 -8.765,7.054 -14.688,9.405 -14.688,9.405 0,0 10.661,-7.994 17.057,-15.282 6.396,-7.289 7.343,-15.753 7.343,-15.753 0,0 -8.291,13.402 -17.293,17.399 -9.002,3.996 -13.503,5.172 -13.503,5.172 0,0 10.187,-4.467 16.346,-9.875 6.159,-5.407 10.423,-14.106 10.423,-14.106 0,0 -9.239,7.758 -18.715,10.109 -9.475,2.352 -13.029,2.352 -13.029,2.352 0,0 8.055,-1.881 17.767,-7.054 9.713,-5.172 12.319,-9.875 12.319,-9.875 0,0 -6.396,3.762 -12.792,3.292 -6.397,-0.47 -19.663,-5.643 -19.663,-5.643 0,0 11.845,3.997 19.663,3.762 7.817,-0.235 13.266,-7.053 13.266,-7.053 0,0 -6.396,5.642 -17.294,0 -10.897,-5.643 -14.213,-12.931 -14.213,-12.931 0,0 7.106,7.288 16.109,9.874 9.002,2.587 13.503,-0.47 13.503,-0.47 0,0 -9.239,-2.821 -13.503,-9.169 -4.265,-6.348 -5.923,-19.279 -5.923,-19.279 0,0 2.606,14.341 8.055,18.573 5.448,4.233 13.976,5.878 13.976,5.878 0,0 -5.211,-1.881 -10.897,-8.934 -5.685,-7.053 -5.448,-24.452 -5.448,-24.452 0,0 1.421,14.342 5.211,19.985 3.791,5.643 10.897,9.169 10.897,9.169 0,0 -3.079,2.116 -4.974,-12.461 -1.895,-14.577 0.237,-25.156 0.237,-25.156 0,0 0.71,18.808 2.605,24.686 1.896,5.878 4.502,10.815 4.502,10.815 0,0 -2.37,-19.279 -1.422,-25.627 0.948,-6.348 2.606,-12.461 2.606,-12.461 0,0 -0.948,11.991 0.237,20.69 1.184,8.699 2.369,15.517 2.369,15.517 l 2.132,-15.987 -0.237,-20.22 2.843,19.044 -1.895,16.928 c 0,0 3.79,-4.702 5.685,-13.636 1.895,-8.934 1.895,-18.104 1.895,-18.104 0,0 1.658,15.047 0.474,21.63 -1.184,6.584 -2.606,12.226 -2.606,12.226 0,0 5.686,0 8.528,-13.871 2.843,-13.872 2.606,-20.22 2.606,-20.22 0,0 3.554,9.64 -0.71,22.101 -4.265,12.46 -5.923,15.047 -5.923,15.047 0,0 6.396,-0.706 12.082,-9.64 5.685,-8.934 6.159,-17.398 6.159,-17.398 0,0 -0.237,12.696 -4.501,20.219 -4.264,7.524 -13.266,9.405 -13.266,9.405 0,0 9.713,3.291 18.004,-5.173 8.291,-8.463 11.845,-18.103 11.845,-18.103 0,0 -5.449,16.223 -11.608,22.1 -6.159,5.878 -14.688,5.173 -14.688,5.173 0,0 9.239,2.586 17.057,1.41 7.818,-1.175 15.161,-9.874 15.161,-9.874 0,0 -3.316,9.874 -13.977,11.991 -10.66,2.116 -16.582,-1.646 -16.582,-1.646 0,0 9.712,9.169 18.951,7.993 9.239,-1.175 14.451,-5.407 14.451,-5.407 0,0 -9.239,8.229 -16.346,7.994 -7.107,-0.235 -17.056,-6.818 -17.056,-6.818 0,0 1.421,8.228 12.555,12.931 11.134,4.702 16.109,3.761 16.109,3.761 0,0 -14.688,-0.47 -22.979,-5.407 -8.291,-4.938 -9.713,-7.759 -9.713,-7.759 0,0 7.344,14.342 14.214,20.22 6.87,5.877 13.266,7.288 13.266,7.288 0,0 -12.318,-2.351 -18.477,-8.464 C 13.266,7.053 9.95,-0.705 9.95,-0.705 c 0,0 0.473,8.699 3.553,15.282 3.08,6.583 10.424,12.226 10.424,12.226 0,0 -7.818,-2.587 -12.319,-11.286 C 7.107,6.818 4.738,0.235 4.738,0.235 c 0,0 -1.421,8.229 3.08,19.749 4.501,11.521 6.159,15.753 6.159,15.753 0,0 -8.765,-11.286 -10.66,-20.22 C 1.421,6.583 0,0 0,0"
             style="fill:#f9be0e;fill-opacity:1;fill-rule:nonzero;stroke:none"
             id="path950" /></g><path
           d="m 671.338,34.398 h -44.97 v 54.963 h 44.97 z"
           style="fill:#ffffff;fill-opacity:1;fill-rule:nonzero;stroke:#233239;stroke-width:1;stroke-linecap:butt;stroke-linejoin:miter;stroke-miterlimit:10;stroke-dasharray:none;stroke-opacity:1"
           id="path952" /></g></g><g
       id="g954"><g
         id="g956"
         clip-path="url(#clipPath960)"><g
           id="g962"
           transform="translate(440.4197,234.1602)"><path
             d="m 0,0 c 0,0 -90.959,9.995 -106.452,11.495 -15.493,1.499 -26.987,-6.997 -31.485,-20.991 -4.498,-13.993 1.999,-87.96 1.999,-87.96 h 351.34 c 0,0 10.003,79.184 2.499,96.956 C 208.405,21.99 155.929,4.498 102.953,1.499 49.977,-1.499 34.984,-2.499 0,0"
             style="fill:#bdbdbd;fill-opacity:1;fill-rule:nonzero;stroke:none"
             id="path964" /></g><g
           id="g966"
           transform="translate(440.4197,234.1602)"><path
             d="m 0,0 c 0,0 -90.959,9.995 -106.452,11.495 -15.493,1.499 -26.987,-6.997 -31.485,-20.991 -4.498,-13.993 1.999,-87.96 1.999,-87.96 h 351.34 c 0,0 10.003,79.184 2.499,96.956 C 208.405,21.99 155.929,4.498 102.953,1.499 49.977,-1.499 34.984,-2.499 0,0 Z"
             style="fill:none;stroke:#233239;stroke-width:1;stroke-linecap:round;stroke-linejoin:round;stroke-miterlimit:10;stroke-dasharray:none;stroke-opacity:1"
             id="path968" /></g><path
           d="m 320.841,34.77 h -13.87 v 11.633 h 13.87 z"
           style="fill:#233239;fill-opacity:1;fill-rule:nonzero;stroke:#233239;stroke-width:1;stroke-linecap:round;stroke-linejoin:round;stroke-miterlimit:10;stroke-dasharray:none;stroke-opacity:1"
           id="path970" /><path
           d="m 652.387,34.77 h -13.87 v 11.633 h 13.87 z"
           style="fill:#233239;fill-opacity:1;fill-rule:nonzero;stroke:#233239;stroke-width:1;stroke-linecap:round;stroke-linejoin:round;stroke-miterlimit:10;stroke-dasharray:none;stroke-opacity:1"
           id="path972" /><g
           id="g974"
           transform="translate(302.0485,116.173)"><path
             d="m 0,0 c 0,0 4.922,-45.608 2.685,-55.899 -2.237,-10.291 -3.132,-15.66 -0.448,-17.003 2.685,-1.342 349.891,0 349.891,0 0,0 8.004,-0.311 4.474,9.396 -1.789,4.922 -3.132,57.689 -2.684,59.479 C 354.365,-2.237 0,0 0,0"
             style="fill:#bdbdbd;fill-opacity:1;fill-rule:nonzero;stroke:none"
             id="path976" /></g><g
           id="g978"
           transform="translate(302.0485,116.173)"><path
             d="m 0,0 c 0,0 4.922,-45.608 2.685,-55.899 -2.237,-10.291 -3.132,-15.66 -0.448,-17.003 2.685,-1.342 349.891,0 349.891,0 0,0 8.004,-0.311 4.474,9.396 -1.789,4.922 -3.132,57.689 -2.684,59.479 C 354.365,-2.237 0,0 0,0 Z"
             style="fill:none;stroke:#233239;stroke-width:1;stroke-linecap:round;stroke-linejoin:round;stroke-miterlimit:10;stroke-dasharray:none;stroke-opacity:1"
             id="path980" /></g><g
           id="g982"
           transform="translate(656.1068,95.3716)"><path
             d="m 0,0 c -0.233,9.07 -0.299,16.139 -0.141,16.775 0.448,1.789 -353.917,4.026 -353.917,4.026 0,0 1.024,-9.497 1.926,-20.801 z"
             style="fill:#233239;fill-opacity:1;fill-rule:nonzero;stroke:none"
             id="path984" /></g><g
           id="g986"
           transform="translate(656.1068,95.3716)"><path
             d="m 0,0 c -0.233,9.07 -0.299,16.139 -0.141,16.775 0.448,1.789 -353.917,4.026 -353.917,4.026 0,0 1.024,-9.497 1.926,-20.801 z"
             style="fill:none;stroke:#233239;stroke-width:1;stroke-linecap:round;stroke-linejoin:round;stroke-miterlimit:10;stroke-dasharray:none;stroke-opacity:1"
             id="path988" /></g><g
           id="g990"
           transform="translate(650.824,101.7205)"><path
             d="m 0,0 c 0,0 14.993,-1 16.992,6.497 1.999,7.497 1,30.486 -7.496,33.485 -8.496,2.998 -200.409,-4.498 -252.885,1.499 -52.476,5.997 -97.44,6.687 -107.451,3.498 -14.783,-4.708 -15.993,-32.485 -1.999,-38.982 C -347.936,3.721 0,0 0,0"
             style="fill:#bdbdbd;fill-opacity:1;fill-rule:nonzero;stroke:none"
             id="path992" /></g><g
           id="g994"
           transform="translate(650.824,101.7205)"><path
             d="m 0,0 c 0,0 14.993,-1 16.992,6.497 1.999,7.497 1,30.486 -7.496,33.485 -8.496,2.998 -200.409,-4.498 -252.885,1.499 -52.476,5.997 -97.44,6.687 -107.451,3.498 -14.783,-4.708 -15.993,-32.485 -1.999,-38.982 C -347.936,3.721 0,0 0,0 Z"
             style="fill:none;stroke:#233239;stroke-width:1;stroke-linecap:round;stroke-linejoin:round;stroke-miterlimit:10;stroke-dasharray:none;stroke-opacity:1"
             id="path996" /></g></g></g><g
       id="g998"><g
         id="g1000"
         clip-path="url(#clipPath1004)"><g
           id="g1006"
           transform="translate(408.8989,284.1055)"><path
             d="m 0,0 c 0,0 -35.138,-14.99 -38.898,-18.75 -3.759,-3.759 -4.916,-86.185 -4.916,-86.185 l 79.533,-10.411 8.966,26.607 15.039,-1.157 c 0,0 4.724,55.345 2.121,59.973 -2.603,4.627 -31.042,28.526 -31.042,28.526 z"
             style="fill:#aa1d2c;fill-opacity:1;fill-rule:nonzero;stroke:none"
             id="path1008" /></g><g
           id="g1010"
           transform="translate(408.8989,284.1055)"><path
             d="m 0,0 c 0,0 -35.138,-14.99 -38.898,-18.75 -3.759,-3.759 -4.916,-86.185 -4.916,-86.185 l 79.533,-10.411 8.966,26.607 15.039,-1.157 c 0,0 4.724,55.345 2.121,59.973 -2.603,4.627 -31.042,28.526 -31.042,28.526 z"
             style="fill:none;stroke:#233239;stroke-width:1;stroke-linecap:round;stroke-linejoin:round;stroke-miterlimit:10;stroke-dasharray:none;stroke-opacity:1"
             id="path1012" /></g><g
           id="g1014"
           transform="translate(377.7796,70.1458)"><path
             d="m 0,0 c 0,0 -5.469,-6.381 -8.022,-8.568 -2.552,-2.188 -12.579,-6.017 -16.225,-12.215 -3.646,-6.199 -2.735,-11.121 3.646,-13.673 6.381,-2.552 14.585,-1.641 21.512,4.193 6.928,5.834 11.668,16.772 11.668,16.772 L 7.11,1.823 Z"
             style="fill:#8f8f8f;fill-opacity:1;fill-rule:nonzero;stroke:none"
             id="path1016" /></g><g
           id="g1018"
           transform="translate(377.7796,70.1458)"><path
             d="m 0,0 c 0,0 -5.469,-6.381 -8.022,-8.568 -2.552,-2.188 -12.579,-6.017 -16.225,-12.215 -3.646,-6.199 -2.735,-11.121 3.646,-13.673 6.381,-2.552 14.585,-1.641 21.512,4.193 6.928,5.834 11.668,16.772 11.668,16.772 L 7.11,1.823 Z"
             style="fill:none;stroke:#233239;stroke-width:1;stroke-linecap:round;stroke-linejoin:round;stroke-miterlimit:10;stroke-dasharray:none;stroke-opacity:1"
             id="path1020" /></g><g
           id="g1022"
           transform="translate(385.2179,177.0293)"><path
             d="m 0,0 24.149,-1.575 c 0,0 16.8,6.037 24.937,2.1 8.137,-3.937 12.6,-16.799 10.237,-27.299 -2.362,-10.5 -31.236,-72.448 -33.336,-77.173 -2.1,-4.725 -4.463,-11.812 -4.463,-11.812 0,0 -8.399,-0.525 -12.862,2.625 -4.462,3.15 -6.825,10.237 -6.825,10.237 l 16.538,69.036 -11.025,0.524 z"
             style="fill:#233239;fill-opacity:1;fill-rule:nonzero;stroke:none"
             id="path1024" /></g><g
           id="g1026"
           transform="translate(385.2179,177.0293)"><path
             d="m 0,0 24.149,-1.575 c 0,0 16.8,6.037 24.937,2.1 8.137,-3.937 12.6,-16.799 10.237,-27.299 -2.362,-10.5 -31.236,-72.448 -33.336,-77.173 -2.1,-4.725 -4.463,-11.812 -4.463,-11.812 0,0 -8.399,-0.525 -12.862,2.625 -4.462,3.15 -6.825,10.237 -6.825,10.237 l 16.538,69.036 -11.025,0.524 z"
             style="fill:none;stroke:#233239;stroke-width:1;stroke-linecap:round;stroke-linejoin:round;stroke-miterlimit:10;stroke-dasharray:none;stroke-opacity:1"
             id="path1028" /></g><g
           id="g1030"
           transform="translate(403.5924,143.1678)"><path
             d="M 0,0 C 0,0 2.887,21.262 6.562,26.774"
             style="fill:none;stroke:#878787;stroke-width:1;stroke-linecap:round;stroke-linejoin:round;stroke-miterlimit:10;stroke-dasharray:none;stroke-opacity:1"
             id="path1032" /></g><g
           id="g1034"
           transform="translate(409.3672,175.4544)"><path
             d="M 0,0 C 0,0 -9.655,-5.083 -10.968,-12.695"
             style="fill:none;stroke:#878787;stroke-width:1;stroke-linecap:round;stroke-linejoin:round;stroke-miterlimit:10;stroke-dasharray:none;stroke-opacity:1"
             id="path1036" /></g><g
           id="g1038"
           transform="translate(375.2071,268.5374)"><path
             d="m 0,0 c 0,0 -12.147,-5.784 -13.593,-10.701 -1.446,-4.917 -8.098,-67.676 -7.23,-70.857 0.867,-3.181 10.701,-7.809 10.701,-7.809 0,0 14.46,16.196 14.46,17.353 0,1.157 -0.867,46.852 -0.867,46.852"
             style="fill:#aa1d2c;fill-opacity:1;fill-rule:nonzero;stroke:#233239;stroke-width:1;stroke-linecap:round;stroke-linejoin:round;stroke-miterlimit:10;stroke-dasharray:none;stroke-opacity:1"
             id="path1040" /></g><g
           id="g1042"
           transform="translate(387.3541,196.2342)"><path
             d="m 0,0 c 0,0 -9.255,7.23 -12.147,6.363 -2.892,-0.868 -14.171,-17.064 -13.593,-19.956 0.579,-2.892 2.892,-4.917 7.23,-5.495 4.338,-0.578 7.52,0.289 8.677,2.024 C -8.676,-15.328 0,0 0,0"
             style="fill:#75e6a4;fill-opacity:1;fill-rule:nonzero;stroke:none"
             id="path1044" /></g><g
           id="g1046"
           transform="translate(387.3541,196.2342)"><path
             d="m 0,0 c 0,0 -9.255,7.23 -12.147,6.363 -2.892,-0.868 -14.171,-17.064 -13.593,-19.956 0.579,-2.892 2.892,-4.917 7.23,-5.495 4.338,-0.578 7.52,0.289 8.677,2.024 C -8.676,-15.328 0,0 0,0 Z"
             style="fill:#aa1d2c;stroke:#233239;stroke-width:1;stroke-linecap:round;stroke-linejoin:round;stroke-miterlimit:10;stroke-dasharray:none;stroke-opacity:1;fill-opacity:1"
             id="path1048" /></g><g
           id="g1050"
           transform="translate(372.0258,200.8616)"><path
             d="M 0,0 C 0,0 -13.015,-6.363 -15.328,-10.122"
             style="fill:none;stroke:#233239;stroke-width:1;stroke-linecap:round;stroke-linejoin:round;stroke-miterlimit:10;stroke-dasharray:none;stroke-opacity:1"
             id="path1052" /></g><g
           id="g1054"
           transform="translate(359.5897,197.1019)"><path
             d="M 0,0 C 0,0 5.206,4.917 10.412,5.206"
             style="fill:none;stroke:#233239;stroke-width:1;stroke-linecap:round;stroke-linejoin:round;stroke-miterlimit:10;stroke-dasharray:none;stroke-opacity:1"
             id="path1056" /></g><g
           id="g1058"
           transform="translate(381.2806,253.4983)"><path
             d="M 0,0 C 0,0 1.446,-6.941 -0.868,-17.353"
             style="fill:none;stroke:#233239;stroke-width:1;stroke-linecap:round;stroke-linejoin:round;stroke-miterlimit:10;stroke-dasharray:none;stroke-opacity:1"
             id="path1060" /></g><g
           id="g1062"
           transform="translate(410.1657,252.816)"><path
             d="M 0,0 C 0.976,-2.264 2.061,-4.451 3.218,-6.259"
             style="fill:none;stroke:#233239;stroke-width:1;stroke-linecap:round;stroke-linejoin:round;stroke-miterlimit:10;stroke-dasharray:none;stroke-opacity:1"
             id="path1064" /></g><g
           id="g1066"
           transform="translate(405.2852,267.0913)"><path
             d="M 0,0 C 0,0 1.268,-4.86 3.293,-10.302"
             style="fill:none;stroke:#233239;stroke-width:1;stroke-linecap:round;stroke-linejoin:round;stroke-miterlimit:10;stroke-dasharray:none;stroke-opacity:1"
             id="path1068" /></g><g
           id="g1070"
           transform="translate(400.6578,261.0178)"><path
             d="M 0,0 C 0,0 4.917,-14.461 6.941,-18.22"
             style="fill:none;stroke:#233239;stroke-width:1;stroke-linecap:round;stroke-linejoin:round;stroke-miterlimit:10;stroke-dasharray:none;stroke-opacity:1"
             id="path1072" /></g><g
           id="g1074"
           transform="translate(453.5838,245.9788)"><path
             d="M 0,0 C 0,0 0.289,-39.911 -0.579,-48.588"
             style="fill:none;stroke:#233239;stroke-width:1;stroke-linecap:round;stroke-linejoin:round;stroke-miterlimit:10;stroke-dasharray:none;stroke-opacity:1"
             id="path1076" /></g><g
           id="g1078"
           transform="translate(409.7518,284.9674)"><path
             d="m 0,0 c -3.67,-4.047 -7.491,-12.842 -6.145,-18.149 2.155,0.081 4.26,0.559 6.352,1.175 3.519,1.035 8.28,2.07 8.28,2.07 0,0 5.175,-2.691 7.879,-5.187 8,-7.387 18.2,12.269 14.684,18.642 C 27.738,4.554 22.977,5.589 22.977,5.589 22.977,5.589 8.076,8.9 0,0"
             style="fill:#75e6a4;fill-opacity:1;fill-rule:nonzero;stroke:none"
             id="path1080" /></g><g
           id="g1082"
           transform="translate(409.7518,284.9674)"><path
             d="m 0,0 c -3.67,-4.047 -7.491,-12.842 -6.145,-18.149 2.155,0.081 4.26,0.559 6.352,1.175 3.519,1.035 8.28,2.07 8.28,2.07 0,0 5.175,-2.691 7.879,-5.187 8,-7.387 18.2,12.269 14.684,18.642 C 27.738,4.554 22.977,5.589 22.977,5.589 22.977,5.589 8.076,8.9 0,0 Z"
             style="fill:#aa1d2c;stroke:#233239;stroke-width:1;stroke-linecap:round;stroke-linejoin:round;stroke-miterlimit:10;stroke-dasharray:none;stroke-opacity:1;fill-opacity:1"
             id="path1084" /></g><g
           id="g1086"
           transform="translate(408.7167,334.648)"><path
             d="m 0,0 c 0,0 -8.694,-5.382 -8.28,-9.522 0.414,-4.14 2.07,-3.519 -2.07,-6.21 -4.14,-2.691 -10.143,-4.347 -7.659,-6.831 2.484,-2.484 3.519,-3.726 3.519,-3.726 0,0 -0.828,-12.628 -1.035,-15.319 -0.207,-2.691 2.484,-4.347 4.554,-4.761 2.07,-0.414 8.694,-0.414 8.694,-0.414 0,0 8.487,-20.907 9.936,-20.7 1.449,0.207 18.63,15.111 19.665,17.802 1.035,2.691 -0.621,10.764 -0.621,10.764 0,0 14.905,12.007 16.354,18.01 1.449,6.003 -10.144,19.665 -18.424,25.875 -8.28,6.21 -20.7,7.866 -24.012,5.175 C -2.691,7.452 0,0 0,0"
             style="fill:#ffffff;fill-opacity:1;fill-rule:nonzero;stroke:none"
             id="path1088" /></g><g
           id="g1090"
           transform="translate(408.7167,334.648)"><path
             d="m 0,0 c 0,0 -8.694,-5.382 -8.28,-9.522 0.414,-4.14 2.07,-3.519 -2.07,-6.21 -4.14,-2.691 -10.143,-4.347 -7.659,-6.831 2.484,-2.484 3.519,-3.726 3.519,-3.726 0,0 -0.828,-12.628 -1.035,-15.319 -0.207,-2.691 2.484,-4.347 4.554,-4.761 2.07,-0.414 8.694,-0.414 8.694,-0.414 0,0 8.487,-20.907 9.936,-20.7 1.449,0.207 18.63,15.111 19.665,17.802 1.035,2.691 -0.621,10.764 -0.621,10.764 0,0 14.905,12.007 16.354,18.01 1.449,6.003 -10.144,19.665 -18.424,25.875 -8.28,6.21 -20.7,7.866 -24.012,5.175 C -2.691,7.452 0,0 0,0 Z"
             style="fill:none;stroke:#233239;stroke-width:1;stroke-linecap:round;stroke-linejoin:round;stroke-miterlimit:10;stroke-dasharray:none;stroke-opacity:1"
             id="path1092" /></g><g
           id="g1094"
           transform="translate(433.3501,339.6161)"><path
             d="m 0,0 c -8.28,6.21 -20.7,7.866 -24.012,5.175 -3.312,-2.691 -0.621,-10.143 -0.621,-10.143 0,0 15.318,-4.14 15.732,-7.038 0.414,-2.898 -3.312,-2.691 -2.484,-4.761 0.828,-2.07 4.761,-5.382 4.761,-5.382 0,0 -2.691,-6.417 -1.449,-7.866 1.242,-1.449 2.691,-2.691 3.105,-1.863 0.414,0.828 2.484,2.898 4.554,3.312 2.07,0.414 6.21,-2.07 4.347,-6.21 -1.863,-4.141 -7.245,-6.211 -7.245,-6.211 l 5.382,-2.898 c 0,0 14.904,12.007 16.353,18.01 C 19.872,-19.872 8.28,-6.21 0,0"
             style="fill:#233239;fill-opacity:1;fill-rule:nonzero;stroke:none"
             id="path1096" /></g><g
           id="g1098"
           transform="translate(433.3501,339.6161)"><path
             d="m 0,0 c -8.28,6.21 -20.7,7.866 -24.012,5.175 -3.312,-2.691 -0.621,-10.143 -0.621,-10.143 0,0 15.318,-4.14 15.732,-7.038 0.414,-2.898 -3.312,-2.691 -2.484,-4.761 0.828,-2.07 4.761,-5.382 4.761,-5.382 0,0 -2.691,-6.417 -1.449,-7.866 1.242,-1.449 2.691,-2.691 3.105,-1.863 0.414,0.828 2.484,2.898 4.554,3.312 2.07,0.414 6.21,-2.07 4.347,-6.21 -1.863,-4.141 -7.245,-6.211 -7.245,-6.211 l 5.382,-2.898 c 0,0 14.904,12.007 16.353,18.01 C 19.872,-19.872 8.28,-6.21 0,0 Z"
             style="fill:none;stroke:#233239;stroke-width:1;stroke-linecap:round;stroke-linejoin:round;stroke-miterlimit:10;stroke-dasharray:none;stroke-opacity:1"
             id="path1100" /></g><g
           id="g1102"
           transform="translate(407.0607,317.8808)"><path
             d="M 0,0 C -0.46,-1.292 -1.357,-2.154 -2.003,-1.923 -2.65,-1.693 -2.8,-0.459 -2.34,0.833 -1.88,2.126 -0.983,2.987 -0.337,2.757 0.309,2.527 0.46,1.292 0,0"
             style="fill:#233239;fill-opacity:1;fill-rule:nonzero;stroke:none"
             id="path1104" /></g><g
           id="g1106"
           transform="translate(404.1626,324.7119)"><path
             d="M 0,0 C 0,0 4.554,2.07 7.245,-2.277"
             style="fill:none;stroke:#233239;stroke-width:1;stroke-linecap:round;stroke-linejoin:round;stroke-miterlimit:10;stroke-dasharray:none;stroke-opacity:1"
             id="path1108" /></g><g
           id="g1110"
           transform="translate(406.4397,287.8654)"><path
             d="M 0,0 9.108,0.828 2.691,-6.003 Z"
             style="fill:#233239;fill-opacity:1;fill-rule:nonzero;stroke:none"
             id="path1112" /></g><g
           id="g1114"
           transform="translate(406.4397,287.8654)"><path
             d="M 0,0 9.108,0.828 2.691,-6.003 Z"
             style="fill:none;stroke:#233239;stroke-width:1;stroke-linecap:round;stroke-linejoin:round;stroke-miterlimit:10;stroke-dasharray:none;stroke-opacity:1"
             id="path1116" /></g><g
           id="g1118"
           transform="translate(398.7806,304.0116)"><path
             d="M 0,0 C 0,0 6.624,-1.242 9.936,2.691"
             style="fill:none;stroke:#233239;stroke-width:1;stroke-linecap:round;stroke-linejoin:round;stroke-miterlimit:10;stroke-dasharray:none;stroke-opacity:1"
             id="path1120" /></g><g
           id="g1122"
           transform="translate(387.3541,196.2342)"><path
             d="m 0,0 c 0,0 47.832,-9.314 49.914,-10.355 2.082,-1.041 7.634,-6.767 9.542,-8.675 1.909,-1.909 1.909,-6.073 2.603,-10.757 0.694,-4.685 -3.297,-10.757 -4.164,-10.931 -0.868,-0.173 -4.858,14.054 -6.073,15.268 -1.214,1.215 -8.154,7.634 -8.154,7.634 l -53.501,0.752 z"
             style="fill:#ffffff;fill-opacity:1;fill-rule:nonzero;stroke:none"
             id="path1124" /></g><g
           id="g1126"
           transform="translate(387.3541,196.2342)"><path
             d="m 0,0 c 0,0 47.832,-9.314 49.914,-10.355 2.082,-1.041 7.634,-6.767 9.542,-8.675 1.909,-1.909 1.909,-6.073 2.603,-10.757 0.694,-4.685 -3.297,-10.757 -4.164,-10.931 -0.868,-0.173 -4.858,14.054 -6.073,15.268 -1.214,1.215 -8.154,7.634 -8.154,7.634 l -53.501,0.752 z"
             style="fill:none;stroke:#233239;stroke-width:1;stroke-linecap:round;stroke-linejoin:round;stroke-miterlimit:10;stroke-dasharray:none;stroke-opacity:1"
             id="path1128" /></g><g
           id="g1130"
           transform="translate(379.6027,68.3227)"><path
             d="m 0,0 c 0,0 4.558,-14.038 8.386,-22.242 3.829,-8.203 13.126,-16.954 20.419,-16.59 7.292,0.365 12.032,2.188 8.75,12.762 -3.281,10.574 -12.761,20.783 -14.949,22.971 -2.188,2.188 -3.464,4.922 -3.464,4.922 l -0.911,1.823 z"
             style="fill:#8f8f8f;fill-opacity:1;fill-rule:nonzero;stroke:none"
             id="path1132" /></g><g
           id="g1134"
           transform="translate(379.6027,68.3227)"><path
             d="m 0,0 c 0,0 4.558,-14.038 8.386,-22.242 3.829,-8.203 13.126,-16.954 20.419,-16.59 7.292,0.365 12.032,2.188 8.75,12.762 -3.281,10.574 -12.761,20.783 -14.949,22.971 -2.188,2.188 -3.464,4.922 -3.464,4.922 l -0.911,1.823 z"
             style="fill:none;stroke:#233239;stroke-width:1;stroke-linecap:round;stroke-linejoin:round;stroke-miterlimit:10;stroke-dasharray:none;stroke-opacity:1"
             id="path1136" /></g><g
           id="g1138"
           transform="translate(363.1685,179.9167)"><path
             d="m 0,0 c 0,0 -11.737,-7.839 -12.655,-18.854 -0.568,-6.811 3.205,-13.695 12.13,-16.582 0,0 10.237,-64.049 10.5,-68.773 0.262,-4.725 1.575,-8.4 1.575,-8.4 0,0 5.774,-2.363 12.862,-1.05 7.087,1.312 16.274,5.512 16.274,5.512 0,0 -3.15,15.487 -3.412,17.85 -0.262,2.362 -0.787,53.548 -1.838,63.785 -1.049,10.237 -3.674,22.05 -13.912,25.987 C 11.287,3.412 7.612,2.887 0,0"
             style="fill:#233239;fill-opacity:1;fill-rule:nonzero;stroke:none"
             id="path1140" /></g><g
           id="g1142"
           transform="translate(363.1685,179.9167)"><path
             d="m 0,0 c 0,0 -11.737,-7.839 -12.655,-18.854 -0.568,-6.811 3.205,-13.695 12.13,-16.582 0,0 10.237,-64.049 10.5,-68.773 0.262,-4.725 1.575,-8.4 1.575,-8.4 0,0 5.774,-2.363 12.862,-1.05 7.087,1.312 16.274,5.512 16.274,5.512 0,0 -3.15,15.487 -3.412,17.85 -0.262,2.362 -0.787,53.548 -1.838,63.785 -1.049,10.237 -3.674,22.05 -13.912,25.987 C 11.287,3.412 7.612,2.887 0,0 Z"
             style="fill:none;stroke:#233239;stroke-width:1;stroke-linecap:round;stroke-linejoin:round;stroke-miterlimit:10;stroke-dasharray:none;stroke-opacity:1"
             id="path1144" /></g><g
           id="g1146"
           transform="translate(362.6436,144.4803)"><path
             d="M 0,0 C 0,0 -1.913,12.61 -1.062,22.259"
             style="fill:none;stroke:#233239;stroke-width:1;stroke-linecap:round;stroke-linejoin:round;stroke-miterlimit:10;stroke-dasharray:none;stroke-opacity:1"
             id="path1148" /></g><g
           id="g1150"
           transform="translate(561.888,274.4616)"><path
             d="m 0,0 c 0,0 -25.869,-7.202 -28.877,-10.46 -3.007,-3.259 -22.435,-32.645 -22.435,-32.645 l 8.705,-19.167 19.298,6.649 5.498,-18.825 c 0,0 0.28,-0.024 16.07,-3.783 15.79,-3.76 33.898,0.443 33.898,0.443 l 8.446,56.484 c 0,0 2.005,-0.251 -4.512,7.77 C 29.575,-5.514 0,0 0,0"
             style="fill:#ffffff;fill-opacity:1;fill-rule:nonzero;stroke:none"
             id="path1152" /></g><g
           id="g1154"
           transform="translate(561.888,274.4616)"><path
             d="m 0,0 c 0,0 -25.869,-7.202 -28.877,-10.46 -3.007,-3.259 -22.435,-32.645 -22.435,-32.645 l 8.705,-19.167 19.298,6.649 5.498,-18.825 c 0,0 0.28,-0.024 16.07,-3.783 15.79,-3.76 33.898,0.443 33.898,0.443 l 8.446,56.484 c 0,0 2.005,-0.251 -4.512,7.77 C 29.575,-5.514 0,0 0,0 Z"
             style="fill:none;stroke:#233239;stroke-width:1;stroke-linecap:round;stroke-linejoin:round;stroke-miterlimit:10;stroke-dasharray:none;stroke-opacity:1"
             id="path1156" /></g><g
           id="g1158"
           transform="translate(549.3789,253.5932)"><path
             d="M 0,0 C 0.039,-1.611 0.227,-3.186 0.634,-4.611"
             style="fill:none;stroke:#233239;stroke-width:1;stroke-linecap:round;stroke-linejoin:round;stroke-miterlimit:10;stroke-dasharray:none;stroke-opacity:1"
             id="path1160" /></g><g
           id="g1162"
           transform="translate(551.5719,267.4323)"><path
             d="M 0,0 C 0,0 -1.693,-5.199 -2.109,-10.814"
             style="fill:none;stroke:#233239;stroke-width:1;stroke-linecap:round;stroke-linejoin:round;stroke-miterlimit:10;stroke-dasharray:none;stroke-opacity:1"
             id="path1164" /></g><g
           id="g1166"
           transform="translate(565.0847,264.0541)"><path
             d="M 0,0 C 0,0 -5.977,-10.394 -9.095,-13.513"
             style="fill:none;stroke:#233239;stroke-width:1;stroke-linecap:round;stroke-linejoin:round;stroke-miterlimit:10;stroke-dasharray:none;stroke-opacity:1"
             id="path1168" /></g><g
           id="g1170"
           transform="translate(535.5967,234.2445)"><path
             d="M 0,0 C -0.235,1.566 -0.457,3.196 -0.656,4.863"
             style="fill:none;stroke:#233239;stroke-width:1;stroke-linecap:round;stroke-linejoin:round;stroke-miterlimit:10;stroke-dasharray:none;stroke-opacity:1"
             id="path1172" /></g><g
           id="g1174"
           transform="translate(538.5788,218.8382)"><path
             d="M 0,0 C 0,0 -1.131,4.525 -2.257,10.951"
             style="fill:none;stroke:#233239;stroke-width:1;stroke-linecap:round;stroke-linejoin:round;stroke-miterlimit:10;stroke-dasharray:none;stroke-opacity:1"
             id="path1176" /></g><g
           id="g1178"
           transform="translate(481.6953,239.4477)"><path
             d="m 0,0 c 0,0 -17.197,-8.107 -22.602,-12.284 -5.405,-4.176 -6.879,-73.948 -6.879,-73.948 l 56.997,-2.211 c 0,0 9.089,70.509 4.667,76.405 C 27.761,-6.142 6.879,0 0,0"
             style="fill:#233239;fill-opacity:1;fill-rule:nonzero;stroke:none"
             id="path1180" /></g><g
           id="g1182"
           transform="translate(481.6953,239.4477)"><path
             d="m 0,0 c 0,0 -17.197,-8.107 -22.602,-12.284 -5.405,-4.176 -6.879,-73.948 -6.879,-73.948 l 56.997,-2.211 c 0,0 9.089,70.509 4.667,76.405 C 27.761,-6.142 6.879,0 0,0 Z"
             style="fill:none;stroke:#233239;stroke-width:1;stroke-linecap:round;stroke-linejoin:round;stroke-miterlimit:10;stroke-dasharray:none;stroke-opacity:1"
             id="path1184" /></g><g
           id="g1186"
           transform="translate(446.0888,140.4978)"><path
             d="M 0,0 H 64.063 L 53.312,17.771 6.887,17.843 Z"
             style="fill:#75e6a4;fill-opacity:1;fill-rule:nonzero;stroke:none"
             id="path1188" /></g><g
           id="g1190"
           transform="translate(446.0888,140.4978)"><path
             d="M 0,0 H 64.063 L 53.312,17.771 6.887,17.843 Z"
             style="fill:#aa1d2c;stroke:#233239;stroke-width:1;stroke-linecap:round;stroke-linejoin:round;stroke-miterlimit:10;stroke-dasharray:none;stroke-opacity:1;fill-opacity:1"
             id="path1192" /></g><g
           id="g1194"
           transform="translate(480.2773,241.1867)"><path
             d="m 0,0 c 0,0 -2.633,-1.404 -4.564,-2.809 -1.932,-1.404 -4.214,-9.129 -4.916,-11.587 -0.702,-2.457 0.351,-3.335 2.107,-2.633 1.755,0.702 9.655,4.74 9.655,4.74 0,0 9.129,-8.426 10.182,-8.602 1.054,-0.176 2.283,-1.58 3.687,1.229 1.405,2.809 5.793,8.426 5.793,11.762 0,3.336 -1.58,6.847 -4.213,7.9 C 15.098,1.053 3.687,1.931 0,0"
             style="fill:#ffffff;fill-opacity:1;fill-rule:nonzero;stroke:none"
             id="path1196" /></g><g
           id="g1198"
           transform="translate(480.2773,241.1867)"><path
             d="m 0,0 c 0,0 -2.633,-1.404 -4.564,-2.809 -1.932,-1.404 -4.214,-9.129 -4.916,-11.587 -0.702,-2.457 0.351,-3.335 2.107,-2.633 1.755,0.702 9.655,4.74 9.655,4.74 0,0 9.129,-8.426 10.182,-8.602 1.054,-0.176 2.283,-1.58 3.687,1.229 1.405,2.809 5.793,8.426 5.793,11.762 0,3.336 -1.58,6.847 -4.213,7.9 C 15.098,1.053 3.687,1.931 0,0 Z"
             style="fill:none;stroke:#233239;stroke-width:1;stroke-linecap:round;stroke-linejoin:round;stroke-miterlimit:10;stroke-dasharray:none;stroke-opacity:1"
             id="path1200" /></g><g
           id="g1202"
           transform="translate(476.1063,289.3495)"><path
             d="m 0,0 c 0,0 -5.107,-3.106 -6.998,-10.703 -0.757,-3.042 -0.206,-6.38 -1.441,-8.644 -1.235,-2.265 -6.586,-3.911 -6.38,-6.587 0.206,-2.676 2.675,-3.499 2.675,-3.499 0,0 1.029,-9.674 2.059,-12.349 1.029,-2.676 2.058,-3.499 4.939,-3.499 2.882,0 6.175,0.205 6.175,0.205 0,0 2.882,-15.436 4.117,-17.495 1.235,-2.058 2.264,-1.852 3.499,-0.617 1.235,1.235 13.378,12.967 13.378,12.967 0,0 -0.411,7.615 0.618,8.85 1.029,1.235 8.644,6.381 11.526,11.938 2.881,5.557 4.895,19.622 -1.647,25.522 C 22.023,5.557 8.233,3.293 5.352,2.47 2.47,1.647 0,0 0,0"
             style="fill:#ffffff;fill-opacity:1;fill-rule:nonzero;stroke:none"
             id="path1204" /></g><g
           id="g1206"
           transform="translate(476.1063,289.3495)"><path
             d="m 0,0 c 0,0 -5.107,-3.106 -6.998,-10.703 -0.757,-3.042 -0.206,-6.38 -1.441,-8.644 -1.235,-2.265 -6.586,-3.911 -6.38,-6.587 0.206,-2.676 2.675,-3.499 2.675,-3.499 0,0 1.029,-9.674 2.059,-12.349 1.029,-2.676 2.058,-3.499 4.939,-3.499 2.882,0 6.175,0.205 6.175,0.205 0,0 2.882,-15.436 4.117,-17.495 1.235,-2.058 2.264,-1.852 3.499,-0.617 1.235,1.235 13.378,12.967 13.378,12.967 0,0 -0.411,7.615 0.618,8.85 1.029,1.235 8.644,6.381 11.526,11.938 2.881,5.557 4.895,19.622 -1.647,25.522 C 22.023,5.557 8.233,3.293 5.352,2.47 2.47,1.647 0,0 0,0 Z"
             style="fill:none;stroke:#233239;stroke-width:1;stroke-linecap:round;stroke-linejoin:round;stroke-miterlimit:10;stroke-dasharray:none;stroke-opacity:1"
             id="path1208" /></g><g
           id="g1210"
           transform="translate(510.2733,259.9165)"><path
             d="m 0,0 c 2.882,5.557 4.895,19.622 -1.647,25.522 -10.497,9.468 -24.287,7.204 -27.168,6.381 -2.882,-0.823 -5.352,-2.47 -5.352,-2.47 0,0 11.938,-0.206 14.614,-3.911 2.675,-3.704 -3.294,-6.998 -3.499,-9.262 -0.206,-2.264 3.499,-5.351 3.293,-7.204 -0.206,-1.852 -2.882,-3.91 -1.235,-4.734 1.646,-0.823 3.911,2.676 5.969,1.853 2.058,-0.823 5.145,-4.94 3.705,-8.439 -1.441,-3.499 -6.587,-4.734 -6.587,-4.734 0,0 2.882,-4.322 6.381,-4.94 C -10.497,-10.703 -2.882,-5.557 0,0"
             style="fill:#233239;fill-opacity:1;fill-rule:nonzero;stroke:none"
             id="path1212" /></g><g
           id="g1214"
           transform="translate(510.2733,259.9165)"><path
             d="m 0,0 c 2.882,5.557 4.895,19.622 -1.647,25.522 -10.497,9.468 -24.287,7.204 -27.168,6.381 -2.882,-0.823 -5.352,-2.47 -5.352,-2.47 0,0 11.938,-0.206 14.614,-3.911 2.675,-3.704 -3.294,-6.998 -3.499,-9.262 -0.206,-2.264 3.499,-5.351 3.293,-7.204 -0.206,-1.852 -2.882,-3.91 -1.235,-4.734 1.646,-0.823 3.911,2.676 5.969,1.853 2.058,-0.823 5.145,-4.94 3.705,-8.439 -1.441,-3.499 -6.587,-4.734 -6.587,-4.734 0,0 2.882,-4.322 6.381,-4.94 C -10.497,-10.703 -2.882,-5.557 0,0 Z"
             style="fill:none;stroke:#233239;stroke-width:1;stroke-linecap:round;stroke-linejoin:round;stroke-miterlimit:10;stroke-dasharray:none;stroke-opacity:1"
             id="path1216" /></g><g
           id="g1218"
           transform="translate(473.8376,270.1689)"><path
             d="m 0,0 c -0.345,-1.363 -1.235,-2.313 -1.987,-2.122 -0.752,0.19 -1.081,1.45 -0.736,2.812 0.346,1.363 1.236,2.313 1.987,2.123 C 0.016,2.622 0.346,1.363 0,0"
             style="fill:#233239;fill-opacity:1;fill-rule:nonzero;stroke:none"
             id="path1220" /></g><g
           id="g1222"
           transform="translate(467.6373,256.9867)"><path
             d="M 0,0 C 0,0 4.213,-0.702 7.022,3.16"
             style="fill:none;stroke:#233239;stroke-width:1;stroke-linecap:round;stroke-linejoin:round;stroke-miterlimit:10;stroke-dasharray:none;stroke-opacity:1"
             id="path1224" /></g><g
           id="g1226"
           transform="translate(470.9728,277.1755)"><path
             d="M 0,0 C 0,0 2.458,2.107 4.389,-0.702"
             style="fill:none;stroke:#233239;stroke-width:1;stroke-linecap:round;stroke-linejoin:round;stroke-miterlimit:10;stroke-dasharray:none;stroke-opacity:1"
             id="path1228" /></g><g
           id="g1230"
           transform="translate(444.5984,199.8941)"><path
             d="m 0,0 c 0,0 -2.211,-20.145 -0.246,-25.55 1.966,-5.405 18.917,-25.305 19.654,-25.796 0.737,-0.491 2.211,-4.177 6.388,-5.159 4.176,-0.983 10.809,1.72 10.809,5.405 0,3.685 -14.494,10.072 -14.494,10.072 0,0 -5.159,12.284 -6.388,15.232 -1.228,2.948 -2.702,5.896 -2.702,5.896 l 2.702,14.741 z"
             style="fill:#ffffff;fill-opacity:1;fill-rule:nonzero;stroke:none"
             id="path1232" /></g><g
           id="g1234"
           transform="translate(444.5984,199.8941)"><path
             d="m 0,0 c 0,0 -2.211,-20.145 -0.246,-25.55 1.966,-5.405 18.917,-25.305 19.654,-25.796 0.737,-0.491 2.211,-4.177 6.388,-5.159 4.176,-0.983 10.809,1.72 10.809,5.405 0,3.685 -14.494,10.072 -14.494,10.072 0,0 -5.159,12.284 -6.388,15.232 -1.228,2.948 -2.702,5.896 -2.702,5.896 l 2.702,14.741 z"
             style="fill:none;stroke:#233239;stroke-width:1;stroke-linecap:round;stroke-linejoin:round;stroke-miterlimit:10;stroke-dasharray:none;stroke-opacity:1"
             id="path1236" /></g><g
           id="g1238"
           transform="translate(465.7264,230.8491)"><path
             d="m 0,0 c 0,0 -8.844,-1.72 -13.021,-7.37 -4.176,-5.651 -8.107,-23.585 -8.107,-23.585 l 17.221,-5.684 3.17,12.317"
             style="fill:#233239;fill-opacity:1;fill-rule:nonzero;stroke:#233239;stroke-width:1;stroke-linecap:round;stroke-linejoin:round;stroke-miterlimit:10;stroke-dasharray:none;stroke-opacity:1"
             id="path1240" /></g><g
           id="g1242"
           transform="translate(513.8786,227.4096)"><path
             d="m 0,0 c 0,0 2.457,-0.983 4.422,-5.896 1.966,-4.914 1.966,-33.903 2.211,-39.062 0.246,-5.16 -0.737,-8.845 -0.737,-8.845 3.922,-0.857 -22.554,-18.996 -28.744,-19.899 -2.967,-0.433 -7.124,-9.827 -10.564,-11.793 -3.439,-1.965 -8.844,-1.474 -10.809,-0.982 -1.966,0.491 -6.388,5.404 -5.405,5.896 0.983,0.491 4.422,-0.492 6.142,-0.492 1.719,0 5.65,4.914 5.65,6.388 0,1.474 -5.159,4.176 -6.633,3.685 -1.474,-0.491 -6.633,-1.965 -6.142,-0.491 0.491,1.474 7.37,4.668 8.599,5.405 1.228,0.737 10.072,-2.457 10.809,-2.703 0.737,-0.246 7.862,4.914 7.862,4.914 l 16.214,16.214 -2.702,24.568"
             style="fill:#ffffff;fill-opacity:1;fill-rule:nonzero;stroke:#233239;stroke-width:1;stroke-linecap:round;stroke-linejoin:round;stroke-miterlimit:10;stroke-dasharray:none;stroke-opacity:1"
             id="path1244" /></g><g
           id="g1246"
           transform="translate(470.4239,155.8055)"><path
             d="m 0,0 c 0,0 3.751,0.834 4.48,0.729 0.73,-0.104 2.501,-2.813 3.335,-3.334 0.833,-0.521 2.837,-2.033 2.42,-2.762 -0.417,-0.729 -0.834,-1.146 -2.292,-0.729 -1.459,0.416 -4.4,2.553 -4.4,2.553"
             style="fill:#ffffff;fill-opacity:1;fill-rule:nonzero;stroke:#233239;stroke-width:1;stroke-linecap:round;stroke-linejoin:round;stroke-miterlimit:10;stroke-dasharray:none;stroke-opacity:1"
             id="path1248" /></g><g
           id="g1250"
           transform="translate(509.3244,230.0313)"><path
             d="m 0,0 c 1.953,0 8.647,-3.068 10.6,-11.158 1.953,-8.09 1.674,-20.085 1.674,-20.085 l -16.737,-2.51 -1.674,11.716"
             style="fill:#233239;fill-opacity:1;fill-rule:nonzero;stroke:#233239;stroke-width:1;stroke-linecap:round;stroke-linejoin:round;stroke-miterlimit:10;stroke-dasharray:none;stroke-opacity:1"
             id="path1252" /></g><g
           id="g1254"
           transform="translate(477.2577,72.9861)"><path
             d="m 0,0 c 0,0 -2.491,-8.855 -3.321,-11.069 -0.83,-2.214 -4.289,-9.132 -5.119,-14.39 -0.831,-5.258 0.83,-12.592 5.258,-13.145 4.427,-0.554 7.748,1.799 10.654,10.793 2.905,8.993 2.629,20.339 2.905,21.584 C 10.654,-4.981 0,0 0,0"
             style="fill:#ffffff;fill-opacity:1;fill-rule:nonzero;stroke:none"
             id="path1256" /></g><g
           id="g1258"
           transform="translate(477.2577,72.9861)"><path
             d="m 0,0 c 0,0 -2.491,-8.855 -3.321,-11.069 -0.83,-2.214 -4.289,-9.132 -5.119,-14.39 -0.831,-5.258 0.83,-12.592 5.258,-13.145 4.427,-0.554 7.748,1.799 10.654,10.793 2.905,8.993 2.629,20.339 2.905,21.584 C 10.654,-4.981 0,0 0,0 Z"
             style="fill:none;stroke:#233239;stroke-width:1;stroke-linecap:round;stroke-linejoin:round;stroke-miterlimit:10;stroke-dasharray:none;stroke-opacity:1"
             id="path1260" /></g><g
           id="g1262"
           transform="translate(484.7294,45.1746)"><path
             d="M 0,0 C 1.67,5.169 2.287,11.105 2.564,15.463 L 1.522,14.667 c 0,0 -1.66,4.843 -4.428,6.088 -2.473,1.113 -6.264,-0.975 -7.043,-1.432 -0.34,-1.104 -0.641,-2.041 -0.844,-2.581 -0.83,-2.214 -4.289,-9.132 -5.119,-14.39 -0.83,-5.258 0.83,-12.591 5.258,-13.145 C -6.226,-11.346 -2.906,-8.994 0,0"
             style="fill:#233239;fill-opacity:1;fill-rule:nonzero;stroke:none"
             id="path1264" /></g><g
           id="g1266"
           transform="translate(484.7294,45.1746)"><path
             d="M 0,0 C 1.67,5.169 2.287,11.105 2.564,15.463 L 1.522,14.667 c 0,0 -1.66,4.843 -4.428,6.088 -2.473,1.113 -6.264,-0.975 -7.043,-1.432 -0.34,-1.104 -0.641,-2.041 -0.844,-2.581 -0.83,-2.214 -4.289,-9.132 -5.119,-14.39 -0.83,-5.258 0.83,-12.591 5.258,-13.145 C -6.226,-11.346 -2.906,-8.994 0,0 Z"
             style="fill:none;stroke:#233239;stroke-width:1;stroke-linecap:round;stroke-linejoin:round;stroke-miterlimit:10;stroke-dasharray:none;stroke-opacity:1"
             id="path1268" /></g><g
           id="g1270"
           transform="translate(453.5972,66.2062)"><path
             d="m 0,0 c 0,0 4.566,-16.189 6.503,-20.201 1.937,-4.013 5.811,-9.686 10.101,-11.208 4.289,-1.522 7.887,-0.969 9.409,1.66 1.522,2.629 3.874,6.504 0.138,11.623 -3.736,5.12 -10.793,12.038 -11.623,13.422 -0.83,1.383 -1.66,6.779 -1.66,6.779 z"
             style="fill:#ffffff;fill-opacity:1;fill-rule:nonzero;stroke:none"
             id="path1272" /></g><g
           id="g1274"
           transform="translate(453.5972,66.2062)"><path
             d="m 0,0 c 0,0 4.566,-16.189 6.503,-20.201 1.937,-4.013 5.811,-9.686 10.101,-11.208 4.289,-1.522 7.887,-0.969 9.409,1.66 1.522,2.629 3.874,6.504 0.138,11.623 -3.736,5.12 -10.793,12.038 -11.623,13.422 -0.83,1.383 -1.66,6.779 -1.66,6.779 z"
             style="fill:none;stroke:#233239;stroke-width:1;stroke-linecap:round;stroke-linejoin:round;stroke-miterlimit:10;stroke-dasharray:none;stroke-opacity:1"
             id="path1276" /></g><g
           id="g1278"
           transform="translate(461.8991,61.7785)"><path
             d="m 0,0 c -1.937,-1.66 -3.736,-4.704 -3.736,-4.704 l -2.374,1.637 c 1.448,-4.806 3.264,-10.537 4.311,-12.707 1.937,-4.012 5.812,-9.685 10.101,-11.207 4.289,-1.522 7.887,-0.969 9.409,1.66 1.522,2.629 3.874,6.503 0.138,11.623 C 14.113,-8.579 7.057,-1.66 6.227,-0.277 6.227,-0.277 1.937,1.66 0,0"
             style="fill:#233239;fill-opacity:1;fill-rule:nonzero;stroke:none"
             id="path1280" /></g><g
           id="g1282"
           transform="translate(461.8991,61.7785)"><path
             d="m 0,0 c -1.937,-1.66 -3.736,-4.704 -3.736,-4.704 l -2.374,1.637 c 1.448,-4.806 3.264,-10.537 4.311,-12.707 1.937,-4.012 5.812,-9.685 10.101,-11.207 4.289,-1.522 7.887,-0.969 9.409,1.66 1.522,2.629 3.874,6.503 0.138,11.623 C 14.113,-8.579 7.057,-1.66 6.227,-0.277 6.227,-0.277 1.937,1.66 0,0 Z"
             style="fill:none;stroke:#233239;stroke-width:1;stroke-linecap:round;stroke-linejoin:round;stroke-miterlimit:10;stroke-dasharray:none;stroke-opacity:1"
             id="path1284" /></g><g
           id="g1286"
           transform="translate(452.9761,158.3406)"><path
             d="m 0,0 c 0,0 -9.205,0.279 -12.832,-6.974 -3.626,-7.253 -2.789,-18.969 -0.558,-25.942 2.232,-6.974 11.716,-59.975 11.716,-59.975 0,0 1.674,-1.116 6.416,-1.116 4.742,0 11.158,3.627 11.158,3.627 l -1.916,66.989 c 0,0 -1.895,14.272 -4.684,18.735 C 6.51,-0.192 0,0 0,0"
             style="fill:#75e6a4;fill-opacity:1;fill-rule:nonzero;stroke:none"
             id="path1288" /></g><g
           id="g1290"
           transform="translate(452.9761,158.3406)"><path
             d="m 0,0 c 0,0 -9.205,0.279 -12.832,-6.974 -3.626,-7.253 -2.789,-18.969 -0.558,-25.942 2.232,-6.974 11.716,-59.975 11.716,-59.975 0,0 1.674,-1.116 6.416,-1.116 4.742,0 11.158,3.627 11.158,3.627 l -1.916,66.989 c 0,0 -1.895,14.272 -4.684,18.735 C 6.51,-0.192 0,0 0,0 Z"
             style="fill:#aa1d2c;stroke:#233239;stroke-width:1;stroke-linecap:round;stroke-linejoin:round;stroke-miterlimit:10;stroke-dasharray:none;stroke-opacity:1;fill-opacity:1"
             id="path1292" /></g><g
           id="g1294"
           transform="translate(468.6794,74.8462)"><path
             d="m 0,0 c -7.382,-3.274 -14.976,-3.019 -18.599,-2.631 0.753,-4.146 1.222,-6.765 1.222,-6.765 0,0 1.674,-1.116 6.416,-1.116 4.742,0 11.158,3.626 11.158,3.626 z"
             style="fill:#ffffff;fill-opacity:1;fill-rule:nonzero;stroke:none"
             id="path1296" /></g><g
           id="g1298"
           transform="translate(468.6794,74.8462)"><path
             d="m 0,0 c -7.382,-3.274 -14.976,-3.019 -18.599,-2.631 0.753,-4.146 1.222,-6.765 1.222,-6.765 0,0 1.674,-1.116 6.416,-1.116 4.742,0 11.158,3.626 11.158,3.626 z"
             style="fill:none;stroke:#233239;stroke-width:1;stroke-linecap:round;stroke-linejoin:round;stroke-miterlimit:10;stroke-dasharray:none;stroke-opacity:1"
             id="path1300" /></g><g
           id="g1302"
           transform="translate(502.6476,158.6283)"><path
             d="m 0,0 c 0,0 9.158,-0.977 11.763,-8.655 2.606,-7.679 0.182,-19.172 -2.978,-25.777 -3.16,-6.606 -19.769,-57.822 -19.769,-57.822 0,0 -1.81,-0.878 -6.508,-0.233 -4.698,0.646 -10.561,5.112 -10.561,5.112 l 11.016,66.105 c 0,0 3.819,13.881 7.19,17.923 C -6.476,0.696 0,0 0,0"
             style="fill:#aa1d2c;fill-opacity:1;fill-rule:nonzero;stroke:none"
             id="path1304" /></g><g
           id="g1306"
           transform="translate(502.6476,158.6283)"><path
             d="m 0,0 c 0,0 9.158,-0.977 11.763,-8.655 2.606,-7.679 0.182,-19.172 -2.978,-25.777 -3.16,-6.606 -19.769,-57.822 -19.769,-57.822 0,0 -1.81,-0.878 -6.508,-0.233 -4.698,0.646 -10.561,5.112 -10.561,5.112 l 11.016,66.105 c 0,0 3.819,13.881 7.19,17.923 C -6.476,0.696 0,0 0,0 Z"
             style="fill:none;stroke:#233239;stroke-width:1;stroke-linecap:round;stroke-linejoin:round;stroke-miterlimit:10;stroke-dasharray:none;stroke-opacity:1"
             id="path1308" /></g><g
           id="g1310"
           transform="translate(475.7271,78.0479)"><path
             d="m 0,0 c 6.868,-4.248 14.426,-5.029 18.067,-5.137 -1.309,-4.005 -2.13,-6.537 -2.13,-6.537 0,0 -1.81,-0.878 -6.509,-0.232 -4.698,0.645 -10.56,5.111 -10.56,5.111 z"
             style="fill:#ffffff;fill-opacity:1;fill-rule:nonzero;stroke:none"
             id="path1312" /></g><g
           id="g1314"
           transform="translate(475.7271,78.0479)"><path
             d="m 0,0 c 6.868,-4.248 14.426,-5.029 18.067,-5.137 -1.309,-4.005 -2.13,-6.537 -2.13,-6.537 0,0 -1.81,-0.878 -6.509,-0.232 -4.698,0.645 -10.56,5.111 -10.56,5.111 z"
             style="fill:none;stroke:#233239;stroke-width:1;stroke-linecap:round;stroke-linejoin:round;stroke-miterlimit:10;stroke-dasharray:none;stroke-opacity:1"
             id="path1316" /></g><g
           id="g1318"
           transform="translate(528.1778,162.7441)"><path
             d="m 0,0 c 0,0 6.278,-51.168 12.871,-70.631 6.592,-19.463 7.848,-32.647 6.906,-36.728 -0.942,-4.081 -1.884,-16.01 -1.884,-18.835 0,-2.825 5.023,-3.767 10.987,0 5.965,3.767 7.22,9.417 5.337,16.637 -1.884,7.22 3.767,10.046 1.255,17.266 -1.051,3.023 -5.022,2.197 -7.219,13.812 -2.198,11.615 -1.256,59.644 -1.256,59.644 z"
             style="fill:#ffffff;fill-opacity:1;fill-rule:nonzero;stroke:none"
             id="path1320" /></g><g
           id="g1322"
           transform="translate(528.1778,162.7441)"><path
             d="m 0,0 c 0,0 6.278,-51.168 12.871,-70.631 6.592,-19.463 7.848,-32.647 6.906,-36.728 -0.942,-4.081 -1.884,-16.01 -1.884,-18.835 0,-2.825 5.023,-3.767 10.987,0 5.965,3.767 7.22,9.417 5.337,16.637 -1.884,7.22 3.767,10.046 1.255,17.266 -1.051,3.023 -5.022,2.197 -7.219,13.812 -2.198,11.615 -1.256,59.644 -1.256,59.644 z"
             style="fill:none;stroke:#233239;stroke-width:1;stroke-linecap:round;stroke-linejoin:round;stroke-miterlimit:10;stroke-dasharray:none;stroke-opacity:1"
             id="path1324" /></g><g
           id="g1326"
           transform="translate(562.3947,53.1875)"><path
             d="m 0,0 c -1.884,7.22 3.767,10.045 1.256,17.265 -0.74,2.126 -2.921,2.355 -4.915,6.334 -0.064,-0.313 -0.108,-0.639 -0.108,-0.997 0,-4.709 0.314,-22.916 -2.825,-27.625 -2.329,-3.493 -6.898,-2.84 -9.105,-2.27 -0.374,-3.986 -0.627,-7.883 -0.627,-9.345 0,-2.825 5.023,-3.767 10.987,0 C 0.628,-12.871 1.883,-7.22 0,0"
             style="fill:#233239;fill-opacity:1;fill-rule:nonzero;stroke:none"
             id="path1328" /></g><g
           id="g1330"
           transform="translate(562.3947,53.1875)"><path
             d="m 0,0 c -1.884,7.22 3.767,10.045 1.256,17.265 -0.74,2.126 -2.921,2.355 -4.915,6.334 -0.064,-0.313 -0.108,-0.639 -0.108,-0.997 0,-4.709 0.314,-22.916 -2.825,-27.625 -2.329,-3.493 -6.898,-2.84 -9.105,-2.27 -0.374,-3.986 -0.627,-7.883 -0.627,-9.345 0,-2.825 5.023,-3.767 10.987,0 C 0.628,-12.871 1.883,-7.22 0,0 Z"
             style="fill:none;stroke:#233239;stroke-width:1;stroke-linecap:round;stroke-linejoin:round;stroke-miterlimit:10;stroke-dasharray:none;stroke-opacity:1"
             id="path1332" /></g><g
           id="g1334"
           transform="translate(514.6794,164.5567)"><path
             d="m 0,0 c 0,0 9.104,-64.667 9.731,-73.77 0.628,-9.104 3.454,-25.427 3.454,-30.136 0,-4.709 -4.081,-7.848 -3.768,-9.732 0.314,-1.883 5.337,-0.313 8.476,2.198 3.139,2.511 8.162,5.65 9.104,10.673 0.942,5.023 2.197,16.951 3.767,21.346 1.569,4.395 2.197,7.22 0,9.732 -2.198,2.511 -8.79,2.825 -9.104,8.475 -0.314,5.651 2.198,53.366 2.198,53.366 z"
             style="fill:#ffffff;fill-opacity:1;fill-rule:nonzero;stroke:none"
             id="path1336" /></g><g
           id="g1338"
           transform="translate(514.6794,164.5567)"><path
             d="m 0,0 c 0,0 9.104,-64.667 9.731,-73.77 0.628,-9.104 3.454,-25.427 3.454,-30.136 0,-4.709 -4.081,-7.848 -3.768,-9.732 0.314,-1.883 5.337,-0.313 8.476,2.198 3.139,2.511 8.162,5.65 9.104,10.673 0.942,5.023 2.197,16.951 3.767,21.346 1.569,4.395 2.197,7.22 0,9.732 -2.198,2.511 -8.79,2.825 -9.104,8.475 -0.314,5.651 2.198,53.366 2.198,53.366 z"
             style="fill:none;stroke:#233239;stroke-width:1;stroke-linecap:round;stroke-linejoin:round;stroke-miterlimit:10;stroke-dasharray:none;stroke-opacity:1"
             id="path1340" /></g><g
           id="g1342"
           transform="translate(534.1422,68.8124)"><path
             d="m 0,0 c -3.453,-7.534 -6.278,-8.162 -6.278,-8.162 0,-4.709 -4.081,-7.848 -3.767,-9.731 0.314,-1.884 5.336,-0.314 8.475,2.197 3.14,2.511 8.162,5.651 9.104,10.673 0.942,5.023 2.197,16.952 3.767,21.347 1.57,4.394 2.197,7.22 0,9.731 C 9.104,28.566 2.511,28.88 2.197,34.531 2.197,34.531 3.453,7.534 0,0"
             style="fill:#233239;fill-opacity:1;fill-rule:nonzero;stroke:none"
             id="path1344" /></g><g
           id="g1346"
           transform="translate(534.1422,68.8124)"><path
             d="m 0,0 c -3.453,-7.534 -6.278,-8.162 -6.278,-8.162 0,-4.709 -4.081,-7.848 -3.767,-9.731 0.314,-1.884 5.336,-0.314 8.475,2.197 3.14,2.511 8.162,5.651 9.104,10.673 0.942,5.023 2.197,16.952 3.767,21.347 1.57,4.394 2.197,7.22 0,9.731 C 9.104,28.566 2.511,28.88 2.197,34.531 2.197,34.531 3.453,7.534 0,0 Z"
             style="fill:none;stroke:#233239;stroke-width:1;stroke-linecap:round;stroke-linejoin:round;stroke-miterlimit:10;stroke-dasharray:none;stroke-opacity:1"
             id="path1348" /></g><g
           id="g1350"
           transform="translate(547.6406,200.3431)"><path
             d="m 0,0 c 0,0 -25.427,6.906 -30.764,3.767 -5.336,-3.139 -10.673,-38.926 -10.673,-38.926 0,0 45.383,-28.092 54.308,-35.786 18.207,-15.696 28.88,-12.557 28.88,-12.557 0,0 5.964,-0.627 4.709,9.104 -1.256,9.731 -0.942,12.871 -0.942,12.871 0,0 17.265,0.313 21.032,3.453 3.767,3.139 5.357,19.456 -3.453,32.647 -5.083,7.611 -16.693,21.758 -16.693,21.758 z"
             style="fill:#aa1d2c;fill-opacity:1;fill-rule:nonzero;stroke:none"
             id="path1352" /></g><g
           id="g1354"
           transform="translate(547.6406,200.3431)"><path
             d="m 0,0 c 0,0 -25.427,6.906 -30.764,3.767 -5.336,-3.139 -10.673,-38.926 -10.673,-38.926 0,0 45.383,-28.092 54.308,-35.786 18.207,-15.696 28.88,-12.557 28.88,-12.557 0,0 5.964,-0.627 4.709,9.104 -1.256,9.731 -0.942,12.871 -0.942,12.871 0,0 17.265,0.313 21.032,3.453 3.767,3.139 5.357,19.456 -3.453,32.647 -5.083,7.611 -16.693,21.758 -16.693,21.758 z"
             style="fill:none;stroke:#233239;stroke-width:1;stroke-linecap:round;stroke-linejoin:round;stroke-miterlimit:10;stroke-dasharray:none;stroke-opacity:1"
             id="path1356" /></g><g
           id="g1358"
           transform="translate(582.7972,191.0167)"><path
             d="M 0,0 C 0,0 12.324,-6.349 18.673,-14.938"
             style="fill:none;stroke:#233239;stroke-width:1;stroke-linecap:round;stroke-linejoin:round;stroke-miterlimit:10;stroke-dasharray:none;stroke-opacity:1"
             id="path1360" /></g><g
           id="g1362"
           transform="translate(593.1584,138.8156)"><path
             d="M 0,0 C 0,0 -12.229,2.158 -23.806,8.507"
             style="fill:none;stroke:#233239;stroke-width:1;stroke-linecap:round;stroke-linejoin:round;stroke-miterlimit:10;stroke-dasharray:none;stroke-opacity:1"
             id="path1364" /></g><g
           id="g1366"
           transform="translate(555.3677,156.8754)"><path
             d="M 0,0 C 2.029,-2.163 4.169,-4.145 6.399,-5.817"
             style="fill:none;stroke:#233239;stroke-width:1;stroke-linecap:round;stroke-linejoin:round;stroke-miterlimit:10;stroke-dasharray:none;stroke-opacity:1"
             id="path1368" /></g><g
           id="g1370"
           transform="translate(535.7118,187.7865)"><path
             d="M 0,0 C 0,0 6.047,-13.995 15.322,-25.834"
             style="fill:none;stroke:#233239;stroke-width:1;stroke-linecap:round;stroke-linejoin:round;stroke-miterlimit:10;stroke-dasharray:none;stroke-opacity:1"
             id="path1372" /></g><g
           id="g1374"
           transform="translate(537.9092,172.4046)"><path
             d="M 0,0 C 0,0 5.651,-16.952 11.301,-22.288"
             style="fill:none;stroke:#233239;stroke-width:1;stroke-linecap:round;stroke-linejoin:round;stroke-miterlimit:10;stroke-dasharray:none;stroke-opacity:1"
             id="path1376" /></g><g
           id="g1378"
           transform="translate(549.7952,314.0606)"><path
             d="m 0,0 c 0,0 -8.256,7.048 -6.444,11.075 1.812,4.028 19.735,4.833 19.735,4.833 0,0 18.928,2.82 25.976,-5.638 7.048,-8.458 5.035,-31.817 5.035,-31.817 0,0 18.526,-12.283 20.338,-18.325 1.813,-6.041 -5.638,-11.478 -5.638,-11.478 0,0 10.27,-7.451 7.249,-12.888 -3.02,-5.437 -8.659,-7.45 -8.659,-7.45 0,0 -1.208,10.874 -5.235,14.498 -4.028,3.625 -16.311,10.874 -16.311,10.874 v -32.219 c 0,0 -8.055,-1.611 -14.298,7.854 -6.242,9.464 -3.625,27.99 -3.625,27.99 l -2.819,22.755 z"
             style="fill:#233239;fill-opacity:1;fill-rule:nonzero;stroke:none"
             id="path1380" /></g><g
           id="g1382"
           transform="translate(549.7952,314.0606)"><path
             d="m 0,0 c 0,0 -8.256,7.048 -6.444,11.075 1.812,4.028 19.735,4.833 19.735,4.833 0,0 18.928,2.82 25.976,-5.638 7.048,-8.458 5.035,-31.817 5.035,-31.817 0,0 18.526,-12.283 20.338,-18.325 1.813,-6.041 -5.638,-11.478 -5.638,-11.478 0,0 10.27,-7.451 7.249,-12.888 -3.02,-5.437 -8.659,-7.45 -8.659,-7.45 0,0 -1.208,10.874 -5.235,14.498 -4.028,3.625 -16.311,10.874 -16.311,10.874 v -32.219 c 0,0 -8.055,-1.611 -14.298,7.854 -6.242,9.464 -3.625,27.99 -3.625,27.99 l -2.819,22.755 z"
             style="fill:none;stroke:#233239;stroke-width:1;stroke-linecap:round;stroke-linejoin:round;stroke-miterlimit:10;stroke-dasharray:none;stroke-opacity:1"
             id="path1384" /></g><g
           id="g1386"
           transform="translate(550.3993,317.0812)"><path
             d="m 0,0 c 0,0 -6.645,-8.256 -6.242,-11.076 0.402,-2.819 0.201,-4.228 0.201,-4.228 1.548,-1.497 -5.283,-6.963 -5.035,-7.652 0.778,-2.161 4.632,-2.618 4.632,-2.618 0,0 2.014,-12.888 3.625,-13.694 1.611,-0.805 3.02,-1.611 4.631,-0.805 1.611,0.805 5.639,1.611 5.639,1.611 v -7.854 c 0,0 -5.639,-16.109 -2.618,-14.7 3.021,1.41 12.686,15.305 12.686,15.305 l 1.208,19.331 c 0,0 6.243,4.229 6.243,7.25 0,3.02 -0.805,6.242 -3.826,5.437 -3.021,-0.806 -4.632,-3.424 -4.632,-3.424 0,0 -6.242,5.639 -8.658,9.062 C 5.437,-4.632 7.451,2.819 7.451,2.819 Z"
             style="fill:#ffffff;fill-opacity:1;fill-rule:nonzero;stroke:none"
             id="path1388" /></g><g
           id="g1390"
           transform="translate(550.3993,317.0812)"><path
             d="m 0,0 c 0,0 -6.645,-8.256 -6.242,-11.076 0.402,-2.819 0.201,-4.228 0.201,-4.228 1.548,-1.497 -5.283,-6.963 -5.035,-7.652 0.778,-2.161 4.632,-2.618 4.632,-2.618 0,0 2.014,-12.888 3.625,-13.694 1.611,-0.805 3.02,-1.611 4.631,-0.805 1.611,0.805 5.639,1.611 5.639,1.611 v -7.854 c 0,0 -5.639,-16.109 -2.618,-14.7 3.021,1.41 12.686,15.305 12.686,15.305 l 1.208,19.331 c 0,0 6.243,4.229 6.243,7.25 0,3.02 -0.805,6.242 -3.826,5.437 -3.021,-0.806 -4.632,-3.424 -4.632,-3.424 0,0 -6.242,5.639 -8.658,9.062 C 5.437,-4.632 7.451,2.819 7.451,2.819 Z"
             style="fill:none;stroke:#233239;stroke-width:1;stroke-linecap:round;stroke-linejoin:round;stroke-miterlimit:10;stroke-dasharray:none;stroke-opacity:1"
             id="path1392" /></g><g
           id="g1394"
           transform="translate(549.9881,301.3263)"><path
             d="M 0,0 C -0.171,-1.492 -0.891,-2.634 -1.609,-2.552 -2.327,-2.47 -2.771,-1.194 -2.601,0.297 -2.43,1.789 -1.71,2.932 -0.992,2.85 -0.274,2.767 0.17,1.492 0,0"
             style="fill:#233239;fill-opacity:1;fill-rule:nonzero;stroke:none"
             id="path1396" /></g><g
           id="g1398"
           transform="translate(546.7746,307.214)"><path
             d="M 0,0 C 0,0 1.611,3.423 4.833,-0.201"
             style="fill:none;stroke:#233239;stroke-width:1;stroke-linecap:round;stroke-linejoin:round;stroke-miterlimit:10;stroke-dasharray:none;stroke-opacity:1"
             id="path1400" /></g><g
           id="g1402"
           transform="translate(557.85,278.6192)"><path
             d="M 0,0 6.041,1.812 0,-7.854 Z"
             style="fill:#233239;fill-opacity:1;fill-rule:nonzero;stroke:none"
             id="path1404" /></g><g
           id="g1406"
           transform="translate(557.85,278.6192)"><path
             d="M 0,0 6.041,1.812 0,-7.854 Z"
             style="fill:none;stroke:#233239;stroke-width:1;stroke-linecap:round;stroke-linejoin:round;stroke-miterlimit:10;stroke-dasharray:none;stroke-opacity:1"
             id="path1408" /></g><g
           id="g1410"
           transform="translate(548.1842,289.0905)"><path
             d="M 0,0 C 0,0 3.222,1.007 5.236,3.625"
             style="fill:none;stroke:#233239;stroke-width:1;stroke-linecap:round;stroke-linejoin:round;stroke-miterlimit:10;stroke-dasharray:none;stroke-opacity:1"
             id="path1412" /></g><g
           id="g1414"
           transform="translate(585.949,209.2964)"><path
             d="m 0,0 c 0,0 -50.576,4.467 -54.765,7.483 -4.188,3.016 -5.529,12.901 -9.215,15.247 -3.686,2.346 -14.577,3.184 -15.415,2.681 -0.837,-0.503 3.351,-3.183 4.022,-3.351 0.67,-0.167 9.047,-5.864 9.718,-8.042 0.67,-2.179 1.172,-8.378 3.183,-9.886 2.011,-1.508 5.362,-2.681 5.362,-2.681 0,0 33.175,-11.896 39.709,-13.907 6.535,-2.01 19.771,-4.356 23.793,-4.356 4.021,0 5.696,-3.016 7.204,-0.167 1.508,2.848 2.178,13.739 2.178,13.739 z"
             style="fill:#ffffff;fill-opacity:1;fill-rule:nonzero;stroke:none"
             id="path1416" /></g><g
           id="g1418"
           transform="translate(585.949,209.2964)"><path
             d="m 0,0 c 0,0 -50.576,4.467 -54.765,7.483 -4.188,3.016 -5.529,12.901 -9.215,15.247 -3.686,2.346 -14.577,3.184 -15.415,2.681 -0.837,-0.503 3.351,-3.183 4.022,-3.351 0.67,-0.167 9.047,-5.864 9.718,-8.042 0.67,-2.179 1.172,-8.378 3.183,-9.886 2.011,-1.508 5.362,-2.681 5.362,-2.681 0,0 33.175,-11.896 39.709,-13.907 6.535,-2.01 19.771,-4.356 23.793,-4.356 4.021,0 5.696,-3.016 7.204,-0.167 1.508,2.848 2.178,13.739 2.178,13.739 z"
             style="fill:none;stroke:#233239;stroke-width:1;stroke-linecap:round;stroke-linejoin:round;stroke-miterlimit:10;stroke-dasharray:none;stroke-opacity:1"
             id="path1420" /></g><g
           id="g1422"
           transform="translate(587.3743,234.4415)"><path
             d="m 0,0 -1.425,-25.145 25.314,-4.762 -3.876,37.838 c 0,0 -2.39,17.302 -10.661,21.061 -8.271,3.76 -9.524,2.256 -9.524,2.256"
             style="fill:#ffffff;fill-opacity:1;fill-rule:nonzero;stroke:#233239;stroke-width:1;stroke-linecap:round;stroke-linejoin:round;stroke-miterlimit:10;stroke-dasharray:none;stroke-opacity:1"
             id="path1424" /></g></g></g><g
       id="g1426"><g
         id="g1428"
         clip-path="url(#clipPath1432)"><g
           id="g1434"
           transform="translate(175.4638,466.0831)"><path
             d="m 0,0 c -20.513,-19.124 -73.02,-38.425 -134.238,-79.38 0,0 3.825,-138.394 134.238,-214.041 z"
             style="fill:#75e6a4;fill-opacity:1;fill-rule:nonzero;stroke:none"
             id="path1436" /></g><g
           id="g1438"
           transform="translate(175.4638,466.0831)"><path
             d="m 0,0 c -20.513,-19.124 -73.02,-38.425 -134.238,-79.38 0,0 3.825,-138.394 134.238,-214.041 z"
             style="fill:#aa1d2c;stroke:#233239;stroke-width:1;stroke-linecap:round;stroke-linejoin:round;stroke-miterlimit:10;stroke-dasharray:none;stroke-opacity:1;fill-opacity:1"
             id="path1440" /></g><g
           id="g1442"
           transform="translate(175.4638,466.0831)"><path
             d="m 0,0 c 20.513,-19.124 73.02,-38.425 134.238,-79.38 0,0 -3.825,-138.394 -134.238,-214.041 z"
             style="fill:#233239;fill-opacity:1;fill-rule:nonzero;stroke:none"
             id="path1444" /></g><g
           id="g1446"
           transform="translate(175.4638,466.0831)"><path
             d="m 0,0 c 20.513,-19.124 73.02,-38.425 134.238,-79.38 0,0 -3.825,-138.394 -134.238,-214.041 z"
             style="fill:#f9be0e;stroke:#233239;stroke-width:1;stroke-linecap:round;stroke-linejoin:round;stroke-miterlimit:10;stroke-dasharray:none;stroke-opacity:1;fill-opacity:1"
             id="path1448" /></g><g
           id="g1450"
           transform="translate(175.4638,454.3019)"><path
             d="m 0,0 c -24.761,-17.188 -67.665,-33.565 -124.392,-71.516 0,0 3.544,-128.244 124.392,-198.342 120.849,70.098 124.392,198.342 124.392,198.342 C 67.665,-33.565 24.952,-17.188 0,0"
             style="fill:#aa1d2c;fill-opacity:1;fill-rule:nonzero;stroke:none"
             id="path1452" /></g><g
           id="g1454"
           transform="translate(175.4638,454.3019)"><path
             d="m 0,0 c -24.761,-17.188 -67.665,-33.565 -124.392,-71.516 0,0 3.544,-128.244 124.392,-198.342 120.849,70.098 124.392,198.342 124.392,198.342 C 67.665,-33.565 24.952,-17.188 0,0 Z"
             style="fill:none;stroke:#233239;stroke-width:1;stroke-linecap:round;stroke-linejoin:round;stroke-miterlimit:10;stroke-dasharray:none;stroke-opacity:1"
             id="path1456" /></g><g
           id="g1458"
           transform="translate(91.0326,264.6299)"><path
             d="m 0,0 c 18.397,-28.606 45.24,-57.454 84.431,-80.186 65.18,37.808 96.226,92.522 111.007,134.915 C 104.564,85.693 34.896,35.04 0,0"
             style="fill:#f9be0e;fill-opacity:1;fill-rule:nonzero;stroke:none"
             id="path1460" /></g><g
           id="g1462"
           transform="translate(91.0326,264.6299)"><path
             d="m 0,0 c 18.397,-28.606 45.24,-57.454 84.431,-80.186 65.18,37.808 96.226,92.522 111.007,134.915 C 104.564,85.693 34.896,35.04 0,0 Z"
             style="fill:none;stroke:#233239;stroke-width:1;stroke-linecap:round;stroke-linejoin:round;stroke-miterlimit:10;stroke-dasharray:none;stroke-opacity:1"
             id="path1464" /></g><g
           id="g1466"
           transform="translate(243.0628,349.6309)"><path
             d="m 0,0 h -47.319 v 47.319 h -40.56 V 0 h -47.319 v -40.559 h 47.319 v -47.32 h 40.56 v 47.32 H 0 Z"
             style="fill:#ffffff;fill-opacity:1;fill-rule:nonzero;stroke:none"
             id="path1468" /></g><g
           id="g1470"
           transform="translate(243.0628,349.6309)"><path
             d="m 0,0 h -47.319 v 47.319 h -40.56 V 0 h -47.319 v -40.559 h 47.319 v -47.32 h 40.56 v 47.32 H 0 Z"
             style="fill:none;stroke:#233239;stroke-width:1;stroke-linecap:round;stroke-linejoin:round;stroke-miterlimit:10;stroke-dasharray:none;stroke-opacity:1"
             id="path1472" /></g><g
           id="g1474"
           transform="translate(243.0628,328.4634)"><path
             d="m 0,0 c -35.245,2.77 -66.306,-6.129 -92.164,-19.392 h 4.285 v -47.319 h 40.56 v 47.319 H 0 Z"
             style="fill:#e0e0e0;fill-opacity:1;fill-rule:nonzero;stroke:none"
             id="path1476" /></g><g
           id="g1478"
           transform="translate(243.0628,349.6309)"><path
             d="m 0,0 h -47.319 v 47.319 h -40.56 V 0 h -47.319 v -40.559 h 47.319 v -47.32 h 40.56 v 47.32 H 0 Z"
             style="fill:none;stroke:#233239;stroke-width:1;stroke-linecap:round;stroke-linejoin:round;stroke-miterlimit:10;stroke-dasharray:none;stroke-opacity:1"
             id="path1480" /></g></g></g></g></svg>
