<?xml version="1.0" encoding="UTF-8" standalone="no"?>
<!-- Generator: Adobe Illustrator 27.5.0, SVG Export Plug-In . SVG Version: 6.00 Build 0)  -->

<svg
   version="1.1"
   x="0px"
   y="0px"
   viewBox="0 0 500 500"
   style="enable-background:new 0 0 500 500;"
   xml:space="preserve"
   id="svg78594"
   sodipodi:docname="pac-active.svg"
   inkscape:version="1.1 (c4e8f9e, 2021-05-24)"
   xmlns:inkscape="http://www.inkscape.org/namespaces/inkscape"
   xmlns:sodipodi="http://sodipodi.sourceforge.net/DTD/sodipodi-0.dtd"
   xmlns="http://www.w3.org/2000/svg"
   xmlns:svg="http://www.w3.org/2000/svg"><defs
   id="defs78598">
	
	

		
		
	
			
			
			
			
			
			
			
			
		
				
				
				
				
				
				
				
			
				
				
				
			
					
				
						
					
					
					
					
				
							
							
							
							
							
						
								
								
								
							
	

		
		
		
		
		
		
		
		
		
	
	
	
	
	
	

	

		
		
		
	
			
		
			
			
		
				
				
				
				
			
		
		
		
		
		
	
			
			
			
		
				
			
					
				
						
					
							
							
							
							
							
						</defs><sodipodi:namedview
   id="namedview78596"
   pagecolor="#ffffff"
   bordercolor="#666666"
   borderopacity="1.0"
   inkscape:pageshadow="2"
   inkscape:pageopacity="0.0"
   inkscape:pagecheckerboard="0"
   showgrid="false"
   inkscape:zoom="1.0729879"
   inkscape:cx="250.2358"
   inkscape:cy="351.3553"
   inkscape:window-width="1920"
   inkscape:window-height="1080"
   inkscape:window-x="1440"
   inkscape:window-y="0"
   inkscape:window-maximized="0"
   inkscape:current-layer="svg78594" />
<g
   id="g78195">
		<rect
   x="416.77899"
   y="398.49399"
   style="fill:#ebebeb"
   width="33.122002"
   height="0.25"
   id="rect78175" />
		<rect
   x="322.52701"
   y="401.20801"
   style="fill:#ebebeb"
   width="8.6929998"
   height="0.25"
   id="rect78177" />
		<rect
   x="396.586"
   y="389.20801"
   style="fill:#ebebeb"
   width="19.191999"
   height="0.25"
   id="rect78179" />
		<rect
   x="52.459"
   y="390.888"
   style="fill:#ebebeb"
   width="43.193001"
   height="0.25"
   id="rect78181" />
		<rect
   x="104.556"
   y="390.888"
   style="fill:#ebebeb"
   width="6.3330002"
   height="0.25"
   id="rect78183" />
		<rect
   x="131.47099"
   y="395.11099"
   style="fill:#ebebeb"
   width="93.676003"
   height="0.25"
   id="rect78185" />
		<g
   id="g78191">
			<path
   style="fill:#ebebeb"
   d="M 238.401,337.8 H 45.302 c -3.147,0 -5.708,-2.561 -5.708,-5.708 V 60.66 c 0,-3.147 2.561,-5.708 5.708,-5.708 h 193.099 c 3.146,0 5.707,2.561 5.707,5.708 v 271.432 c 0,3.147 -2.561,5.708 -5.707,5.708 z M 45.302,55.203 c -3.01,0 -5.458,2.448 -5.458,5.458 v 271.432 c 0,3.01 2.448,5.458 5.458,5.458 h 193.099 c 3.009,0 5.457,-2.448 5.457,-5.458 V 60.66 c 0,-3.009 -2.448,-5.458 -5.457,-5.458 H 45.302 Z"
   id="path78187" />
			<path
   style="fill:#ebebeb"
   d="M 454.698,337.8 H 261.599 c -3.146,0 -5.707,-2.561 -5.707,-5.708 V 60.66 c 0,-3.147 2.561,-5.708 5.707,-5.708 h 193.099 c 3.148,0 5.708,2.561 5.708,5.708 v 271.432 c 0,3.147 -2.561,5.708 -5.708,5.708 z M 261.599,55.203 c -3.009,0 -5.457,2.448 -5.457,5.458 v 271.432 c 0,3.01 2.448,5.458 5.457,5.458 h 193.099 c 3.01,0 5.458,-2.448 5.458,-5.458 V 60.66 c 0,-3.009 -2.448,-5.458 -5.458,-5.458 H 261.599 Z"
   id="path78189" />
		</g>
		<rect
   y="382.39801"
   style="fill:#ebebeb"
   width="500"
   height="0.25"
   id="rect78193"
   x="0" />
	</g><g
   id="g78257">
		<g
   id="g78203">
			<polygon
   style="fill:#ebebeb"
   points="388.463,382.999 388.585,382.52 441.649,382.52 441.649,121.949 331.342,121.949 331.342,382.52 365.482,382.52 388.463,382.999 323.038,382.999 323.038,113.644 450.946,113.644 450.946,382.999 "
   id="polygon78197" />
			<polygon
   style="fill:#f0f0f0"
   points="388.585,382.52 388.463,382.999 365.482,382.52 331.342,382.52 331.342,121.949 441.649,121.949 441.649,382.52 "
   id="polygon78199" />
			<rect
   x="331.34201"
   y="121.949"
   style="fill:#fafafa"
   width="110.307"
   height="260.57101"
   id="rect78201" />
		</g>
		<polygon
   style="fill:#ffffff"
   points="388.585,382.52 388.463,382.999 365.482,382.52 439.116,121.949 441.649,121.949 441.649,174.362 "
   id="polygon78205" />
		<rect
   x="331.341"
   y="229.743"
   style="fill:#ffffff"
   width="12.937"
   height="42.575001"
   id="rect78207" />
		<polygon
   style="fill:#ffffff"
   points="354.321,382.998 427.128,121.948 404.981,121.948 331.341,382.524 "
   id="polygon78209" />
		<g
   id="g78255">
			<path
   style="fill:#e0e0e0"
   d="m 377.672,231.219 h -30.748 c -1.275,0 -2.309,1.034 -2.309,2.309 v 21.397 c 0,1.275 1.034,2.309 2.309,2.309 h 30.748 c 1.275,0 2.309,-1.034 2.309,-2.309 v -21.397 c 0,-1.275 -1.034,-2.309 -2.309,-2.309 z"
   id="path78211" />
			<rect
   x="347.216"
   y="233.463"
   style="fill:#ebebeb"
   width="15.911"
   height="8.823"
   id="rect78213" />
			<g
   id="g78247">
				<rect
   x="347.216"
   y="244.96201"
   style="fill:#ebebeb"
   width="3.016"
   height="1.659"
   id="rect78215" />
				<rect
   x="347.216"
   y="247.752"
   style="fill:#ebebeb"
   width="3.016"
   height="1.659"
   id="rect78217" />
				<rect
   x="347.216"
   y="250.54201"
   style="fill:#ebebeb"
   width="3.016"
   height="1.659"
   id="rect78219" />
				<rect
   x="347.216"
   y="253.33299"
   style="fill:#ebebeb"
   width="3.016"
   height="1.659"
   id="rect78221" />
				<rect
   x="351.51501"
   y="244.96201"
   style="fill:#ebebeb"
   width="3.016"
   height="1.659"
   id="rect78223" />
				<rect
   x="351.51501"
   y="247.752"
   style="fill:#ebebeb"
   width="3.016"
   height="1.659"
   id="rect78225" />
				<rect
   x="351.51501"
   y="250.54201"
   style="fill:#ebebeb"
   width="3.016"
   height="1.659"
   id="rect78227" />
				<rect
   x="351.51501"
   y="253.33299"
   style="fill:#ebebeb"
   width="3.016"
   height="1.659"
   id="rect78229" />
				<rect
   x="355.81299"
   y="244.96201"
   style="fill:#ebebeb"
   width="3.016"
   height="1.659"
   id="rect78231" />
				<rect
   x="355.81299"
   y="247.752"
   style="fill:#ebebeb"
   width="3.016"
   height="1.659"
   id="rect78233" />
				<rect
   x="355.81299"
   y="250.54201"
   style="fill:#ebebeb"
   width="3.016"
   height="1.659"
   id="rect78235" />
				<rect
   x="355.81299"
   y="253.33299"
   style="fill:#ebebeb"
   width="3.016"
   height="1.659"
   id="rect78237" />
				<rect
   x="360.11099"
   y="244.96201"
   style="fill:#ebebeb"
   width="3.016"
   height="1.659"
   id="rect78239" />
				<rect
   x="360.11099"
   y="247.752"
   style="fill:#ebebeb"
   width="3.016"
   height="1.659"
   id="rect78241" />
				<rect
   x="360.11099"
   y="250.54201"
   style="fill:#ebebeb"
   width="3.016"
   height="1.659"
   id="rect78243" />
				<rect
   x="360.11099"
   y="253.33299"
   style="fill:#ebebeb"
   width="3.016"
   height="1.659"
   id="rect78245" />
			</g>
			<rect
   x="368.82101"
   y="231.21899"
   style="fill:#f0f0f0"
   width="8.6719999"
   height="23.771999"
   id="rect78249" />
			<rect
   x="368.82101"
   y="237.87399"
   style="fill:#e6e6e6"
   width="8.6719999"
   height="9.8780003"
   id="rect78251" />
			<polygon
   style="fill:#e0e0e0"
   points="376.286,242.285 377.493,247.752 368.821,247.752 370.48,242.285 "
   id="polygon78253" />
		</g>
	</g><g
   id="g78289">
		<g
   id="g78285">
			<g
   id="g78261">
				<path
   style="fill:#e0e0e0"
   d="m 288.604,344.745 c -0.152,0 -0.278,-0.121 -0.283,-0.274 -0.854,-25.326 6.866,-34.989 6.944,-35.083 0.099,-0.121 0.277,-0.139 0.399,-0.038 0.121,0.1 0.138,0.278 0.039,0.398 -0.077,0.094 -7.661,9.624 -6.815,34.704 0.005,0.156 -0.117,0.287 -0.274,0.293 -0.003,0 -0.006,0 -0.01,0 z"
   id="path78259" />
			</g>
			<g
   id="g78271">
				<g
   id="g78265">
					<path
   style="fill:#e0e0e0"
   d="m 292.211,344.745 c -0.009,0 -0.017,0 -0.026,-10e-4 -0.156,-0.014 -0.271,-0.152 -0.257,-0.308 0.677,-7.406 3.334,-13.064 7.898,-16.816 7.118,-5.851 16.519,-4.948 16.613,-4.938 0.155,0.016 0.269,0.155 0.252,0.311 -0.016,0.155 -0.157,0.266 -0.311,0.252 -0.092,-0.01 -9.267,-0.885 -16.199,4.816 -4.44,3.652 -7.027,9.178 -7.689,16.426 -0.012,0.147 -0.136,0.258 -0.281,0.258 z"
   id="path78263" />
				</g>
				<g
   id="g78269">
					<path
   style="fill:#f5f5f5"
   d="m 310.563,322.842 c -1.371,-2.76 -12.74,-4.643 -6.234,-10.634 6.505,-5.99 6.485,6.848 9.38,6.799 4.054,-0.069 3.266,-17.238 9.95,-12.807 6.685,4.431 -6.604,11.439 -4.475,14.611 1.955,2.914 13.752,-6.514 14.017,-0.753 0.265,5.761 -12.566,1.497 -13.387,4.972 -0.639,2.704 12.006,5.165 6.397,9.086 -5.609,3.921 -7.405,-7.977 -10.492,-7.206 -2.346,0.586 0.79,10.362 -3.937,8.837 -4.727,-1.524 0.223,-10.003 -1.219,-12.905 z"
   id="path78267" />
				</g>
			</g>
			<g
   id="g78281">
				<g
   id="g78275">
					<path
   style="fill:#e0e0e0"
   d="m 284.305,347.898 c -0.144,0 -0.267,-0.108 -0.282,-0.255 -2.259,-22.025 -12.171,-35.479 -12.271,-35.612 -0.094,-0.125 -0.068,-0.303 0.057,-0.397 0.125,-0.094 0.303,-0.068 0.397,0.057 0.101,0.134 10.106,13.714 12.381,35.895 0.016,0.156 -0.098,0.294 -0.253,0.31 -0.01,0.002 -0.02,0.002 -0.029,0.002 z"
   id="path78273" />
				</g>
				<g
   id="g78279">
					<path
   style="fill:#e6e6e6"
   d="m 274.42,320.383 c -3.43,2.851 -2.293,19.492 -12.9,12.326 -10.606,-7.166 7.484,-11.417 6.45,-15.479 -1.448,-5.687 -25.369,1.147 -21.356,-9.746 4.013,-10.893 18.313,5.489 22.072,1.433 3.453,-3.725 -13.759,-17.199 -5.733,-19.492 8.026,-2.293 6.298,17.201 11.466,17.199 4.021,-0.002 3.272,-18.632 10.666,-12.039 7.393,6.593 -8.768,13.089 -6.653,17.18 1.608,3.109 14.333,-4.567 13.759,2.599 -0.572,7.166 -14.164,3.02 -17.771,6.019 z"
   id="path78277" />
				</g>
			</g>
			<path
   style="fill:#e0e0e0"
   d="m 301.208,369.524 2.328,-27.356 h -33.108 l 2.328,27.356 c 0.629,7.389 6.81,13.067 14.226,13.067 v 0 c 7.416,0 13.597,-5.677 14.226,-13.067 z"
   id="path78283" />
		</g>
		<path
   style="fill:#f0f0f0"
   d="m 293.191,318.09 c 3.43,2.852 2.293,19.492 12.899,12.326 10.606,-7.167 -7.484,-11.417 -6.45,-15.479 1.448,-5.687 25.369,1.147 21.355,-9.746 -4.013,-10.893 -18.313,5.489 -22.072,1.433 -3.453,-3.725 13.759,-17.199 5.733,-19.492 -8.026,-2.293 -6.298,17.201 -11.466,17.199 -4.021,-0.002 -3.272,-18.632 -10.666,-12.039 -7.393,6.593 8.768,13.089 6.653,17.18 -1.608,3.11 -14.332,-4.567 -13.759,2.599 0.574,7.165 14.166,3.02 17.773,6.019 z"
   id="path78287" />
	</g><rect
   x="49.789001"
   y="89.089996"
   style="fill:#fafafa"
   width="194.09"
   height="293.94101"
   id="rect78291" /><rect
   x="64.149002"
   y="117.796"
   style="fill:#ebebeb"
   width="169.12801"
   height="265.23401"
   id="rect78293" /><rect
   x="149.65199"
   y="124.037"
   style="fill:#fafafa"
   width="79.565002"
   height="252.752"
   id="rect78295" /><rect
   x="68.208"
   y="124.655"
   style="fill:#fafafa"
   width="79.565002"
   height="252.752"
   id="rect78297" /><rect
   x="134.661"
   y="97.209"
   style="fill:#ffffff"
   width="25.593"
   height="8.7370005"
   id="rect78299" /><g
   id="g78313">
		<rect
   x="262.017"
   y="211.543"
   style="fill:#e6e6e6"
   width="14.338"
   height="27.622"
   id="rect78303" />
		<path
   style="fill:#f5f5f5"
   d="m 269.341,217.389 c 2.477,0 4.484,2.008 4.484,4.484 0,2.477 -2.008,4.484 -4.484,4.484 -2.477,0 -4.484,-2.008 -4.484,-4.484 -0.001,-2.476 2.007,-4.484 4.484,-4.484 z"
   id="path78305" />
		<polygon
   style="fill:#e6e6e6"
   points="269.425,219.233 271.745,222.606 266.951,222.606 "
   id="polygon78307" />
		<path
   style="fill:#f5f5f5"
   d="m 269.341,226.936 c 2.477,0 4.484,2.008 4.484,4.484 0,2.477 -2.008,4.484 -4.484,4.484 -2.477,0 -4.484,-2.008 -4.484,-4.484 -0.001,-2.476 2.007,-4.484 4.484,-4.484 z"
   id="path78309" />
		<polygon
   style="fill:#e6e6e6"
   points="269.425,233.641 271.745,230.268 266.951,230.268 "
   id="polygon78311" />
	</g>
<g
   id="Background_Simple"
   style="display:none;">
	<g
   style="display:inline;"
   id="g78324">
		<g
   id="g78318">
			<path
   style="fill:#407BFF;"
   d="M130.193,135.307c-16.906,7.184-30.097,21.298-40.869,36.178     c-17.162,23.706-27.366,52.997-25.47,82.203c1.896,29.205,16.698,57.958,41.154,74.034c22.758,14.96,57.766,4.373,84.994,3.741     c16.798-0.39,35.849,1.452,48.696,12.28c38.438,32.396,84.01,50.067,118.112,42.547c79.558-17.543,79.749-132.636,78.855-161.711     c-0.927-30.127-11.981-60.262-31.358-83.349c-19.377-23.087-50.303-37.788-79.973-32.484     c-37.117,6.635-64.121,41.372-101.008,49.189c-6.896,1.462-14.521,1.816-20.565-1.813     C194.34,151.068,170.91,118.007,130.193,135.307z"
   id="path78316" />
		</g>
		<g
   style="opacity:0.9;"
   id="g78322">
			<path
   style="fill:#FFFFFF;"
   d="M130.193,135.307c-16.906,7.184-30.097,21.298-40.869,36.178     c-17.162,23.706-27.366,52.997-25.47,82.203c1.896,29.205,16.698,57.958,41.154,74.034c22.758,14.96,57.766,4.373,84.994,3.741     c16.798-0.39,35.849,1.452,48.696,12.28c38.438,32.396,84.01,50.067,118.112,42.547c79.558-17.543,79.749-132.636,78.855-161.711     c-0.927-30.127-11.981-60.262-31.358-83.349c-19.377-23.087-50.303-37.788-79.973-32.484     c-37.117,6.635-64.121,41.372-101.008,49.189c-6.896,1.462-14.521,1.816-20.565-1.813     C194.34,151.068,170.91,118.007,130.193,135.307z"
   id="path78320" />
		</g>
	</g>
</g>
<g
   id="Shadow">
	<ellipse
   id="_x3C_Path_x3E__1_"
   style="fill:#F5F5F5;"
   cx="250"
   cy="415.791"
   rx="193.889"
   ry="11.323" />
</g>
<g
   id="Banana"
   style="fill:#f9be0e;fill-opacity:1">
	<g
   id="g78375"
   style="fill:#f9be0e;fill-opacity:1">
		<g
   id="g78355"
   style="fill:#f9be0e;fill-opacity:1">
			<path
   style="fill:#f9be0e;fill-opacity:1"
   d="M131.517,386.947c0.555-0.992,0.116-2.212-0.178-3.309c-0.753-2.809-0.437-5.89,0.87-8.488     c0.127-0.253,0.267-0.516,0.258-0.799c-0.009-0.283-0.235-0.581-0.516-0.553c-0.168,0.017-0.304,0.139-0.423,0.258     c-1.755,1.749-2.848,4.402-2.88,6.888c-0.015,1.17,0.255,2.346,0.765,3.399C129.541,384.609,131.421,387.119,131.517,386.947z"
   id="path78329" />
			<g
   id="g78335"
   style="fill:#f9be0e;fill-opacity:1">
				<path
   style="fill:#f9be0e;fill-opacity:1"
   d="M143.187,369.497c-1.97-1.033-4.978-0.66-7.732,0.957c-2.754,1.617-5.167,4.429-6.203,7.226      c0.481-0.905,1.746-1.307,2.647-1.515c0.901-0.208,1.715-0.11,2.581-0.187c1.623-0.145,3.448-0.929,5.035-2.163      C141.102,372.58,142.428,371.206,143.187,369.497z"
   id="path78331" />
				<path
   style="opacity:0.3;fill:#f9be0e;fill-opacity:1"
   d="M143.187,369.497c-1.97-1.033-4.978-0.66-7.732,0.957      c-2.754,1.617-5.167,4.429-6.203,7.226c0.481-0.905,1.746-1.307,2.647-1.515c0.901-0.208,1.715-0.11,2.581-0.187      c1.623-0.145,3.448-0.929,5.035-2.163C141.102,372.58,142.428,371.206,143.187,369.497z"
   id="path78333" />
			</g>
			<g
   id="g78353"
   style="fill:#f9be0e;fill-opacity:1">
				<path
   style="fill:#f9be0e;fill-opacity:1"
   d="M142.018,370.23c-1.871,1.5-4.666,0.999-6.789-0.116c-2.123-1.115-3.74-1.84-6.021-2.579      c-3.244-1.051-7.822-1.089-9.776,1.706c-2.718,3.886-3.768,5.41-7.146,6.634c0.899,1.047,2.191,2.654,3.547,2.398      c0.778-0.147,1.383-0.733,2.012-1.213c2.384-1.823,5.199-4.566,7.999-3.485c2.511,0.97,6.573,3.273,9.141,2.465      c2.568-0.808,4.143-1.233,6.007-3.176C142.259,372.571,142.503,371.438,142.018,370.23z"
   id="path78337" />
				<g
   id="g78343"
   style="fill:#f9be0e;fill-opacity:1">
					<g
   id="g78341"
   style="fill:#f9be0e;fill-opacity:1">
						<path
   style="fill:#f9be0e;fill-opacity:1"
   d="M136.018,362.664c2.743-5.502,8.489-7.711,13.796-8.442c0.131-0.018,0.204-0.167,0.127-0.274        c-0.491-0.689-2.243-1.348-2.953-1.373c-2.786-0.096-5.583,0.776-7.21,2.183c-0.77,0.666-1.319,1.469-1.288,2.5        C137.076,358.74,135.479,360.598,136.018,362.664z"
   id="path78339" />
					</g>
				</g>
				<path
   style="fill:#f9be0e;fill-opacity:1"
   d="M142.869,370.924c0.18-1.085-0.654-1.917-1.263-2.774c-1.27-1.785-6.727-3.689-5.637-7.426      c0.291-0.999,1.084-2.865,2.383-3.571c0,0-0.212-1.114,1.765-2.679c-0.877,1.16-0.561,5.596,0.7,7.36      c1.427,1.997,4.337,3.456,3.324,6.269C143.678,369.385,143.983,369.246,142.869,370.924z"
   id="path78345" />
				<path
   style="opacity:0.3;fill:#f9be0e;fill-opacity:1"
   d="M142.869,370.924c0.18-1.085-0.654-1.917-1.263-2.774      c-1.27-1.785-6.727-3.689-5.637-7.426c0.291-0.999,1.084-2.865,2.383-3.571c0,0-0.212-1.114,1.765-2.679      c-0.877,1.16-0.561,5.596,0.7,7.36c1.427,1.997,4.337,3.456,3.324,6.269C143.678,369.385,143.983,369.246,142.869,370.924z"
   id="path78347" />
				<path
   style="fill:#f9be0e;fill-opacity:1"
   d="M141.856,372.114c0.71,0.361,1.581,0.389,2.312,0.072l1.405-2.253      c-0.334-0.469-1.135-1.222-1.562-1.609c0,0-1.279,0.79-1.751,1.461C141.787,370.456,141.591,371.338,141.856,372.114z"
   id="path78349" />
				<polygon
   style="fill:#f9be0e;fill-opacity:1"
   points="146.174,371.053 145.39,372.308 144.241,372.034 145.423,370.141     "
   id="polygon78351" />
			</g>
		</g>
		<g
   id="g78363"
   style="fill:#f9be0e;fill-opacity:1">
			<g
   id="g78361"
   style="fill:#f9be0e;fill-opacity:1">
				<path
   style="fill:#f9be0e;fill-opacity:1"
   d="M123.471,332.502c-1.356-1.361-2.436-3.001-3.149-4.792c0.614-0.386,1.191-0.75,1.719-1.081      c0.278-0.168,0.544-0.336,0.793-0.485c0.507-0.302,0.967-0.562,1.384-0.759c0.869-0.415,1.551-0.559,2.048-0.261      c0.175,0.106,0.309,0.283,0.388,0.517c0.024,0.057,0.04,0.117,0.058,0.185c0.008,0.063,0.024,0.135,0.032,0.211      c0.021,0.219,0.017,0.464-0.013,0.735l-0.003,0.005c-0.023,0.177-0.058,0.368-0.107,0.571      C126.28,328.76,125.276,330.644,123.471,332.502z"
   id="path78357" />
				<path
   style="opacity:0.6;fill:#f9be0e;fill-opacity:1"
   d="M123.471,332.502c-1.356-1.361-2.436-3.001-3.149-4.792      c0.614-0.386,1.191-0.75,1.719-1.081c0.278-0.168,0.544-0.336,0.793-0.485c0.507-0.302,0.967-0.562,1.384-0.759      c0.869-0.415,1.551-0.559,2.048-0.261c0.175,0.106,0.309,0.283,0.388,0.517c0.024,0.057,0.04,0.117,0.058,0.185      c0.008,0.063,0.024,0.135,0.032,0.211c0.021,0.219,0.017,0.464-0.013,0.735l-0.003,0.005c-0.023,0.177-0.058,0.368-0.107,0.571      C126.28,328.76,125.276,330.644,123.471,332.502z"
   id="path78359" />
			</g>
		</g>
		<g
   id="g78373"
   style="fill:#f9be0e;fill-opacity:1">
			<path
   style="fill:#f9be0e;fill-opacity:1"
   d="M119.67,355.416c-1.091,1.171-2.885,1.859-4.469,1.627c-2.8-3.684-4.586-8.131-5.111-12.729     c1.764,0.119,3.564-0.303,5.183-1.015C115.677,347.456,117.477,351.861,119.67,355.416z"
   id="path78365" />
			<path
   style="opacity:0.6;fill:#f9be0e;fill-opacity:1"
   d="M119.67,355.416c-1.091,1.171-2.885,1.859-4.469,1.627     c-2.8-3.684-4.586-8.131-5.111-12.729c1.764,0.119,3.564-0.303,5.183-1.015C115.677,347.456,117.477,351.861,119.67,355.416z"
   id="path78367" />
			<path
   style="fill:#f9be0e;fill-opacity:1"
   d="M110.828,344.663c1.313,0.173,2.683-0.115,3.816-0.801c0.19-0.115,0.379-0.246,0.502-0.432     c0.123-0.186,0.168-0.438,0.059-0.632c-0.103-0.185-0.322-0.28-0.533-0.295c-0.211-0.015-0.421,0.036-0.628,0.076     c-0.729,0.142-1.483,0.156-2.196,0.364C111.083,343.165,108.929,344.412,110.828,344.663z"
   id="path78369" />
			<path
   style="opacity:0.8;fill:#f9be0e;fill-opacity:1"
   d="M110.828,344.663c1.313,0.173,2.683-0.115,3.816-0.801     c0.19-0.115,0.379-0.246,0.502-0.432c0.123-0.186,0.168-0.438,0.059-0.632c-0.103-0.185-0.322-0.28-0.533-0.295     c-0.211-0.015-0.421,0.036-0.628,0.076c-0.729,0.142-1.483,0.156-2.196,0.364C111.083,343.165,108.929,344.412,110.828,344.663z"
   id="path78371" />
		</g>
	</g>
</g>
<g
   id="g78382"
   style="fill:#aa1d2c;fill-opacity:1;opacity:0.42122186">
			<path
   style="fill:#aa1d2c;fill-opacity:1"
   d="m 210.299,118.875 c 2.57,-2.462 4.415,-5.936 4.068,-9.478 5.76,-1.348 11.237,-3.891 15.984,-7.421 l 0.249,0.214 c 0.135,3.265 0.269,6.561 -0.304,9.778 -0.573,3.217 -1.919,6.394 -4.329,8.601 -2.937,2.689 -7.038,3.624 -10.961,4.308 -4.559,0.795 -9.391,1.362 -13.699,-0.328 3.185,-1.588 6.423,-3.212 8.992,-5.674 z"
   id="path78378" />
			<path
   style="opacity:0.7;fill:#aa1d2c;fill-opacity:1"
   d="m 210.299,118.875 c 2.57,-2.462 4.415,-5.936 4.068,-9.478 5.76,-1.348 11.237,-3.891 15.984,-7.421 l 0.249,0.214 c 0.135,3.265 0.269,6.561 -0.304,9.778 -0.573,3.217 -1.919,6.394 -4.329,8.601 -2.937,2.689 -7.038,3.624 -10.961,4.308 -4.559,0.795 -9.391,1.362 -13.699,-0.328 3.185,-1.588 6.423,-3.212 8.992,-5.674 z"
   id="path78380" />
		</g><g
   id="g78388"
   style="fill:#aa1d2c;fill-opacity:1;opacity:0.34405145">
			<path
   style="fill:#aa1d2c;fill-opacity:1"
   d="m 204.314,161.864 c -0.801,-3.437 -0.724,-7.204 0.945,-10.313 1.349,-2.513 3.604,-4.392 5.455,-6.562 2.603,-3.051 4.437,-6.752 5.288,-10.671 l 0.016,1.535 c -2.298,8.608 -1.354,18.041 2.604,26.023 -3.642,3.023 -7.085,6.284 -10.3,9.757 -1.596,-3.147 -3.207,-6.332 -4.008,-9.769 z"
   id="path78384" />
			<path
   style="opacity:0.7;fill:#aa1d2c;fill-opacity:1"
   d="m 204.314,161.864 c -0.801,-3.437 -0.724,-7.204 0.945,-10.313 1.349,-2.513 3.604,-4.392 5.455,-6.562 2.603,-3.051 4.437,-6.752 5.288,-10.671 l 0.016,1.535 c -2.298,8.608 -1.354,18.041 2.604,26.023 -3.642,3.023 -7.085,6.284 -10.3,9.757 -1.596,-3.147 -3.207,-6.332 -4.008,-9.769 z"
   id="path78386" />
		</g><path
   style="fill:#aa1d2c;fill-opacity:1"
   d="m 250.37,124.828 c 0,0 2.067,-1.572 2.67,-2.156 0.477,-0.462 0.58,-0.866 0.938,-1.461 0.263,-0.439 0.587,-0.605 0.217,-0.852 -0.962,-0.644 -2.248,-0.246 -3.093,0.361 -0.852,0.612 -2.436,1.914 -2.436,1.914 0,0 1.311,1.693 1.704,2.194 z"
   id="path78390" /><path
   style="opacity:0.2;enable-background:new"
   d="m 253.648,120.226 c 0.048,0.009 0.548,0.175 0.556,0.229 0.098,0.598 -1.106,1.09 -1.546,1.097 -0.379,0.006 -1.028,0.003 -1.206,-0.42 -0.174,-0.414 0.31,-0.701 0.617,-0.826 0.501,-0.203 1.058,-0.176 1.579,-0.08 z"
   id="path78392" /><path
   style="fill:#263238"
   d="m 240.166,128.472 c -0.236,0.185 -0.135,0.707 0.051,0.944 l 1.576,2.006 c 0.186,0.237 0.669,0.459 0.905,0.274 l 7.683,-6.036 c 0.236,-0.185 0.276,-0.528 0.089,-0.765 l -1.857,-2.364 c -0.187,-0.237 -0.529,-0.28 -0.764,-0.094 z"
   id="path78394" /><path
   style="opacity:0.6;fill:#ffffff"
   d="m 240.166,128.472 c -0.236,0.185 -0.135,0.707 0.051,0.944 l 1.576,2.006 c 0.186,0.237 0.669,0.459 0.905,0.274 l 7.683,-6.036 c 0.236,-0.185 0.276,-0.528 0.089,-0.765 l -1.857,-2.364 c -0.187,-0.237 -0.529,-0.28 -0.764,-0.094 z"
   id="path78396" /><path
   style="opacity:0.3;fill:#ffffff"
   d="m 241.888,127.93 -0.231,-0.294 6.487,-5.096 2.133,2.715 c -2.816,0.83 -5.603,1.75 -8.389,2.675 z"
   id="path78400" />
<g
   id="g78409">
			<path
   style="fill:#407bff"
   d="m 241.062,175.106 -2.909,1.163 -16.31,-38.46 c -2.593,-6.114 -7.166,-10.081 -14.841,-6.979 -7.178,2.902 -9.048,9.463 -6.483,15.577 l 16.131,38.456 -2.898,1.158 -16.107,-38.456 c -2.978,-7.109 -2.692,-13.972 8.597,-18.537 11.309,-4.573 15.466,0.507 18.486,7.617 z"
   id="path78407" />
		</g><path
   style="fill:#aa1d2c;fill-opacity:1"
   d="m 262.849,188.467 -57.268,22.789 -15.578,-37.499 c -1.527,-3.675 0.179,-7.833 3.81,-9.292 l 41.633,-16.737 c 4.702,-1.89 10.153,0.403 12.176,5.132 z"
   id="path78411" /><path
   style="fill:#263238"
   d="m 256.503,190.992 -44.628,17.759 c -3.477,1.384 -7.485,-0.361 -8.952,-3.891 l -12.921,-31.103 c -1.527,-3.675 0.179,-7.833 3.81,-9.292 l 41.633,-16.737 c 4.702,-1.89 10.153,0.403 12.176,5.132 l 12.492,29.209 c 1.51,3.531 -0.106,7.529 -3.61,8.923 z"
   id="path78413" /><path
   style="opacity:0.70418;fill:#aa1d05;fill-opacity:0.947368"
   d="m 221.842,137.809 c -2.593,-6.114 -7.166,-10.081 -14.841,-6.979 -7.178,2.902 -9.048,9.463 -6.483,15.577 l 16.131,38.456 -0.474,3.096 -2.424,-1.938 -16.107,-38.456 c -2.978,-7.109 -2.692,-13.972 8.597,-18.537 11.309,-4.573 15.466,0.507 18.486,7.617 l 16.334,38.461 -0.398,3.072 -2.511,-1.909"
   id="path78415" /><polygon
   style="fill:#aa1d2c;fill-opacity:1"
   points="211.221,169.652 206.454,171.564 205.707,169.781 210.473,167.869 "
   id="polygon78419" /><polygon
   style="fill:#aa1d2c;fill-opacity:1"
   points="216.072,181.212 211.292,183.124 210.543,181.333 215.32,179.421 "
   id="polygon78421" /><polygon
   style="fill:#aa1d2c;fill-opacity:1"
   points="235.719,159.827 230.933,161.747 230.177,159.963 234.962,158.044 "
   id="polygon78423" /><polygon
   style="fill:#aa1d2c;fill-opacity:1"
   points="240.632,171.389 235.834,173.308 235.075,171.517 239.871,169.597 "
   id="polygon78425" /><polygon
   style="fill:#ffffff"
   points="227.037,164.497 216.801,168.601 215.197,164.788 225.424,160.684 "
   id="polygon78427" />
<path
   style="opacity:0.1;fill:#ffffff"
   d="m 196.983,328.701 c -2.634,1.224 -5.46,2.033 -8.343,2.389 1.007,0.171 2.014,0.343 3.021,0.515 -0.863,0.453 -1.723,1.37 -2.586,1.823 1.065,0.343 2.192,0.49 3.309,0.433 -0.22,0.415 -0.686,0.94 -0.906,1.355 1.084,-0.306 2.169,-0.613 3.253,-0.919 1.426,-0.82 3.154,-1.101 4.766,-0.774 -1.171,0.038 -2.314,-0.658 -2.716,-1.758 -0.399,-1.1 -0.717,-2.338 0.202,-3.064 z"
   id="path78432" /><path
   style="fill:#f9be0e;fill-opacity:0.2631579;stroke:#aa1c04;stroke-linecap:round;stroke-linejoin:round;stroke-miterlimit:10;opacity:1;stroke-opacity:0.96470588"
   d="m 217.35,389.477 c 5.335,2.971 10.957,5.422 16.785,7.275"
   id="path78434" /><path
   style="fill:#aa1d2c;fill-opacity:0.16194332;stroke:#aa1c03;stroke-linecap:round;stroke-linejoin:round;stroke-miterlimit:10;stroke-opacity:0.96470588"
   d="m 210.886,385.532 c 0.987,0.658 1.986,1.297 2.996,1.917"
   id="path78436" /><path
   style="fill:#ffffff;fill-opacity:1;stroke:#ab1c02;stroke-linecap:round;stroke-linejoin:round;stroke-miterlimit:10;stroke-opacity:0.96078432"
   d="m 173.504,337.739 c 6.407,18.41 18.832,34.563 34.661,45.912"
   id="path78438" /><path
   style="fill:#aa1d2c;fill-opacity:1"
   d="m 157.954,313.293 c 0.045,-0.415 0.289,-0.782 0.654,-0.985 0.212,-0.139 0.482,-0.156 0.71,-0.044 1.196,0.573 1.793,4.889 1.859,5.384 0.013,0.094 -0.036,0.186 -0.121,0.229 -0.086,0.049 -0.196,0.033 -0.263,-0.041 -0.733,-0.698 -1.401,-1.461 -1.996,-2.28 -0.527,-0.638 -0.824,-1.435 -0.843,-2.263 z m 1.138,-0.605 c -0.088,-0.043 -0.192,-0.034 -0.271,0.024 -0.247,0.13 -0.413,0.375 -0.443,0.653 -0.059,0.774 0.759,2.125 2.254,3.667 -0.289,-1.748 -0.854,-4.04 -1.54,-4.344 z"
   id="path78442" /><path
   style="fill:#aa1d2c;fill-opacity:1"
   d="m 160.751,317.708 c -0.229,-1.262 0.155,-4.351 1.145,-4.829 0.232,-0.107 0.592,-0.138 0.988,0.332 l 0.101,0.164 c 1.211,1.776 -1.738,4.386 -1.885,4.476 -0.063,0.05 -0.147,0.066 -0.224,0.042 -0.044,-0.019 -0.082,-0.048 -0.112,-0.086 z m 1.774,-4.194 c -0.269,-0.322 -0.45,-0.211 -0.45,-0.211 -0.598,0.284 -1.04,2.506 -0.945,3.898 0.687,-0.72 2.268,-2.441 1.473,-3.58 z"
   id="path78444" /><polygon
   style="fill:#ffc3bd"
   points="160.493,320.708 164.99,328.059 180.459,313.763 175.97,306.408 "
   id="polygon78446" /><path
   style="fill:#263238"
   d="m 160.342,316.461 c -3.12,-0.995 -6.535,-2.295 -11.835,-7.822 -1.186,-1.233 -4.412,1.119 -2.301,4.553 2.111,3.434 5.526,8.408 7.059,10.902 2.482,4.038 3.247,5.707 5.163,8.94 0.041,0.069 0.087,0.134 0.137,0.195 0.527,0.632 1.465,0.717 2.097,0.191 l 6.515,-5.705 c 0.29,-0.254 0.355,-0.681 0.152,-1.009 l -5.654,-9.197 c -0.31,-0.494 -0.781,-0.864 -1.333,-1.048 z"
   id="path78448" /><polygon
   style="opacity:0.2;enable-background:new"
   points="167.365,314.356 175.967,306.42 180.456,313.776 172.473,321.147 "
   id="polygon78450" /><g
   id="g78463"
   style="fill:#aa1d05;fill-opacity:0.94736844">
				<path
   style="fill:#aa1d05;fill-opacity:0.94736844"
   d="m 313.329,262.783 c -29.884,28.899 -66.444,-1.871 -89.586,16.697 -21.23,17.035 -48.745,40.918 -48.745,40.918 l -7.493,-10.317 c 0,0 24.709,-26.576 45.198,-45.151 19.716,-17.873 84.142,-22.532 84.142,-22.532 0,0 10.486,12.676 16.484,20.385 z"
   id="path78459" />
				<path
   style="opacity:0.3;fill:#aa1d05;fill-opacity:0.94736844"
   d="m 313.093,262.76 c -7.713,7.463 -15.878,10.941 -24.132,12.327 -9.801,1.636 -19.736,0.319 -29.239,-0.819 -13.513,-1.625 -26.14,-2.899 -36.216,5.186 -21.235,17.036 -48.745,40.92 -48.745,40.92 l -7.494,-10.322 c 0,0 24.71,-26.57 45.201,-45.148 19.717,-17.869 84.138,-22.532 84.138,-22.532 0,0 10.493,12.678 16.487,20.388 z"
   id="path78461" />
			</g><path
   style="opacity:0.2;enable-background:new"
   d="m 290.828,272.507 c -0.29,1.074 -0.948,1.917 -1.867,2.579 -9.801,1.636 -19.736,0.319 -29.239,-0.819 16.68,-3.144 31.68,-6.919 31.68,-6.919 0,0 1.936,-4.009 -0.574,5.159 z"
   id="path78465" /><path
   style="fill:#aa1d2c;fill-opacity:1"
   d="m 253.874,401.033 c -0.236,-0.303 -0.314,-0.701 -0.21,-1.071 0.052,-0.222 0.215,-0.402 0.432,-0.474 1.116,-0.395 4.284,2.035 4.637,2.311 0.07,0.054 0.097,0.148 0.066,0.231 -0.027,0.083 -0.105,0.14 -0.193,0.14 -0.929,0.017 -1.858,-0.051 -2.775,-0.205 -0.736,-0.091 -1.423,-0.418 -1.957,-0.932 z m 4.091,0.733 c -1.31,-0.954 -3.147,-2.08 -3.775,-1.891 -0.086,0.031 -0.148,0.105 -0.165,0.195 -0.077,0.244 -0.027,0.511 0.134,0.711 0.447,0.57 1.845,0.923 3.806,0.966 z"
   id="path78467" /><path
   style="fill:#aa1d2c;fill-opacity:1"
   d="m 258.483,402.188 c -0.956,-0.669 -2.699,-2.951 -2.363,-3.878 0.082,-0.223 0.293,-0.473 0.866,-0.421 l 0.167,-0.001 c 1.926,0.376 1.652,3.975 1.653,4.132 -10e-4,0.072 -0.044,0.138 -0.11,0.167 -0.042,0.014 -0.087,0.014 -0.129,10e-4 z m -1.51,-3.92 c -0.37,-0.035 -0.443,0.141 -0.443,0.141 -0.237,0.575 0.939,2.306 1.869,3.151 0.004,-0.897 -0.102,-3.041 -1.342,-3.283 z"
   id="path78469" /><polygon
   style="fill:#ffc3bd"
   points="268.03,385.84 259.221,384.153 258.985,404.304 267.794,405.991 "
   id="polygon78471" /><path
   style="fill:#263238"
   d="m 257.421,401.591 c -2.752,1.13 -7.255,1.391 -14.194,0.612 -1.543,-0.169 -2.415,3.371 1.072,4.547 3.487,1.176 11.366,4.79 13.889,5.641 4.109,1.386 5.612,2.107 8.853,3.259 0.066,0.023 0.133,0.041 0.202,0.053 0.738,0.136 1.447,-0.353 1.583,-1.091 l -0.063,-9.128 c 0.056,-0.351 -0.153,-0.691 -0.491,-0.8 l -9.33,-3.147 c -0.498,-0.157 -1.035,-0.138 -1.521,0.054 z"
   id="path78473" /><polygon
   style="opacity:0.2;enable-background:new"
   points="268.039,385.842 267.907,397.179 259.09,395.356 259.23,384.155 "
   id="polygon78475" /><g
   id="g78481"
   style="fill:#aa1d05;fill-opacity:0.94736844;opacity:1">
					<path
   style="fill:#aa1d05;fill-opacity:0.94736844"
   d="m 269.53,393.891 -12.004,-3.262 c 0,0 -3.458,-37.298 0.53,-66.031 1.044,-7.578 5.571,-17.361 11.391,-27.325 0.005,-0.007 0.005,-0.007 0.01,-0.014 6.261,-10.73 14.015,-21.674 20.523,-30.315 7.481,-9.933 13.313,-16.823 13.313,-16.823 0,0 9.625,2.211 18.701,4.843 3.178,42.096 -39.692,42.801 -45.34,73.105 -5.196,27.789 -7.124,65.822 -7.124,65.822 z"
   id="path78477" />
					<path
   style="opacity:0.3;fill:#aa1d05;fill-opacity:0.94736844"
   d="m 269.53,393.891 -12.004,-3.262 c 0,0 -3.458,-37.298 0.53,-66.031 1.044,-7.578 5.571,-17.361 11.391,-27.325 0.005,-0.007 0.005,-0.007 0.01,-0.014 6.261,-10.73 14.015,-21.674 20.523,-30.315 7.481,-9.933 13.313,-16.823 13.313,-16.823 0,0 7.918,1.819 16.163,4.121 1.542,0.43 2.633,1.821 2.681,3.421 1.18,39.442 -39.958,40.764 -45.483,70.406 -5.196,27.789 -7.124,65.822 -7.124,65.822 z"
   id="path78479" />
				</g><polygon
   style="fill:#aa1d2c;fill-opacity:1"
   points="256.223,384.939 270.911,388.743 270.5,394.594 256.039,391.038 "
   id="polygon78483" /><g
   id="g78527">
				<path
   style="fill:#ffc2bc"
   d="m 354.928,204.055 -13.728,3.514 -0.435,-9.969 c 1.753,0.34 3.046,0.013 4.064,-0.759 l 0.874,-0.815 c 1.659,-1.89 2.628,-5.047 4.3,-7.89 l 3.261,-0.207 1.186,-0.068 6.345,-0.387 c -2.984,4.158 -7.672,12.084 -5.867,16.581 z"
   id="path78487" />
				<path
   style="opacity:0.2;enable-background:new"
   d="m 356.65,190.65 c -0.67,1.623 -1.469,3.191 -2.384,4.695 -1.654,2.039 -6.567,2.279 -9.496,1.562 0.015,-0.023 0.043,-0.044 0.058,-0.067 l 0.874,-0.815 c 1.659,-1.89 2.628,-5.047 4.3,-7.89 l 3.261,-0.207 z"
   id="path78489" />
				<path
   style="fill:#263238"
   d="m 348.796,194.207 c -1.771,-1.74 1.156,-2.233 4.268,-11.005 0.294,-0.829 2.919,-2.81 2.828,-3.686 -0.091,-0.876 -0.58,-1.751 -1.387,-2.103 -0.807,-0.352 -2.357,-0.123 -2.663,0.702 1.214,-16.289 10.016,-15.016 15.921,-15.507 3.708,-0.308 9.378,0.743 14.568,-4.212 0.931,3.298 -1.72,7.684 -8.315,8.585 10.296,-0.094 16.747,-13.288 17.347,-16.956 2.037,4.719 2.769,13.321 -4.019,21.063 1.789,-1.411 4.347,-1.803 6.467,-9.758 1.023,15.589 -0.706,21.268 -7.453,27.555 -3.992,3.72 -12.277,4.504 -11.86,4.795 0,0 11.079,-3.187 14.52,-1.091 -4.108,0.933 -14.171,4.286 -18.532,5.283 -11.24,2.571 -20.396,-2.394 -21.69,-3.665 z"
   id="path78491" />
				<path
   style="fill:#263238"
   d="m 348.796,194.207 c -1.771,-1.74 1.156,-2.233 4.268,-11.005 0.294,-0.829 2.919,-2.81 2.828,-3.686 -0.091,-0.876 -0.58,-1.751 -1.387,-2.103 -0.807,-0.352 -2.357,-0.123 -2.663,0.702 1.214,-16.289 10.016,-15.016 15.921,-15.507 3.708,-0.308 9.378,0.743 14.568,-4.212 0.931,3.298 -1.72,7.684 -8.315,8.585 10.296,-0.094 16.747,-13.288 17.347,-16.956 2.037,4.719 2.769,13.321 -4.019,21.063 1.789,-1.411 4.347,-1.803 6.467,-9.758 1.023,15.589 -0.706,21.268 -7.453,27.555 -3.992,3.72 -12.277,4.504 -11.86,4.795 0,0 11.079,-3.187 14.52,-1.091 -4.108,0.933 -14.171,4.286 -18.532,5.283 -11.24,2.571 -20.396,-2.394 -21.69,-3.665 z"
   id="path78493" />
				<path
   style="fill:#ffc2bc"
   d="m 370.556,185.033 c -4.459,7.093 -6.19,10.188 -11.948,11.93 -8.663,2.62 -16.395,-4.403 -14.154,-12.676 2.019,-7.455 8.962,-17.792 17.741,-16.796 6.275,0.693 10.8,6.341 10.107,12.616 -0.193,1.755 -0.791,3.441 -1.746,4.926 z"
   id="path78495" />
				<path
   style="fill:#263238"
   d="m 354.354,169.212 c 2.224,-0.815 5.006,-2.072 5.406,1.6 1.776,-1.017 4.71,0.56 6.248,1.91 1.538,1.35 2.273,3.46 2.259,5.507 -0.014,2.046 -4.184,8.478 -4.158,12.002 0.446,0.05 3.008,-0.368 2.772,1.755 2.607,-2.792 5.269,-5.781 6.851,-9.258 1.582,-3.477 1.934,-7.745 -0.049,-11.01 -1.073,-1.767 -2.739,-3.109 -4.536,-4.131 -2.297,-1.307 -4.916,-2.156 -7.555,-2.018 -2.639,0.136 -5.723,1.478 -7.238,3.643 z"
   id="path78497" />
				<g
   id="g78507">
					<g
   id="g78501">
						<path
   style="opacity:0.2"
   d="m 363.692,170.658 c 2.56,0.865 0.417,-5.421 -2.989,-2.457 0,0 -0.762,0.941 -0.926,2.599 z"
   id="path78499" />
					</g>
					<path
   style="fill:#263238"
   d="m 379,181.984 c -2.383,3.038 -7.204,3.489 -10.474,1.436 -3.27,-2.053 -4.965,-6.094 -4.825,-9.953 0.031,-0.86 0.142,-1.725 0.03,-2.579 -0.112,-0.854 -0.49,-1.723 -1.217,-2.184 -0.727,-0.461 -1.836,-0.354 -2.29,0.378 0.295,-1.268 1.633,-1.709 2.934,-1.759 0.033,-0.001 0.065,-0.002 0.098,-0.003 4.084,-0.113 7.452,3.079 8.044,7.121 0.226,1.544 0.917,3.081 1.823,4.256 1.488,1.932 3.444,3.451 5.877,3.287 z"
   id="path78503" />
					<path
   style="opacity:0.1;fill:#ffffff"
   d="m 379,181.984 c -2.383,3.038 -7.204,3.489 -10.474,1.436 -3.27,-2.053 -4.965,-6.094 -4.825,-9.953 0.031,-0.86 0.142,-1.725 0.03,-2.579 -0.112,-0.854 -0.49,-1.723 -1.217,-2.184 -0.727,-0.461 -1.836,-0.354 -2.29,0.378 0.295,-1.268 1.633,-1.709 2.934,-1.759 0.033,-0.001 0.065,-0.002 0.098,-0.003 4.084,-0.113 7.452,3.079 8.044,7.121 0.226,1.544 0.917,3.081 1.823,4.256 1.488,1.932 3.444,3.451 5.877,3.287 z"
   id="path78505" />
				</g>
				<path
   style="fill:#ffc2bc"
   d="m 369.358,193.495 c -1.379,0.853 -3.041,1.125 -4.62,0.756 -2.08,-0.509 -2.08,-2.621 -0.626,-4.041 1.306,-1.287 3.964,-2.527 5.645,-1.313 1.198,0.938 1.408,2.67 0.47,3.868 -0.236,0.301 -0.532,0.549 -0.869,0.73 z"
   id="path78509" />
				<path
   style="fill:#263238"
   d="m 358.309,181.012 c -0.325,0.593 -0.905,0.894 -1.293,0.695 -0.388,-0.199 -0.446,-0.87 -0.12,-1.463 0.325,-0.593 0.905,-0.894 1.293,-0.695 0.387,0.198 0.445,0.869 0.12,1.463 z"
   id="path78511" />
				<path
   style="fill:#263238"
   d="m 351.113,187.636 c -0.325,0.593 -0.905,0.894 -1.293,0.695 -0.388,-0.199 -0.445,-0.87 -0.12,-1.463 0.325,-0.594 0.905,-0.894 1.293,-0.695 0.387,0.199 0.445,0.87 0.12,1.463 z"
   id="path78513" />
				<path
   style="fill:#263238"
   d="m 351.563,177.33 c -0.335,0.592 -0.905,0.894 -1.303,0.694 -0.398,-0.2 -0.446,-0.87 -0.11,-1.472 0.336,-0.602 0.896,-0.895 1.293,-0.695 0.398,0.2 0.475,0.873 0.12,1.473 z"
   id="path78515" />
				<path
   style="fill:#263238"
   d="m 351.598,175.986 -1.215,-1.156 c 0,0 0.133,1.445 1.215,1.156 z"
   id="path78517" />
				<path
   style="fill:#ec837e"
   d="m 352.783,179.332 c -1.277,1.069 -2.693,1.96 -4.21,2.648 0.376,0.775 1.075,1.344 1.91,1.554 z"
   id="path78519" />
				<path
   style="fill:#263238"
   d="m 361.769,177.344 c -0.087,-0.03 -0.152,-0.113 -0.171,-0.217 -0.152,-0.942 -0.689,-1.722 -1.44,-2.09 -0.134,-0.058 -0.2,-0.231 -0.15,-0.392 0.051,-0.16 0.201,-0.246 0.336,-0.193 0.002,0.001 0.004,0.001 0.005,0.002 0.915,0.433 1.573,1.372 1.761,2.512 0.029,0.163 -0.058,0.329 -0.197,0.377 -0.048,0.015 -0.097,0.015 -0.144,0.001 z"
   id="path78521" />
				<path
   style="fill:#263238"
   d="m 351.89,171.323 c -0.116,-0.015 -0.231,0.035 -0.3,0.13 -0.109,0.146 -0.08,0.352 0.066,0.461 10e-4,0.001 10e-4,0.001 0.002,0.001 0.997,0.777 2.312,1.018 3.519,0.643 0.168,-0.053 0.262,-0.233 0.209,-0.401 -0.003,-0.009 -0.006,-0.017 -0.009,-0.025 -0.065,-0.17 -0.255,-0.255 -0.425,-0.19 -10e-4,0 -0.002,0.001 -0.002,0.001 -0.999,0.291 -2.077,0.083 -2.896,-0.558 -0.049,-0.035 -0.105,-0.056 -0.164,-0.062 z"
   id="path78523" />
				<path
   style="fill:#263238"
   d="m 358.345,179.668 -1.215,-1.156 c 0,0 0.128,1.485 1.215,1.156 z"
   id="path78525" />
			</g><path
   style="fill:#407bff"
   d="m 335.994,194.618 -1.286,-1.398 -1.342,-1.555 c -0.893,-1.045 -1.749,-2.133 -2.58,-3.215 -1.657,-2.181 -3.167,-4.465 -4.521,-6.839 -1.302,-2.319 -2.411,-4.738 -3.315,-7.232 -0.852,-2.399 -1.408,-4.888 -1.655,-7.414 l -0.635,2.691 c 1.295,-2.219 2.71,-4.369 4.236,-6.44 1.599,-2.229 3.211,-4.454 4.873,-6.668 l 4.973,-6.644 c 1.637,-2.22 3.324,-4.428 4.953,-6.727 v 0 c 0.886,-1.222 0.594,-2.928 -0.654,-3.81 -1.056,-0.747 -2.492,-0.677 -3.456,0.169 -2.149,1.864 -4.182,3.795 -6.255,5.729 -2.073,1.934 -4.023,3.963 -6.01,5.982 -1.987,2.02 -3.898,4.109 -5.786,6.27 -2.026,2.239 -3.889,4.616 -5.575,7.115 -0.457,0.695 -0.696,1.509 -0.685,2.34 l 0.015,0.329 c 0.063,3.429 0.595,6.838 1.584,10.133 0.928,3.189 2.188,6.277 3.762,9.214 1.508,2.889 3.237,5.662 5.171,8.296 1.016,1.308 1.966,2.562 3.075,3.814 0.529,0.62 1.034,1.234 1.619,1.842 0.585,0.607 1.057,1.135 1.826,1.864 2.168,2.163 5.692,2.199 7.872,0.079 2.18,-2.119 2.189,-5.591 0.022,-7.754 z"
   id="path78529" /><path
   style="opacity:1;enable-background:new;fill:#aa1d2c;fill-opacity:1"
   d="m 335.994,194.618 -1.286,-1.398 -1.342,-1.555 c -0.893,-1.045 -1.749,-2.133 -2.58,-3.215 -1.657,-2.181 -3.167,-4.465 -4.521,-6.839 -1.302,-2.319 -2.411,-4.738 -3.315,-7.232 -0.852,-2.399 -1.408,-4.888 -1.655,-7.414 l -0.635,2.691 c 1.295,-2.219 2.71,-4.369 4.236,-6.44 1.599,-2.229 3.211,-4.454 4.873,-6.668 l 4.973,-6.644 c 1.637,-2.22 3.324,-4.428 4.953,-6.727 v 0 c 0.886,-1.222 0.594,-2.928 -0.654,-3.81 -1.056,-0.747 -2.492,-0.677 -3.456,0.169 -2.149,1.864 -4.182,3.795 -6.255,5.729 -2.073,1.934 -4.023,3.963 -6.01,5.982 -1.987,2.02 -3.898,4.109 -5.786,6.27 -2.026,2.239 -3.889,4.616 -5.575,7.115 -0.457,0.695 -0.696,1.509 -0.685,2.34 l 0.015,0.329 c 0.063,3.429 0.595,6.838 1.584,10.133 0.928,3.189 2.188,6.277 3.762,9.214 1.508,2.889 3.237,5.662 5.171,8.296 1.016,1.308 1.966,2.562 3.075,3.814 0.529,0.62 1.034,1.234 1.619,1.842 0.585,0.607 1.057,1.135 1.826,1.864 2.168,2.163 5.692,2.199 7.872,0.079 2.18,-2.119 2.189,-5.591 0.022,-7.754 z"
   id="path78531" /><g
   id="g78537">
									<path
   style="fill:#ffc3bd"
   d="m 336.436,146.975 7.435,-1.802 -3.973,-9.498 c 0,0 -5.766,1.636 -7.1,7.12 z"
   id="path78533" />
									<path
   style="fill:#ffc3bd"
   d="m 347.504,137.639 -1.629,-2.078 c -0.967,-1.23 -2.69,-1.598 -4.075,-0.87 l -1.902,0.984 3.973,9.498 3.445,-3.369 c 1.11,-1.14 1.19,-2.918 0.188,-4.165 z"
   id="path78535" />
								</g><g
   id="g78543"
   style="fill:#aa1d2c;fill-opacity:1">
								<path
   style="fill:#aa1d2c;fill-opacity:1"
   d="m 309.616,212.345 c 1.599,-4.603 5.057,-7.825 8.51,-10.444 1.493,-1.132 2.581,-2.473 3.779,-3.335 11.999,-8.638 22.212,-0.752 31.962,6.586 10.01,7.533 15.858,8.538 -2.963,23.421 -16.439,13 -28.258,33.179 -28.258,33.179 l -31.772,-18.93 c 10e-4,-0.001 13.338,-14.922 18.742,-30.477 z"
   id="path78541" />
							</g><path
   style="fill:none;stroke:#263238;stroke-width:0.75;stroke-miterlimit:10"
   d="m 354.671,202.956 c 1.33,5.022 -6.258,4.698 -11.171,4.036 -5.295,-0.714 -9.473,-3.541 -11.81,-8.346 -2.337,-4.805 -0.812,-15.36 1.896,-19.966 -0.106,3.246 -2.582,11.2 2.633,16.109 2.365,2.226 3.01,1.123 6.147,1.963"
   id="path78545" /><g
   id="g78549">
								<path
   style="fill:#407bff"
   d="m 355.432,205.54 0.689,-0.92 c 0.318,-1.075 -0.696,-2.306 -1.633,-2.921 -3.595,-2.358 -10.936,-7.301 -13.063,-7.088 -0.438,0.044 -0.87,0.123 -1.288,0.226 -1.728,0.425 -2.033,2.759 -0.49,3.646 l 13.208,7.588 c 0.869,0.5 1.976,0.272 2.577,-0.531 z"
   id="path78547" />
							</g><g
   style="opacity:0.6977492;fill:#aa1d2c;fill-opacity:1"
   id="g78553">
								<path
   style="fill:#aa1d2c;fill-opacity:1"
   d="m 355.432,205.54 0.689,-0.92 c 0.318,-1.075 -0.696,-2.306 -1.633,-2.921 -3.595,-2.358 -10.936,-7.301 -13.063,-7.088 -0.438,0.044 -0.87,0.123 -1.288,0.226 -1.728,0.425 -2.033,2.759 -0.49,3.646 l 13.208,7.588 c 0.869,0.5 1.976,0.272 2.577,-0.531 z"
   id="path78551" />
							</g><path
   style="fill:#aa1d2c;fill-opacity:1"
   d="m 352.904,217.992 c 1.888,2.234 17.983,17.033 22.478,20.329 l 0.286,0.207 0.126,0.027 c 1.6,0.93 3.379,1.512 5.219,1.708 4.178,0.605 25.521,-2.908 27.749,-4.029 1.381,-0.674 1.954,-2.34 1.28,-3.721 -0.556,-1.138 -1.81,-1.758 -3.052,-1.507 l -0.089,-0.019 c -2.179,0.404 -21.889,0.703 -24.285,-0.308 -0.483,-0.083 -0.939,-0.277 -1.334,-0.566 l 0.402,0.285 c -3.946,-3.499 -18.615,-17.921 -20.352,-19.752 l -0.075,-0.082 c -2.061,-2.313 -5.606,-2.517 -7.919,-0.457 -2.313,2.061 -2.517,5.606 -0.456,7.919 v 0 z"
   id="path78561" /><path
   style="fill:#ffc3bd"
   d="m 405.423,230.448 4.751,-5.094 4.284,8.909 c 0,0 -1.94,2.949 -6.255,2.816 -1.062,-0.033 -2.007,-0.696 -2.442,-1.665 l -0.848,-1.889 c -0.465,-1.035 -0.263,-2.247 0.51,-3.077 z"
   id="path78563" /><path
   style="fill:#ffc3bd"
   d="m 417.558,225.533 1.19,2.678 c 0.637,1.42 0.154,3.093 -1.141,3.956 l -3.149,2.096 -4.284,-8.909 3.149,-1.428 c 1.613,-0.72 3.505,-0.002 4.235,1.607 z"
   id="path78565" /><g
   id="g78581">
					<g
   id="g78573">
						<path
   style="fill:#263238"
   d="m 336.574,175.055 c -0.558,1.988 -1.833,3.369 -2.847,3.084 -1.014,-0.285 -1.384,-2.127 -0.825,-4.115 0.558,-1.988 1.833,-3.369 2.847,-3.084 1.014,0.284 1.384,2.126 0.825,4.115 z"
   id="path78569" />
						<path
   style="opacity:0.8;fill:#ffffff"
   d="m 336.574,175.055 c -0.558,1.988 -1.833,3.369 -2.847,3.084 -1.014,-0.285 -1.384,-2.127 -0.825,-4.115 0.558,-1.988 1.833,-3.369 2.847,-3.084 1.014,0.284 1.384,2.126 0.825,4.115 z"
   id="path78571" />
					</g>
					<g
   id="g78579">
						<polygon
   style="fill:#407bff"
   points="334.153,173.326 333.721,174.866 334.376,176.025 335.355,172.541 "
   id="polygon78575" />
						<polygon
   style="fill:#407bff"
   points="335.972,173.836 335.539,175.377 334.376,176.025 335.355,172.541 "
   id="polygon78577" />
					</g>
				</g><path
   style="fill:#263238"
   d="m 323.058,261.811 -29.831,-21.363 c -0.292,-0.201 -0.661,-0.246 -0.803,-0.088 l -2.046,2.276 c -0.13,0.144 -0.007,0.367 0.234,0.583 l 30.898,22.098 c 0.34,0.231 0.772,0.234 0.851,0.007 l 1.014,-2.98 c 0.018,-0.227 -0.109,-0.441 -0.317,-0.533 z"
   id="path78585" /><polygon
   style="fill:#aa1d2c;fill-opacity:1"
   points="175.684,321.691 166.042,308.831 170.363,304.808 179.37,319.566 "
   id="polygon78587" />
</svg>
